<?xml version="1.0" standalone="no"?>
<!DOCTYPE svg PUBLIC "-//W3C//DTD SVG 1.1//EN" "http://www.w3.org/Graphics/SVG/1.1/DTD/svg11.dtd" >
<svg xmlns="http://www.w3.org/2000/svg" xmlns:xlink="http://www.w3.org/1999/xlink" version="1.1">
<metadata></metadata>
<defs>
<font id="dustismobold" horiz-adv-x="1141" >
<font-face units-per-em="2048" ascent="1638" descent="-410" />
<missing-glyph horiz-adv-x="754" />
<glyph horiz-adv-x="0" />
<glyph unicode="&#xd;" horiz-adv-x="754" />
<glyph unicode=" "  horiz-adv-x="754" />
<glyph unicode="&#x09;" horiz-adv-x="754" />
<glyph unicode="&#xa0;" horiz-adv-x="754" />
<glyph unicode="!" horiz-adv-x="405" d="M86 88q0 36 25.5 61.5t61.5 25.5q37 0 63 -25.5t26 -61.5q0 -37 -26 -62.5t-63 -25.5q-36 0 -61.5 25.5t-25.5 62.5zM97 294v1059h166v-1059h-166z" />
<glyph unicode="&#x22;" horiz-adv-x="687" d="M83 874v483h165v-483h-165zM380 874v483h166v-483h-166z" />
<glyph unicode="#" horiz-adv-x="1162" d="M6 243l49 169h195q6 23 11 42.5t9.5 38.5t10 38.5t11.5 43.5h-198l46 169h195q14 54 29.5 113t29.5 113h173l-56 -226h169q14 54 29 113t29 113h172l-58 -226h176l-42 -169h-177q-5 -22 -10 -41t-10.5 -38.5t-10.5 -39.5l-11 -44h177l-44 -169h-177q-15 -59 -32 -122.5 t-31 -120.5h-176l66 243h-170q-14 -59 -31 -122.5t-32 -120.5h-172l63 243h-202zM423 412h171l42 163h-168q-12 -44 -22 -80t-23 -83z" />
<glyph unicode="$" horiz-adv-x="905" d="M7 431h175q35 -70 130 -74v245q-130 4 -212 71q-87 72 -87 192q0 93 45 160.5t133 107.5q23 11 54.5 17.5t66.5 8.5v198h170v-197q66 -2 113.5 -17.5t89.5 -46.5q81 -61 111 -183h-172q-44 71 -142 77v-235q136 -4 220 -87q89 -85 89 -202q0 -183 -183 -257 q-23 -9 -55 -14t-71 -7v-188h-170v188q-56 3 -106.5 18.5t-85.5 42.5q-80 62 -113 182zM178 865q0 -74 81 -101q18 -7 53 -9v234q-64 -5 -99 -39.5t-35 -84.5zM482 357q73 4 111.5 34.5t38.5 74.5q0 25 -9.5 48t-30.5 45q-34 39 -110 43v-245z" />
<glyph unicode="%" horiz-adv-x="1311" d="M19 1084q0 116 83 194v-1q83 80 198 80q117 0 198 -80v1q83 -77 83 -194t-83 -197q-83 -78 -198 -78q-114 0 -199 80q-82 82 -82 195zM189 1084q0 -23 7.5 -42.5t24.5 -34.5q30 -30 79 -30q46 0 79 32q34 30 34 75q0 42 -34 73q-35 32 -79 32q-76 0 -103 -65 q-8 -17 -8 -40zM299 0l401 1357h176l-399 -1357h-178zM596 274q0 115 81 196q84 79 198 79q113 0 196 -81q83 -80 83 -194q0 -115 -83 -194q-81 -80 -196 -80q-119 0 -199 79q-80 80 -80 195zM766 274q0 -44 32 -75q31 -30 77 -30q44 0 76 30q34 31 34 75t-34 74 q-31 32 -76 32q-46 0 -77 -31q-32 -29 -32 -75z" />
<glyph unicode="&#x26;" horiz-adv-x="1012" d="M37 340q0 162 181 259q-15 21 -29.5 43t-28.5 43l1 -2q-21 24 -32 60t-13 85q-3 102 77 176q81 72 202 72q122 0 196 -81q71 -77 71 -196q0 -57 -17 -102.5t-51 -82.5q-17 -18 -46.5 -38.5t-67.5 -43.5l199 -232q27 39 22 91h176q0 -60 -25 -118t-70 -112 q15 -19 32.5 -41t29.5 -38l-140 -93l-54 68q-49 -26 -122.5 -41.5t-171.5 -14.5q-108 1 -215 96q-104 96 -104 243zM206 339q0 -82 50 -127h-1q52 -47 128 -47q63 0 104 8t64 17l-237 288q-108 -50 -108 -139zM286 829q-4 -78 95 -173q135 57 128 156q-8 99 -117 101 q-102 -9 -106 -84z" />
<glyph unicode="'" horiz-adv-x="390" d="M92 874v483h166v-483h-166z" />
<glyph unicode="(" horiz-adv-x="515" d="M53 484q0 352 87 591q91 246 273 287v-143q-100 -42 -145 -236q-46 -197 -46 -499q0 -301 46 -498q45 -194 145 -236v-143q-182 41 -273 287q-87 238 -87 590z" />
<glyph unicode=")" horiz-adv-x="485" d="M35 -252q101 42 146 236q23 100 34.5 224t11.5 275q0 150 -11.5 274t-34.5 224q-45 194 -146 236v143q182 -40 273 -287q88 -237 88 -590q0 -354 -88 -591q-91 -247 -273 -287v143z" />
<glyph unicode="*" horiz-adv-x="808" d="M43 519v154h185q-11 19 -24 41.5l-26 45t-25.5 44t-22.5 38.5l134 76l98 -171q25 44 49.5 86t48.5 84l133 -76l-97 -168h183v-154h-184l44 -77t43 -73l-134 -78l-86 150q-22 -38 -44 -77t-43 -74l-133 78l88 151h-187z" />
<glyph unicode="+" horiz-adv-x="824" d="M20 447v165h275v291h166v-291h271v-165h-271v-285h-166v285h-275z" />
<glyph unicode="," horiz-adv-x="390" d="M44 -91q55 21 84 41t37 41q-59 12 -86 66q-15 31 -15 60q0 16 6 33t14 34q18 30 48 46.5t68 16.5q49 0 88 -37q40 -36 40 -88q1 -121 -76 -208q-38 -41 -85.5 -65.5t-99.5 -29.5z" />
<glyph unicode="-" horiz-adv-x="739" d="M51 516v165h547v-165h-547z" />
<glyph unicode="." horiz-adv-x="420" d="M51 125q0 27 10 50.5t27 40.5t40 27t49 10q27 0 50.5 -10t40 -27.5t26 -40.5t9.5 -50q0 -26 -10 -49t-27 -40t-40 -26.5t-49 -9.5t-49 10t-40 27t-27 39.5t-10 48.5z" />
<glyph unicode="/" horiz-adv-x="631" d="M-13 0l404 1357h174l-400 -1357h-178z" />
<glyph unicode="0" horiz-adv-x="1019" d="M38 361v248q0 158 127 269q126 113 288 113q80 0 152.5 -29t134.5 -84q64 -56 97 -123.5t33 -145.5v-248q0 -78 -33 -145.5t-97 -124.5q-62 -55 -134.5 -83.5t-152.5 -28.5q-81 0 -152.5 28t-135.5 83q-127 114 -127 271zM203 350q0 -81 76 -143q79 -63 173 -63 q95 0 175 64q77 63 77 151v248q0 91 -77 154q-80 65 -175 65q-94 0 -174 -62q-75 -60 -75 -147v-267z" />
<glyph unicode="1" horiz-adv-x="446" d="M32 0v165h86v574h-86v135q56 0 89.5 22.5t36.5 73.5h125v-805h68v-165h-319z" />
<glyph unicode="2" horiz-adv-x="1070" d="M47 0v146q1 128 68 207.5t190 107.5q113 23 202.5 48.5t140.5 48.5q91 46 94 101q-14 82 -78.5 124.5t-181.5 42.5q-116 0 -193 -56q-74 -52 -74 -132h-167q0 171 133 262q131 91 300 91q115 0 223 -48q110 -50 157 -128v1q48 -77 48 -154q1 -125 -96 -194 q-89 -63 -206 -97q-56 -16 -120.5 -31.5t-139.5 -30.5q-61 -11 -94.5 -46.5t-37.5 -97.5h682v-165h-850z" />
<glyph unicode="3" horiz-adv-x="1061" d="M19 39h168v-23q-1 -68 58 -149q57 -78 220 -78q123 0 201 68q79 67 79 169q0 103 -83 183t-269 80v162q75 1 128 14.5t82 37.5q26 24 41.5 54t15.5 62q2 92 -64 148q-65 59 -161 59q-94 0 -166 -58h-15l-131 90q54 52 103 80v-1q97 54 208 54q158 0 276 -101 q118 -103 117 -271q0 -114 -63 -181q-20 -20 -39 -36t-39 -27q49 -23 86 -53t66 -71q73 -102 73 -232q0 -127 -76 -224q-77 -100 -177 -135q-51 -19 -98.5 -27.5t-94.5 -8.5q-186 0 -315 111q-131 112 -131 304z" />
<glyph unicode="4" horiz-adv-x="933" d="M-9 0v151l499 819h212v-805h98v-165h-98v-388h-165v388h-546zM185 165h352v567q-45 -73 -88.5 -143t-86.5 -139t-87 -139.5t-90 -145.5z" />
<glyph unicode="5" horiz-adv-x="1022" d="M49 -19l31 7q52 -93 141 -152q88 -59 183 -59q148 0 234 98q89 99 89 230q0 63 -25 113.5t-73 86.5q-43 29 -99.5 47t-120.5 18q-136 0 -225 -89h-131v689h693v-165h-528v-307q90 37 191 37q203 0 343 -126q140 -128 140 -304q0 -198 -127 -345q-127 -148 -359 -148 q-200 0 -357 153v216z" />
<glyph unicode="6" horiz-adv-x="1054" d="M19 535v30t1 30q5 132 52 261t138 250q184 249 507 249v-165q-208 0 -352 -156q-66 -70 -106 -148t-57 -166q145 86 270 86q181 0 312 -106q137 -106 137 -300q0 -167 -133 -284q-133 -116 -316 -116q-132 0 -238 55q-107 56 -165 168q-24 48 -37 126t-13 186zM196 414 q0 -120 75 -184q38 -30 89.5 -47.5t112.5 -17.5q119 0 202 66h-1q80 65 80 175q0 103 -77 169q-75 66 -173 66q-143 0 -228 -63q-80 -61 -80 -164z" />
<glyph unicode="7" horiz-adv-x="1074" d="M16 805v165h960l-675 -1358h-188l588 1193h-685z" />
<glyph unicode="8" horiz-adv-x="1065" d="M28 400q0 212 188 328q-121 104 -121 267q0 153 114 258q113 104 263 104t262 -104q114 -105 114 -258q0 -162 -120 -267q187 -117 187 -328q-2 -103 -39.5 -178t-109.5 -125q-140 -97 -294 -97q-76 0 -150 24t-145 73q-145 100 -149 303zM194 400q0 -95 78 -164 q83 -71 200 -71q118 0 198 71t80 164q-2 98 -82 164q-78 66 -196 66q-119 0 -198 -66t-80 -164zM261 995q0 -96 63 -143q67 -51 148 -51q82 0 148 51q63 47 63 143q0 76 -65 135q-68 62 -146 62q-41 0 -76.5 -15.5t-69.5 -46.5q-65 -59 -65 -135z" />
<glyph unicode="9" horiz-adv-x="1051" d="M19 591q0 167 133 284q133 116 317 116q64 0 122.5 -16t108.5 -45.5t92 -71t73 -93.5q26 -48 40.5 -129t14.5 -190v-29t-1 -31q-4 -135 -52 -266.5t-136 -256.5q-92 -127 -217 -190t-288 -63v165q207 0 350 166q131 150 163 330q-145 -86 -270 -86q-180 0 -313 105 q-137 108 -137 301zM187 586q0 -104 76 -171q38 -31 82.5 -48t91.5 -17q72 0 128 16t98 47q82 61 82 164q0 109 -82 178q-80 71 -195 71q-122 0 -203 -66q-78 -62 -78 -174z" />
<glyph unicode=":" horiz-adv-x="429" d="M70 129q0 26 9.5 49.5t26.5 41t40 28t50 10.5q26 0 49 -10.5t40 -28t27 -41t10 -49.5t-10 -49t-27 -40t-40 -26.5t-49 -9.5q-27 0 -50 10t-40 27t-26.5 39.5t-9.5 48.5zM70 849q0 52 37 89q39 37 89 37q53 0 88 -38q38 -35 38 -88q0 -26 -10 -49.5t-27 -41t-40 -27.5 t-49 -10q-27 0 -50 10t-40 27.5t-26.5 41t-9.5 49.5z" />
<glyph unicode=";" horiz-adv-x="420" d="M42 -97q55 21 84 41t37 41q-59 12 -86 67q-15 30 -15 59q0 16 6 33.5t14 33.5q18 30 48 46.5t68 16.5q51 0 88 -37q40 -36 40 -88q2 -122 -76 -207q-38 -42 -85.5 -66.5t-99.5 -29.5zM71 849q0 53 38 89q39 37 88 37q51 0 89 -38l-1 1q40 -36 40 -89q0 -52 -38 -90 t-90 -38q-26 0 -49 10t-40 27.5t-27 41t-10 49.5z" />
<glyph unicode="&#x3c;" horiz-adv-x="694" d="M54 490v182l501 518v-230l-351 -381q89 -96 176 -189t175 -189v-229z" />
<glyph unicode="=" horiz-adv-x="815" d="M51 313v166h658v-166h-658zM51 609v165h658v-165h-658z" />
<glyph unicode="&#x3e;" horiz-adv-x="694" d="M88 -28v229l351 378q-89 96 -176 190.5t-175 190.5v230l501 -518v-182z" />
<glyph unicode="?" horiz-adv-x="828" d="M17 972q0 184 104 285q103 100 249 100q144 0 250 -101q105 -99 105 -242q0 -124 -60 -196q-33 -40 -99 -74q-26 -11 -52 -23t-52 -23h1q-46 -24 -68 -104q-11 -42 -13 -124l-1 -178h-166l1 190q1 77 14.5 138.5t42.5 110.5q21 35 52 64.5t75 55.5q20 10 47.5 25t62.5 36 l-2 -1q44 30 44 80q0 107 -51 155q-46 43 -131 43q-60 0 -103.5 -28t-68.5 -79q-13 -32 -13 -110h-168zM212 88q0 36 25.5 61.5t62.5 25.5q36 0 62 -25.5t26 -61.5q0 -37 -26 -62.5t-62 -25.5q-37 0 -62.5 25.5t-25.5 62.5z" />
<glyph unicode="@" horiz-adv-x="1827" d="M139 662q0 191 94 370q98 180 266 287q181 115 407 115q172 0 332 -80q162 -80 261 -222q108 -156 108 -353q0 -14 -1.5 -32.5t-3.5 -41.5q-27 -255 -113 -374q-80 -109 -207 -109q-91 0 -140 61h1q-14 17 -24.5 37.5t-15.5 42.5q-133 -133 -332 -133q-166 0 -275 111 q-108 114 -108 276q0 218 173 383q169 160 384 160q183 0 274 -130q5 20 9.5 39t7.5 34h71q-153 163 -394 163q-259 0 -436 -186q-171 -177 -171 -419q0 -244 156 -404q144 -150 330 -150q174 0 386 124l82 -148q-124 -72 -239.5 -107t-227.5 -35q-80 0 -158 22.5t-152 65.5 q-75 44 -137.5 108t-107.5 139q-46 85 -72.5 183.5t-26.5 202.5zM552 634q0 -165 144 -223q23 -11 50.5 -15.5t58.5 -4.5q70 0 132 28t113 82q49 54 76.5 121.5t27.5 139.5q0 81 -34 136t-99 84q-47 19 -99 19h-6q-141 0 -253 -110q-56 -55 -83.5 -118.5t-27.5 -138.5z M1265 429q0 -43 45 -43q21 0 65 72q33 57 50 134t17 177q0 133 -62 237q-58 -288 -86.5 -431.5t-28.5 -145.5z" />
<glyph unicode="A" horiz-adv-x="1180" d="M29 0l407 1357h185l406 -1357h-178l-151 503h-345q-37 -124 -75.5 -252t-76.5 -251h-172zM403 670h248q-15 52 -30 102l-30 100t-31 101.5t-32 107.5q-17 -54 -32 -104.5t-30 -100t-30.5 -100t-32.5 -106.5z" />
<glyph unicode="B" horiz-adv-x="1150" d="M53 0v1357h433q183 0 316 -107q133 -114 133 -282q0 -173 -137 -282q99 -54 149.5 -131.5t50.5 -178.5q0 -124 -85 -223q-38 -43 -90 -75t-111 -52q-40 -12 -82 -19t-84 -7h-493zM218 165h328q128 0 216 76q75 66 75 135q0 34 -20 68t-55 63q-44 32 -98.5 50t-117.5 18 h-328v-410zM218 744h271q61 0 112.5 18t93.5 52q36 33 55.5 71.5t19.5 82.5q0 43 -19.5 81.5t-56.5 71.5q-42 35 -92 53t-109 18h-275v-448z" />
<glyph unicode="C" horiz-adv-x="1134" d="M36 512v335q0 78 19 150t58 138q76 134 191 190q111 55 221 55q108 0 221 -55q114 -56 192 -190q26 -44 43 -95t28 -110h-165q-11 57 -33 103t-54 82v-1q-92 101 -232 101q-139 0 -231 -101q-93 -102 -93 -251v-367q0 -150 93 -252q93 -100 231 -100q140 0 232 101v-1 q32 36 54 82t33 103h165q-11 -59 -28 -110t-43 -95q-78 -134 -192 -190q-113 -55 -221 -55q-110 0 -221 55q-115 56 -191 190q-39 66 -58 138t-19 150z" />
<glyph unicode="D" horiz-adv-x="1127" d="M53 0v1357h433q153 0 277 -94q115 -89 172 -235q36 -96 36 -204v-291q0 -218 -138 -373q-144 -160 -347 -160h-433zM218 165h268q69 0 125 26t102 78q93 106 93 264v291q0 161 -91 266q-89 102 -229 102h-268v-1027z" />
<glyph unicode="E" horiz-adv-x="974" d="M53 0v1357h808v-165h-643v-378h516v-165h-516v-484h643v-165h-808z" />
<glyph unicode="F" horiz-adv-x="953" d="M53 0v1357h808v-165h-643v-374h516v-169h-516v-649h-165z" />
<glyph unicode="G" horiz-adv-x="1169" d="M36 512v335q0 78 19 150t58 138q76 134 191 190q111 55 221 55q108 0 221 -55q114 -56 192 -190q77 -133 77 -307h-166q0 185 -92 286t-232 101q-139 0 -231 -101q-93 -102 -93 -251v-367q0 -150 93 -252q93 -100 231 -100q66 0 126.5 27.5t105.5 72.5q42 48 66 108 t27 131h-280v74v21v24q0 13 0.5 24.5t0.5 20.5h370q32 -9 48 -25t25 -48v-574h-165v107q-24 -23 -49 -41t-53 -32q-113 -55 -222 -55q-110 0 -221 55q-115 56 -191 190q-39 66 -58 138t-19 150z" />
<glyph unicode="H" horiz-adv-x="1070" d="M53 0v1357h165v-689h516v689h165v-1357h-165v503h-516v-503h-165z" />
<glyph unicode="I" horiz-adv-x="642" d="M28 0v165h167v1028h-167v164h505v-164h-171v-1028h171v-165h-505z" />
<glyph unicode="J" horiz-adv-x="985" d="M-6 378v142h166v-147q0 -41 26 -86q34 -63 97 -103q65 -40 131 -40q99 0 175 70q74 69 74 164v814h-188v165h356v-985q0 -75 -37 -155q-53 -111 -154 -174q-101 -64 -224 -64q-167 0 -291 115q-131 122 -131 284z" />
<glyph unicode="K" horiz-adv-x="1184" d="M40 0v1357h166v-585q146 146 291.5 292.5t291.5 292.5h236l-556 -560q69 -96 141.5 -197t145.5 -202t145 -201.5t141 -196.5h-206l-490 672q-35 -35 -69.5 -69t-70.5 -70v-533h-166z" />
<glyph unicode="L" horiz-adv-x="941" d="M53 0v1357h165v-1192h580v-165h-745z" />
<glyph unicode="M" horiz-adv-x="1425" d="M51 0v1357h194l393 -787q99 197 197.5 394t195.5 393h200v-1357h-169v1036q-85 -168 -169.5 -337t-168.5 -336h-168l-338 673v-1036h-167z" />
<glyph unicode="N" horiz-adv-x="1196" d="M51 0v1357h181l619 -1048v1048h168v-1357h-180l-621 1054v-1054h-167z" />
<glyph unicode="O" horiz-adv-x="1162" d="M36 512v335q0 78 19 150t58 138q76 134 191 190q111 55 221 55q108 0 221 -55q114 -56 192 -190q77 -133 77 -288v-335q0 -155 -77 -288q-78 -134 -192 -190q-113 -55 -221 -55q-110 0 -221 55q-115 56 -191 190q-39 66 -58 138t-19 150zM201 496q0 -150 93 -252 q93 -100 231 -100q139 0 232 100q92 101 92 252v367q0 150 -92 251t-232 101q-139 0 -231 -101q-93 -102 -93 -251v-367z" />
<glyph unicode="P" horiz-adv-x="1090" d="M51 0v1357h393q218 0 372 -121q162 -127 162 -304q0 -183 -161 -306q-156 -123 -373 -123h-226v-503h-167zM218 668h226q83 0 149 19t118 56q101 74 101 189q0 178 -216 240q-68 20 -152 20h-226v-524z" />
<glyph unicode="Q" horiz-adv-x="1169" d="M36 512v335q0 78 19 150t58 138q76 134 191 190q111 55 221 55q108 0 221 -55q114 -56 192 -190q77 -133 77 -288v-335q0 -155 -77 -288q-6 -11 -7.5 -15t-8.5 -12l28 -30l28 -30l37 -40v-118h-118q-8 8 -18 19.5t-18 19.5h1q-16 17 -26 28t-26 28q-15 -11 -31.5 -21.5 t-32.5 -18.5q-56 -26 -112 -40.5t-109 -14.5q-110 0 -221 55q-115 56 -191 190q-39 66 -58 138t-19 150zM201 496q0 -150 93 -252q93 -100 231 -100q100 0 175 51q-15 16 -33 35.5l-36 39t-35.5 38t-31.5 33.5l127 108q15 -17 37 -41.5t38 -40.5q13 -15 20.5 -24t22.5 -25 q19 38 29.5 84t10.5 94v367q0 150 -92 251t-232 101q-139 0 -231 -101q-93 -102 -93 -251v-367z" />
<glyph unicode="R" horiz-adv-x="1127" d="M51 0v1357h393q218 0 372 -121q162 -127 162 -304q0 -148 -113 -266q-50 -50 -115 -84.5t-139 -54.5q35 -63 72 -130t74.5 -134.5t74.5 -134t72 -128.5h-193l-280 503h-213v-503h-167zM218 668h244q148 0 251 79q99 78 99 185q0 112 -102 187q-53 38 -119 57.5t-147 19.5 h-226v-528z" />
<glyph unicode="S" horiz-adv-x="1155" d="M31 398h166q2 -75 25 -119t63 -73q42 -30 101 -46t132 -16q72 0 134 17.5t107 47.5q43 29 67 68q22 35 22 86v13q0 48 -23 85.5t-66 66.5q-40 30 -275 80q-233 50 -311 104q-71 50 -108 126q-16 37 -24.5 75.5t-8.5 76.5q0 40 10 78.5t29 77.5q20 40 46.5 71t60.5 56 q66 50 152 78.5t187 28.5h7q104 0 192 -28q90 -28 157 -80q32 -27 58 -59.5t46 -74.5v1q37 -80 37 -178h-166q0 27 -5 54.5t-14.5 53t-24.5 47t-35 36.5q-42 30 -105 48q-57 16 -129 15h-17h-1q-77 0 -135.5 -15t-101.5 -43q-39 -26 -61 -72t-22 -94q0 -46 23.5 -88 t58.5 -69q10 -6 34.5 -15t59.5 -19t80 -21t97 -22q114 -24 195.5 -50t119.5 -51q76 -50 114 -124q35 -73 35 -156v-9q0 -91 -40 -157q-42 -70 -112 -121q-69 -51 -157.5 -80.5t-185.5 -29.5q-98 0 -185 28.5t-153 79.5q-68 52 -107.5 126.5t-42.5 184.5z" />
<glyph unicode="T" horiz-adv-x="1090" d="M1 1192v165h967v-165h-406v-1192h-165v1192h-396z" />
<glyph unicode="U" horiz-adv-x="1180" d="M44 512v845h165v-863q0 -75 24 -137.5t70 -113.5q45 -46 103 -72.5t122 -26.5q133 0 226 100q94 100 94 254v859h166v-845q0 -219 -140 -374q-144 -159 -346 -159q-152 0 -276 94q-117 90 -171 234q-20 48 -28.5 99.5t-8.5 105.5z" />
<glyph unicode="V" horiz-adv-x="1111" d="M6 1357h174l314 -1045q79 262 159.5 523.5t159.5 521.5h172l-406 -1357h-167z" />
<glyph unicode="W" horiz-adv-x="1489" d="M28 1357h171l170 -952q55 238 110.5 477t110.5 475h155l228 -953l166 953h173l-243 -1357h-168l-232 978q-28 -118 -58 -242t-60 -248.5t-59.5 -247.5t-57.5 -240h-163z" />
<glyph unicode="X" horiz-adv-x="1159" d="M21 0l400 685q-47 80 -96 165t-99 171t-99.5 171t-96.5 165h191l296 -510q75 128 150.5 256t149.5 254h192l-391 -672q47 -82 96.5 -168.5t100 -174t100.5 -174t97 -168.5h-191l-304 518q-75 -128 -150.5 -259.5t-148.5 -258.5h-197z" />
<glyph unicode="Y" horiz-adv-x="1078" d="M-9 1357h193l296 -510q74 128 149 256t149 254h194l-407 -680v-677h-168v677q-48 81 -99.5 167t-103 173t-103 173t-100.5 167z" />
<glyph unicode="Z" horiz-adv-x="1061" d="M28 0v177l678 1020h-677v160h892v-166l-690 -1026h692v-165h-895z" />
<glyph unicode="[" horiz-adv-x="486" d="M51 -306v1584l74 79h249v-168h-156v-1401h156v-168h-249z" />
<glyph unicode="\" horiz-adv-x="635" d="M-13 1357h174l404 -1357h-178z" />
<glyph unicode="]" horiz-adv-x="511" d="M66 -212h154v1401h-154v168h244l79 -73v-1591l-79 -73h-244v168z" />
<glyph unicode="^" horiz-adv-x="1058" d="M21 853l359 504h182l361 -504h-206l-245 343q-60 -85 -122 -172t-122 -171h-207z" />
<glyph unicode="_" horiz-adv-x="1102" d="M51 0v165h881v-165h-881z" />
<glyph unicode="`" horiz-adv-x="692" d="M33 1357h299l213 -225l-82 -80z" />
<glyph unicode="a" horiz-adv-x="1096" d="M75 266q0 38 13.5 77.5t38 76t59 68t76.5 53.5q24 12 55.5 20t67 13t74 8t75.5 6q42 2 82.5 4.5t72 8.5t51 16t19.5 26v62q0 27 -23 49.5t-57.5 39t-76 26t-77.5 9.5q-44 0 -87.5 -6.5t-81.5 -25.5t-69 -52.5t-50 -88.5l-158 34q15 81 56 138t98.5 93t129 53t148.5 17 q45 0 93 -8t94 -24t87 -38.5t72 -51.5t49 -63.5t18 -74.5v-563q1 -12 13 -18t35 -8q-1 -16 -2 -37.5t-2 -44.5t-1.5 -44.5t-0.5 -36.5q-59 3 -103 22.5t-69 53.5q-63 -41 -142 -59q-75 -18 -153 -17h-9q-78 0 -152.5 11.5t-133 43t-94 87.5t-35.5 145zM248 264 q0 -42 22.5 -66t57.5 -36t76.5 -15t79.5 -3q59 0 102.5 9t73.5 21t48 24.5t26 19.5q25 20 25 46v184q-21 -5 -52 -6t-66 -3t-74 -3.5t-76.5 -5.5t-71.5 -10.5t-58 -16.5q-24 -11 -44.5 -27t-35.5 -35t-24 -39t-9 -38z" />
<glyph unicode="b" horiz-adv-x="1168" d="M51 0v1357h167v-515q60 76 137.5 112.5t176.5 36.5q201 0 356 -153t155 -354q0 -101 -38.5 -188.5t-115.5 -165.5q-152 -151 -352 -151q-194 0 -319 149v-128h-167zM223 484q0 -67 23 -127t68 -112q46 -47 102 -74t121 -27q133 0 237 104q104 106 104 236q0 134 -108 238 q-107 104 -238 104q-132 0 -221 -103q-88 -103 -88 -239z" />
<glyph unicode="c" horiz-adv-x="1048" d="M30 484q0 103 35.5 190.5t105.5 164.5q143 152 344 152q203 0 345 -154q26 -29 51.5 -66t49.5 -85h-191q-12 18 -14.5 20.5t-6.5 7.5q-6 6 -8 9q-96 103 -226 103q-135 0 -227 -103q-47 -52 -69.5 -112t-22.5 -127q0 -137 93 -239v1q93 -102 226 -102q134 0 226 102 q2 2 5 5.5t5 5.5t4 4.5t9 10.5h193q-25 -44 -50 -80t-50 -62q-144 -151 -342 -151q-203 0 -344 153t-141 352z" />
<glyph unicode="d" horiz-adv-x="1204" d="M40 484q0 201 154 354t356 153q100 0 177.5 -36.5t137.5 -112.5v515h167v-1357h-167v128q-62 -74 -142.5 -111.5t-177.5 -37.5q-198 0 -352 151q-153 154 -153 354zM205 484q0 -131 102 -236q104 -104 238 -104q132 0 222 101q93 102 93 239q0 135 -89 239 q-88 103 -221 103q-132 0 -239 -104q-106 -103 -106 -238z" />
<glyph unicode="e" horiz-adv-x="1155" d="M31 484q0 200 146 355q145 152 345 152q204 0 345 -153q142 -154 142 -388h-813q10 -112 101 -207h-1q96 -99 226 -99q97 0 188 59t138 156l166 -28q-63 -157 -200 -254q-135 -98 -292 -98q-204 0 -347 152q-144 155 -144 353zM221 616h595q-17 38 -45 75.5t-64 66.5 q-80 68 -185 68q-100 0 -186 -70q-78 -62 -115 -140z" />
<glyph unicode="f" horiz-adv-x="515" d="M13 805v165h76v76q0 128 90 220q91 91 260 91v-168q-98 0 -141 -43q-42 -41 -42 -100v-76h183v-165h-183v-805h-167v805h-76z" />
<glyph unicode="g" horiz-adv-x="1130" d="M26 484q0 202 135 355q68 77 151.5 114.5t183.5 37.5q185 0 301 -151v130h165v-883q0 -105 -36.5 -191.5t-102.5 -150.5q-68 -63 -151 -95.5t-178 -32.5q-173 0 -297 109q-63 54 -103.5 128t-57.5 168l162 27q30 -132 107 -200q77 -67 190 -67q133 0 216 92q86 90 86 226 v27q-118 -148 -301 -148q-197 0 -334 143q-136 143 -136 362zM192 484q0 -66 22 -127t64 -112q44 -49 98.5 -75t119.5 -26q131 0 212 101v-1q84 105 84 240q0 138 -85 241q-81 101 -211 101t-218 -103q-86 -102 -86 -239z" />
<glyph unicode="h" horiz-adv-x="1081" d="M53 0v1357h165v-515q61 76 138 112.5t172 36.5q194 0 313 -150q116 -149 116 -349v-492h-165v484q0 143 -71 244q-69 98 -193 98q-131 0 -219 -103q-86 -103 -91 -239v-484h-165z" />
<glyph unicode="i" horiz-adv-x="430" d="M26 805v165h289v-970h-165v805h-124zM137 1266q0 19 7.5 36t21 29.5t30.5 20t37 7.5t37.5 -7t30.5 -20t20.5 -30t7.5 -36q0 -40 -28 -67t-68 -27q-20 0 -37 7.5t-30.5 20t-21 29.5t-7.5 37z" />
<glyph unicode="j" horiz-adv-x="493" d="M-9 -219q98 0 141 43q43 42 43 100v879h-121l-1 167h288l-1 -1046q0 -130 -90 -221q-45 -46 -109.5 -68.5t-149.5 -22.5v169zM163 1264q0 19 7.5 36t21 29.5t31 20t37.5 7.5q19 0 36.5 -7t30.5 -20t20.5 -30t7.5 -36q0 -20 -7.5 -37t-20.5 -30t-30.5 -20t-36.5 -7 q-20 0 -37.5 7.5t-31 20t-21 29.5t-7.5 37z" />
<glyph unicode="k" horiz-adv-x="874" d="M51 0v1357h167v-659q100 75 205 154t204 154l109 -126l-324 -249q94 -153 192 -316t191 -315h-197l-322 530l-28 -22t-30 -23v-485h-167z" />
<glyph unicode="l" horiz-adv-x="432" d="M125 0v1357h167v-1357h-167z" />
<glyph unicode="m" horiz-adv-x="1577" d="M53 0v970h165v-68q89 89 225 89q200 0 286 -168q69 168 289 168q190 0 276 -146q83 -140 83 -361v-484h-166v484q0 77 -11 139.5t-34 111.5q-39 91 -148 91q-106 0 -160 -92q-55 -98 -55 -250v-484h-166l-1 484v12q0 70 -11 127q-12 62 -35 111q-46 92 -147 92 q-109 0 -166 -92q-59 -97 -59 -250v-484h-165z" />
<glyph unicode="n" horiz-adv-x="1147" d="M53 0v970h165v-127q57 72 136 110t176 38q219 0 338 -138q118 -136 118 -361v-492h-167v484q0 176 -81 259q-79 83 -208 83q-143 0 -226 -103q-86 -106 -86 -239v-484h-165z" />
<glyph unicode="o" horiz-adv-x="1155" d="M31 484q0 103 35.5 190.5t105.5 164.5q143 152 344 152q203 0 345 -154t142 -353q0 -101 -36.5 -188.5t-108.5 -165.5q-144 -151 -342 -151q-203 0 -344 153t-141 352zM197 484q0 -137 93 -239v1q93 -102 226 -102q134 0 226 102q96 105 96 238q0 134 -96 239 q-96 103 -226 103q-135 0 -227 -103q-47 -52 -69.5 -112t-22.5 -127z" />
<glyph unicode="p" horiz-adv-x="1143" d="M53 -388v1358h165v-128q125 149 318 149q203 0 343 -153q142 -154 142 -354t-143 -354q-142 -151 -342 -151q-193 0 -318 149v-516h-165zM223 484q0 -67 23 -127t68 -112q45 -48 101 -74.5t121 -26.5q66 0 123 27.5t103 75.5q45 52 69 112t24 125q0 135 -94 239 q-94 103 -225 103q-132 0 -223 -103q-90 -104 -90 -239z" />
<glyph unicode="q" horiz-adv-x="1196" d="M54 484q0 201 141 354q139 153 344 153q193 0 318 -149v128h165v-1358h-165v516q-62 -74 -141.5 -111.5t-176.5 -37.5q-200 0 -342 151q-143 153 -143 354zM220 484q0 -130 92 -237q46 -48 103.5 -75.5t123.5 -27.5q65 0 121 26.5t101 74.5q45 52 68 112t23 127 q0 135 -90 239q-91 103 -223 103q-131 0 -225 -103t-94 -239z" />
<glyph unicode="r" horiz-adv-x="887" d="M51 0v970h167v-134q61 64 139.5 99t170.5 35h218v-218q-124 53 -211 53q-133 0 -227 -94q-90 -93 -90 -227v-484h-167z" />
<glyph unicode="s" horiz-adv-x="1033" d="M33 282l163 35q2 -32 15 -56.5t32.5 -43t43 -31t46.5 -19.5q33 -9 72.5 -15.5t77.5 -6.5q52 0 101 12t90 40q47 27 47 75q0 47 -34 69q-42 29 -80 40q-44 14 -90 19q-24 3 -58.5 7t-82.5 9t-84 13t-60 17q-47 18 -83.5 48.5t-67.5 65.5q-34 40 -37 122v11q0 73 25 117 q27 45 68 77q32 23 70.5 41.5t79.5 31.5t83.5 20t83.5 7q52 0 104.5 -8.5t100.5 -24.5q46 -15 86.5 -38t72 -55t53 -75.5t29.5 -99.5l-161 -34q-8 35 -21.5 60t-32 42t-40.5 28t-45 19h1q-37 10 -80 17t-88 7q-52 0 -100.5 -12t-85.5 -41h1q-38 -31 -38 -75q0 -48 30 -72 q17 -13 36 -23t37 -15q21 -7 57 -13t82 -11q49 -5 85.5 -8t60.5 -7q26 -4 50.5 -10t48.5 -16q67 -25 131 -77q65 -53 65 -173q0 -121 -103 -191h1q-67 -52 -148.5 -76t-166.5 -24q-51 0 -102.5 8.5t-99.5 24.5q-47 15 -87.5 38t-72 55t-52.5 75.5t-29 99.5z" />
<glyph unicode="t" horiz-adv-x="642" d="M6 805v165q146 0 146 76v124h165v-200h235v-165h-235v-560q0 -35 21.5 -57.5t56.5 -22.5h157v-165h-157q-103 0 -173 71q-70 73 -70 174v560h-146z" />
<glyph unicode="u" horiz-adv-x="1070" d="M46 463v507h165v-507q0 -66 18 -122.5t53 -104.5q35 -45 83 -68.5t105 -23.5q129 0 194 96q70 102 70 244v486h165v-970h-165v96q-51 -51 -120.5 -84t-143.5 -33q-191 0 -308 130q-116 130 -116 354z" />
<glyph unicode="v" horiz-adv-x="1111" d="M3 970h184l311 -757q76 189 154 379t154 378h181l-395 -970h-193z" />
<glyph unicode="w" horiz-adv-x="1469" d="M31 970h174l239 -678q35 102 70 200.5t71 201.5q-11 31 -23.5 66.5t-25 71.5t-25 71t-24.5 67h176l241 -683q60 173 118.5 341.5t118.5 341.5h175q-166 -476 -250.5 -718t-89.5 -252h-147l-156 444q-38 -111 -78.5 -223t-78.5 -221h-145z" />
<glyph unicode="x" horiz-adv-x="1074" d="M20 0l357 482q-42 58 -87 119.5t-90.5 124.5t-91 124.5t-87.5 119.5h207l252 -345q62 85 126.5 172.5t126.5 172.5h207l-354 -488q42 -57 87 -118t90.5 -123.5t90.5 -123.5t86 -117h-210l-250 342q-62 -85 -125.5 -171t-123.5 -171h-211z" />
<glyph unicode="y" horiz-adv-x="1134" d="M-1 970h190l373 -688q68 171 137 344t137 344h179l-457 -1146q-41 -107 -124 -161q-76 -50 -190 -50h-17v164h7q116 0 152 62q24 60 48.5 120t49.5 122q-118 217 -242.5 444.5t-242.5 444.5z" />
<glyph unicode="z" horiz-adv-x="1030" d="M47 0v191l582 614h-581v165h828v-158l-613 -647h613v-165h-829z" />
<glyph unicode="{" horiz-adv-x="534" d="M50 415v139q102 69 102 141q0 217 9 348t29 181q21 54 66.5 88.5t117.5 49.5l28 -166q-41 -8 -62 -38q-23 -30 -21 -252v-32q0 -202 -18 -277q-9 -35 -24.5 -62.5t-39.5 -50.5q24 -22 39.5 -49.5t24.5 -62.5q18 -75 18 -278v-32q-2 -221 21 -251q21 -30 62 -38l-28 -166 q-72 15 -117.5 49.5t-66.5 88.5q-20 50 -29 181t-9 348q0 72 -102 141z" />
<glyph unicode="|" horiz-adv-x="413" d="M90 -376v1733h168v-1733h-168z" />
<glyph unicode="}" horiz-adv-x="551" d="M74 -229q41 8 62 38q23 30 21 251v32q0 103 4 171.5t14 106.5q18 70 63 113q-45 42 -63 112q-10 38 -14 106t-4 171v32q1 222 -21 252q-21 30 -62 38l28 166q140 -32 183 -138q19 -51 29 -183t10 -346q0 -72 102 -141v-139q-102 -69 -102 -141q0 -214 -10 -346t-29 -183 q-21 -52 -67 -88t-116 -50z" />
<glyph unicode="~" horiz-adv-x="788" d="M18 1010q47 126 102 158q55 34 121 34q70 0 132 -45q53 -39 85 -37q26 1 64 83l155 -58q-72 -197 -223 -197q-85 0 -142 47q-47 39 -72 38q-35 0 -66 -87z" />
<glyph unicode="&#xa1;" horiz-adv-x="409" d="M92 1266q0 36 25.5 61.5t62.5 25.5t63 -25.5t26 -61.5q0 -37 -26 -62.5t-63 -25.5t-62.5 25.5t-25.5 62.5zM98 0v1059h178v-1059h-178z" />
<glyph unicode="&#xa2;" horiz-adv-x="953" d="M13 611q0 131 65 234q32 52 78 93.5t101 70.5q66 34 143 48v142h169v-142q150 -23 258 -123v-224l-34 -8q-70 153 -224 189v-560q150 26 225 187l33 -8v-222q-120 -108 -258 -127v-161h-169v164q-85 14 -151.5 49.5t-120.5 92.5q-115 127 -115 305zM178 611 q0 -112 69 -187q29 -32 68.5 -54.5t84.5 -33.5v550q-47 -13 -86.5 -36t-67.5 -55q-68 -75 -68 -184z" />
<glyph unicode="&#xa3;" horiz-adv-x="1152" d="M69 145q0 62 56 106h-1q55 46 153 46q14 0 17 1t11 -1v43v306h-128v168h128v301q0 110 62 166q53 50 146 50q55 0 136 -25l-53 -160q-32 10 -54 14.5t-33 4.5q-34 0 -34 -50v-301h102v-168h-102v-306q0 -34 -1 -59.5t-5 -45.5q115 -66 190 -66q113 0 198 31q14 5 27 14.5 t27 23.5l128 -111q-66 -76 -187 -106q-90 -21 -193 -21q-58 0 -118 21t-126 66q-57 -87 -145 -87q-92 0 -147 43q-54 42 -54 102zM231 153q0 -8 27 -8q11 0 19 17q-46 0 -46 -9z" />
<glyph unicode="&#xa4;" horiz-adv-x="929" d="M36 348l69 69q-23 42 -36.5 89.5t-13.5 96.5q0 100 51 186l-70 69l120 120l69 -69q42 23 89.5 36t94.5 13q52 0 97 -11t90 -38q17 16 36.5 35.5t32.5 33.5l120 -120l-69 -69q27 -45 38.5 -90t11.5 -96t-11.5 -95.5t-38.5 -90.5l69 -69l-120 -119l-69 69q-85 -50 -187 -50 q-50 0 -96 13t-88 37l-69 -69zM224 603q0 -79 53 -132q54 -54 132 -54q79 0 133 54t54 132q0 83 -52 134q-51 53 -135 53q-78 0 -133 -55q-52 -53 -52 -132z" />
<glyph unicode="&#xa5;" horiz-adv-x="1072" d="M-12 1357h192l296 -510q75 128 150.5 256t149.5 254h192l-406 -680v-110h204v-168h-204v-75h204v-168h-204v-336h-169v336h-228v168h228v75h-228v168h228v110q-48 81 -99 167t-103 173t-103.5 173t-99.5 167z" />
<glyph unicode="&#xa6;" horiz-adv-x="333" d="M59 357h168v-733h-168v733zM59 572v785h168v-785h-168z" />
<glyph unicode="&#xa7;" horiz-adv-x="745" d="M50 149h185q-10 -17 -14 -29t-4 -21q-1 -51 24 -83q31 -36 97 -36q69 0 101 36l-1 -1q24 32 24 90q0 40 -62 87q-67 51 -136.5 103.5t-136.5 103.5q-77 59 -77 189q0 104 63 175q40 45 105 69l-91 70q-37 30 -57 75.5t-20 102.5q0 64 20 115.5t57.5 87.5t91 55t119.5 19 q133 0 213 -79q80 -78 80 -255h-183q4 11 7 21q5 19 7 30q-1 56 -31.5 85.5t-92.5 29.5q-34 0 -58.5 -9t-38.5 -24q-25 -33 -25 -87q0 -17 5 -32t13 -26q9 -11 18.5 -20.5t18.5 -17.5q48 -35 98.5 -72t98.5 -72q102 -76 137 -160q20 -46 20 -104q0 -129 -130 -207h1 q-9 -6 -21 -11.5t-22 -9.5q24 -19 50.5 -38.5t50.5 -37.5q36 -30 56.5 -69.5t20.5 -86.5q0 -132 -81 -213q-82 -80 -212 -80q-66 0 -119.5 21t-91 63t-57.5 105.5t-20 147.5zM216 583q12 -98 122 -98q63 0 95 30v-1q21 20 29 69q-8 51 -38.5 78t-85.5 27q-62 0 -92 -30 q-23 -26 -30 -75z" />
<glyph unicode="&#xa8;" horiz-adv-x="727" d="M37 1046q0 24 9 46t24.5 38.5t36.5 26t45 9.5q49 0 81 -38q34 -37 34 -82q0 -24 -9.5 -45t-25 -36.5t-36.5 -24.5t-44 -9q-24 0 -45 9t-36.5 24.5t-24.5 36.5t-9 45zM386 1046q0 24 9 46t25 38.5t37.5 26t45.5 9.5q49 0 83 -38q33 -38 33 -82q0 -24 -9 -45t-25 -36.5 t-37 -24.5t-45 -9t-45.5 9t-37.5 24.5t-25 36.5t-9 45z" />
<glyph unicode="&#xa9;" horiz-adv-x="1515" d="M25 678q0 280 200 476q199 196 476 196q284 0 480 -196q198 -200 198 -476q0 -282 -199 -481q-200 -197 -479 -197q-283 0 -479 199q-197 200 -197 479zM182 678q0 -215 153 -368q152 -151 366 -151q219 0 369 151q151 154 151 368q0 212 -153 364q-152 153 -367 153 q-135 0 -257 -70q-60 -34 -108 -82t-83 -105q-71 -122 -71 -260zM246 673q0 198 135 329q136 130 335 130q189 0 330 -128v-224l-33 -8q-43 91 -124 144q-80 53 -173 53q-133 0 -220 -84q-84 -83 -84 -212q0 -132 84 -214q88 -82 220 -82q97 0 175 51q81 52 121 145l34 -7 v-224q-143 -128 -330 -128q-200 0 -334 128q-136 131 -136 331z" />
<glyph unicode="&#xab;" horiz-adv-x="1011" d="M21 522l471 490v-228l-197 -266q49 -66 99 -132t98 -130v-230zM423 522l471 490v-228l-197 -266q49 -66 99 -132t98 -130v-230z" />
<glyph unicode="&#xac;" horiz-adv-x="1054" d="M24 676v169h867l-2 -474h-167v305h-698z" />
<glyph unicode="&#xad;" horiz-adv-x="739" d="M51 516v165h547v-165h-547z" />
<glyph unicode="&#xae;" horiz-adv-x="1515" d="M25 678q0 280 200 476q199 196 476 196q284 0 480 -196q198 -200 198 -476q0 -282 -199 -481q-200 -197 -479 -197q-283 0 -479 199q-197 200 -197 479zM182 678q0 -215 153 -368q152 -151 366 -151q174 0 305 96h-145l-135 195h-107v-195h-170v873l-5 -3 q-60 -34 -108 -82t-83 -105q-71 -122 -71 -260zM457 1132l266 3q136 1 236 -105q98 -104 98 -239q0 -96 -42 -169.5t-119 -122.5q17 -24 36 -51t38.5 -55t38.5 -55t36 -52q7 6 12.5 12t12.5 12q151 154 151 368q0 212 -153 364q-152 153 -367 153q-65 0 -125.5 -16 t-118.5 -47zM619 620h116q31 0 57.5 13t49.5 37q47 53 47 121q0 69 -47 119q-23 23 -54 38t-64 21q-31 -1 -52.5 -2t-52.5 -2v-345z" />
<glyph unicode="&#xaf;" horiz-adv-x="877" d="M-19 1192v165h785v-165h-785z" />
<glyph unicode="&#xb0;" horiz-adv-x="678" d="M25 1084q0 114 82 193q81 80 196 80q117 0 198 -80v1q83 -78 83 -194t-83 -197q-83 -78 -198 -78q-114 0 -197 80q-81 83 -81 195zM193 1084q0 -23 7.5 -42.5t24.5 -34.5q30 -30 78 -30q23 0 43 7t37 24q34 30 34 76q0 43 -34 74t-80 31q-43 0 -78 -32v1q-32 -31 -32 -74 z" />
<glyph unicode="&#xb1;" horiz-adv-x="828" d="M13 374v168h281v274h-273v168h273v288h169v-288h269v-168h-269v-274h272v-168h-722z" />
<glyph unicode="&#xb4;" horiz-adv-x="660" d="M99 1132l213 225h299l-430 -305z" />
<glyph unicode="&#xb5;" horiz-adv-x="1030" d="M20 -280q26 45 48.5 112.5t39.5 156.5q17 91 31.5 280t25.5 475h165q1 -115 15.5 -217.5t43.5 -190.5q56 -167 118 -167t118 167q57 177 59 408h164q10 -263 23.5 -447.5t31.5 -296.5h-169q-4 29 -7.5 64.5t-5.5 72.5q-87 -137 -214 -137q-130 0 -214 137 q-15 -204 -49 -324v1q-20 -73 -46 -123.5t-58 -81.5z" />
<glyph unicode="&#xb6;" horiz-adv-x="910" d="M17 640q0 134 72 227q16 21 36 39.5t42 32.5q26 14 50.5 22.5t48.5 8.5h540v-165h-138v-805h-166v805h-81v-805h-166v311q-95 11 -165 100q-73 94 -73 229z" />
<glyph unicode="&#xb7;" horiz-adv-x="358" d="M31 554q0 27 10 50t27 40.5t40.5 27t49.5 9.5q27 0 50 -10t39.5 -27.5t26 -40.5t9.5 -49t-10 -49t-27 -40t-39.5 -27t-48.5 -10t-49.5 10t-40.5 27t-27 40t-10 49z" />
<glyph unicode="&#xb8;" horiz-adv-x="492" d="M14 39h182q9 -14 25.5 -27.5t40.5 -27.5l-1 1q14 -7 34 -21t46 -36q42 -46 42 -120q0 -104 -127 -131q-30 -6 -70 -6l-82 136q41 26 107 38l-22.5 22.5t-36.5 34.5q-21 19 -55 52.5t-83 84.5zM223 -153h4h-1h-3z" />
<glyph unicode="&#xbb;" horiz-adv-x="1015" d="M33 25v231l198 262q-49 66 -99.5 133.5t-98.5 132.5v230l449 -492zM436 26v230l198 262q-49 66 -99.5 133.5t-98.5 132.5v228l470 -490z" />
<glyph unicode="&#xbf;" horiz-adv-x="814" d="M17 385h168q0 -78 13 -110q25 -51 68.5 -79t103.5 -28q85 0 131 43q51 48 51 155q0 49 -44 81l2 -1q-35 20 -62.5 35t-47.5 25q-44 26 -75 56t-52 65q-29 48 -42.5 109.5t-14.5 139.5l-1 189h166l1 -178q2 -82 13 -124q22 -81 68 -103h-1l52 -24t52 -23q66 -34 99 -74 q60 -72 60 -196q0 -142 -105 -242q-106 -101 -250 -101q-146 0 -249 100q-104 101 -104 285zM212 1270q0 36 25.5 61.5t62.5 25.5q36 0 62 -25.5t26 -61.5q0 -37 -26 -62.5t-62 -25.5q-37 0 -62.5 25.5t-25.5 62.5z" />
<glyph unicode="&#xc0;" horiz-adv-x="1180" d="M29 0l407 1357h185l406 -1357h-178l-151 503h-345q-37 -124 -75.5 -252t-76.5 -251h-172zM105 1722h299l213 -225l-82 -80zM403 670h248q-15 52 -30 102l-30 100t-31 101.5t-32 107.5q-17 -54 -32 -104.5t-30 -100t-30.5 -100t-32.5 -106.5z" />
<glyph unicode="&#xc1;" horiz-adv-x="1166" d="M29 0l407 1357h185l406 -1357h-178l-151 503h-345q-37 -124 -75.5 -252t-76.5 -251h-172zM403 670h248q-15 52 -30 102l-30 100t-31 101.5t-32 107.5q-17 -54 -32 -104.5t-30 -100t-30.5 -100t-32.5 -106.5zM476 1502l213 225h299l-430 -305z" />
<glyph unicode="&#xc2;" horiz-adv-x="1166" d="M29 0l407 1357h185l406 -1357h-178l-151 503h-345q-37 -124 -75.5 -252t-76.5 -251h-172zM226 1415l216 302h182l217 -302h-207l-101 139q-24 -34 -50.5 -70.5t-49.5 -68.5h-207zM403 670h248q-15 52 -30 102l-30 100t-31 101.5t-32 107.5q-17 -54 -32 -104.5t-30 -100 t-30.5 -100t-32.5 -106.5z" />
<glyph unicode="&#xc3;" horiz-adv-x="1166" d="M29 0l407 1357h185l406 -1357h-178l-151 503h-345q-37 -124 -75.5 -252t-76.5 -251h-172zM202 1492q42 126 113 167q23 13 50.5 20t56.5 7q63 0 134 -44q61 -38 84 -38q28 0 65 84l156 -57q-72 -198 -226 -198q-48 0 -96 23q-5 2 -25 14.5t-57 35.5l3 -1q-24 12 -38 12 q-30 0 -64 -86zM403 670h248q-15 52 -30 102l-30 100t-31 101.5t-32 107.5q-17 -54 -32 -104.5t-30 -100t-30.5 -100t-32.5 -106.5z" />
<glyph unicode="&#xc4;" horiz-adv-x="1166" d="M29 0l407 1357h185l406 -1357h-178l-151 503h-345q-37 -124 -75.5 -252t-76.5 -251h-172zM235 1546q0 24 9 46t24.5 38.5t36.5 26t45 9.5q49 0 81 -38q34 -37 34 -82q0 -24 -9.5 -45t-25 -36.5t-36.5 -24.5t-44 -9q-24 0 -45 9t-36.5 24.5t-24.5 36.5t-9 45zM403 670h248 q-15 52 -30 102l-30 100t-31 101.5t-32 107.5q-17 -54 -32 -104.5t-30 -100t-30.5 -100t-32.5 -106.5zM584 1546q0 24 9 46t25 38.5t37.5 26t45.5 9.5q49 0 83 -38q33 -38 33 -82q0 -24 -9 -45t-25 -36.5t-37 -24.5t-45 -9t-45.5 9t-37.5 24.5t-25 36.5t-9 45z" />
<glyph unicode="&#xc5;" horiz-adv-x="1166" d="M29 0l407 1357h185l406 -1357h-178l-151 503h-345q-37 -124 -75.5 -252t-76.5 -251h-172zM358 1471q0 70 52 122q52 51 122 51q73 0 126 -50q52 -51 52 -123q0 -74 -53 -124q-51 -48 -125 -48q-69 0 -122 50q-52 52 -52 122zM403 670h248q-15 52 -30 102l-30 100 t-31 101.5t-32 107.5q-17 -54 -32 -104.5t-30 -100t-30.5 -100t-32.5 -106.5zM475 1471q0 -24 16.5 -40t40.5 -16q25 0 43.5 16t18.5 40q0 23 -18.5 39.5t-43.5 16.5q-23 0 -40 -16.5t-17 -39.5z" />
<glyph unicode="&#xc6;" horiz-adv-x="1769" d="M-12 0l806 1357h833v-159h-642v-380h515v-169h-515v-488h642v-161h-812v433h-371q-65 -107 -130.5 -216.5t-129.5 -216.5h-196zM543 600h272v462q-35 -60 -68.5 -116.5t-66.5 -112.5t-67 -113.5t-70 -119.5z" />
<glyph unicode="&#xc7;" horiz-adv-x="1120" d="M36 512v335q0 78 19 150t58 138q76 134 191 190q111 55 221 55q108 0 221 -55q114 -56 192 -190q26 -44 43 -95t28 -110h-165q-11 57 -33 103t-54 82v-1q-92 101 -232 101q-139 0 -231 -101q-93 -102 -93 -251v-367q0 -150 93 -252q93 -100 231 -100q140 0 232 101v-1 q32 36 54 82t33 103h165q-11 -59 -28 -110t-43 -95q-78 -134 -192 -190q-113 -55 -221 -55q-110 0 -221 55q-115 56 -191 190q-39 66 -58 138t-19 150zM304 73h182q9 -14 25.5 -27.5t40.5 -27.5l-1 1q14 -7 34 -21t46 -36q42 -46 42 -120q0 -104 -127 -131q-30 -6 -70 -6 l-82 136q41 26 107 38l-22.5 22.5t-36.5 34.5q-21 19 -55 52.5t-83 84.5zM513 -119h4h-1h-3z" />
<glyph unicode="&#xc8;" horiz-adv-x="960" d="M28 1720h299l213 -225l-82 -80zM53 0v1357h808v-165h-643v-378h516v-165h-516v-484h643v-165h-808z" />
<glyph unicode="&#xc9;" horiz-adv-x="960" d="M53 0v1357h808v-165h-643v-378h516v-165h-516v-484h643v-165h-808zM388 1495l213 225h299l-430 -305z" />
<glyph unicode="&#xca;" horiz-adv-x="960" d="M53 0v1357h808v-165h-643v-378h516v-165h-516v-484h643v-165h-808zM137 1427l216 302h182l217 -302h-207l-101 139q-24 -34 -50.5 -70.5t-49.5 -68.5h-207z" />
<glyph unicode="&#xcb;" horiz-adv-x="960" d="M53 0v1357h808v-165h-643v-378h516v-165h-516v-484h643v-165h-808zM131 1535q0 24 9 46t24.5 38.5t36.5 26t45 9.5q49 0 81 -38q34 -37 34 -82q0 -24 -9.5 -45t-25 -36.5t-36.5 -24.5t-44 -9q-24 0 -45 9t-36.5 24.5t-24.5 36.5t-9 45zM480 1535q0 24 9 46t25 38.5 t37.5 26t45.5 9.5q49 0 83 -38q33 -38 33 -82q0 -24 -9 -45t-25 -36.5t-37 -24.5t-45 -9t-45.5 9t-37.5 24.5t-25 36.5t-9 45z" />
<glyph unicode="&#xcc;" horiz-adv-x="628" d="M-62 1723h299l213 -225l-82 -80zM28 0v165h167v1028h-167v164h505v-164h-171v-1028h171v-165h-505z" />
<glyph unicode="&#xcd;" horiz-adv-x="628" d="M28 0v165h167v1028h-167v164h505v-164h-171v-1028h171v-165h-505zM67 1496l213 225h299l-430 -305z" />
<glyph unicode="&#xce;" horiz-adv-x="628" d="M-29 1421l216 302h182l217 -302h-207l-101 139q-24 -34 -50.5 -70.5t-49.5 -68.5h-207zM28 0v165h167v1028h-167v164h505v-164h-171v-1028h171v-165h-505z" />
<glyph unicode="&#xcf;" horiz-adv-x="628" d="M-22 1540q0 24 9 46t24.5 38.5t36.5 26t45 9.5q49 0 81 -38q34 -37 34 -82q0 -24 -9.5 -45t-25 -36.5t-36.5 -24.5t-44 -9q-24 0 -45 9t-36.5 24.5t-24.5 36.5t-9 45zM28 0v165h167v1028h-167v164h505v-164h-171v-1028h171v-165h-505zM327 1540q0 24 9 46t25 38.5 t37.5 26t45.5 9.5q49 0 83 -38q33 -38 33 -82q0 -24 -9 -45t-25 -36.5t-37 -24.5t-45 -9t-45.5 9t-37.5 24.5t-25 36.5t-9 45z" />
<glyph unicode="&#xd0;" horiz-adv-x="1211" d="M-96 609v169h210v579h436q152 0 276 -94q115 -89 172 -235q36 -96 36 -204v-291q0 -218 -138 -373q-142 -160 -346 -160h-436v609h-210zM281 161h269q134 0 230 107q98 107 98 265v291q0 159 -98 267q-96 107 -230 107h-269v-420h226v-169h-226v-448z" />
<glyph unicode="&#xd1;" horiz-adv-x="1182" d="M51 0v1357h181l619 -1048v1048h168v-1357h-180l-621 1054v-1054h-167zM223 1482q42 126 113 167q23 13 50.5 20t56.5 7q63 0 134 -44q61 -38 84 -38q28 0 65 84l156 -57q-72 -198 -226 -198q-48 0 -96 23q-5 2 -25 14.5t-57 35.5l3 -1q-24 12 -38 12q-30 0 -64 -86z" />
<glyph unicode="&#xd2;" horiz-adv-x="1148" d="M36 512v335q0 78 19 150t58 138q76 134 191 190q111 55 221 55q108 0 221 -55q114 -56 192 -190q77 -133 77 -288v-335q0 -155 -77 -288q-78 -134 -192 -190q-113 -55 -221 -55q-110 0 -221 55q-115 56 -191 190q-39 66 -58 138t-19 150zM201 496q0 -150 93 -252 q93 -100 231 -100q139 0 232 100q92 101 92 252v367q0 150 -92 251t-232 101q-139 0 -231 -101q-93 -102 -93 -251v-367zM266 1720h299l213 -225l-82 -80z" />
<glyph unicode="&#xd3;" horiz-adv-x="1148" d="M36 512v335q0 78 19 150t58 138q76 134 191 190q111 55 221 55q108 0 221 -55q114 -56 192 -190q77 -133 77 -288v-335q0 -155 -77 -288q-78 -134 -192 -190q-113 -55 -221 -55q-110 0 -221 55q-115 56 -191 190q-39 66 -58 138t-19 150zM201 496q0 -150 93 -252 q93 -100 231 -100q139 0 232 100q92 101 92 252v367q0 150 -92 251t-232 101q-139 0 -231 -101q-93 -102 -93 -251v-367zM407 1489l213 225h299l-430 -305z" />
<glyph unicode="&#xd4;" horiz-adv-x="1148" d="M36 512v335q0 78 19 150t58 138q76 134 191 190q111 55 221 55q108 0 221 -55q114 -56 192 -190q77 -133 77 -288v-335q0 -155 -77 -288q-78 -134 -192 -190q-113 -55 -221 -55q-110 0 -221 55q-115 56 -191 190q-39 66 -58 138t-19 150zM201 496q0 -150 93 -252 q93 -100 231 -100q139 0 232 100q92 101 92 252v367q0 150 -92 251t-232 101q-139 0 -231 -101q-93 -102 -93 -251v-367zM227 1427l216 302h182l217 -302h-207l-101 139q-24 -34 -50.5 -70.5t-49.5 -68.5h-207z" />
<glyph unicode="&#xd5;" horiz-adv-x="1148" d="M36 512v335q0 78 19 150t58 138q76 134 191 190q111 55 221 55q108 0 221 -55q114 -56 192 -190q77 -133 77 -288v-335q0 -155 -77 -288q-78 -134 -192 -190q-113 -55 -221 -55q-110 0 -221 55q-115 56 -191 190q-39 66 -58 138t-19 150zM187 1481q42 126 113 167 q23 13 50.5 20t56.5 7q63 0 134 -44q61 -38 84 -38q28 0 65 84l156 -57q-72 -198 -226 -198q-48 0 -96 23q-5 2 -25 14.5t-57 35.5l3 -1q-24 12 -38 12q-30 0 -64 -86zM201 496q0 -150 93 -252q93 -100 231 -100q139 0 232 100q92 101 92 252v367q0 150 -92 251t-232 101 q-139 0 -231 -101q-93 -102 -93 -251v-367z" />
<glyph unicode="&#xd6;" horiz-adv-x="1148" d="M36 512v335q0 78 19 150t58 138q76 134 191 190q111 55 221 55q108 0 221 -55q114 -56 192 -190q77 -133 77 -288v-335q0 -155 -77 -288q-78 -134 -192 -190q-113 -55 -221 -55q-110 0 -221 55q-115 56 -191 190q-39 66 -58 138t-19 150zM201 496q0 -150 93 -252 q93 -100 231 -100q139 0 232 100q92 101 92 252v367q0 150 -92 251t-232 101q-139 0 -231 -101q-93 -102 -93 -251v-367zM230 1541q0 24 9 46t24.5 38.5t36.5 26t45 9.5q49 0 81 -38q34 -37 34 -82q0 -24 -9.5 -45t-25 -36.5t-36.5 -24.5t-44 -9q-24 0 -45 9t-36.5 24.5 t-24.5 36.5t-9 45zM579 1541q0 24 9 46t25 38.5t37.5 26t45.5 9.5q49 0 83 -38q33 -38 33 -82q0 -24 -9 -45t-25 -36.5t-37 -24.5t-45 -9t-45.5 9t-37.5 24.5t-25 36.5t-9 45z" />
<glyph unicode="&#xd7;" horiz-adv-x="1054" d="M158 388l200 201q-23 22 -47.5 47t-50 50.5l-50 50l-46.5 46.5l117 116l194 -194l206 207l117 -118l-206 -206q48 -48 97 -96.5t95 -94.5l-117 -117l-191 192l-101 -101t-100 -101z" />
<glyph unicode="&#xd8;" horiz-adv-x="1109" d="M-9 533v291q0 154 77 287q79 135 214 201q91 45 191 45h7q53 0 123 -19q48 -15 94 -39q7 15 15.5 30.5t14.5 27.5h185l-80 -170q63 -76 96 -167.5t33 -195.5v-291q0 -215 -137 -372q-143 -161 -344 -161h-7q-104 0 -203 52q-6 -14 -13 -27t-13 -25h-187l75 156 q-141 155 -141 377zM150 533q0 -126 61 -221q105 213 206.5 420.5t206.5 421.5q-38 23 -72 33.5t-72 10.5h-7q-132 0 -226 -108q-97 -109 -97 -266v-291zM339 194q61 -33 134 -33h7q129 0 227 108q99 108 99 264v291q0 102 -54 200z" />
<glyph unicode="&#xd9;" horiz-adv-x="1166" d="M44 512v845h165v-863q0 -75 24 -137.5t70 -113.5q45 -46 103 -72.5t122 -26.5q133 0 226 100q94 100 94 254v859h166v-845q0 -219 -140 -374q-144 -159 -346 -159q-152 0 -276 94q-117 90 -171 234q-20 48 -28.5 99.5t-8.5 105.5zM256 1621h299l213 -225l-82 -80z" />
<glyph unicode="&#xda;" horiz-adv-x="1166" d="M44 512v845h165v-863q0 -75 24 -137.5t70 -113.5q45 -46 103 -72.5t122 -26.5q133 0 226 100q94 100 94 254v859h166v-845q0 -219 -140 -374q-144 -159 -346 -159q-152 0 -276 94q-117 90 -171 234q-20 48 -28.5 99.5t-8.5 105.5zM277 1499l213 225h299l-430 -305z" />
<glyph unicode="&#xdb;" horiz-adv-x="1166" d="M44 512v845h165v-863q0 -75 24 -137.5t70 -113.5q45 -46 103 -72.5t122 -26.5q133 0 226 100q94 100 94 254v859h166v-845q0 -219 -140 -374q-144 -159 -346 -159q-152 0 -276 94q-117 90 -171 234q-20 48 -28.5 99.5t-8.5 105.5zM221 1421l216 302h182l217 -302h-207 l-101 139q-24 -34 -50.5 -70.5t-49.5 -68.5h-207z" />
<glyph unicode="&#xdc;" horiz-adv-x="1166" d="M44 512v845h165v-863q0 -75 24 -137.5t70 -113.5q45 -46 103 -72.5t122 -26.5q133 0 226 100q94 100 94 254v859h166v-845q0 -219 -140 -374q-144 -159 -346 -159q-152 0 -276 94q-117 90 -171 234q-20 48 -28.5 99.5t-8.5 105.5zM230 1537q0 24 9 46t24.5 38.5t36.5 26 t45 9.5q49 0 81 -38q34 -37 34 -82q0 -24 -9.5 -45t-25 -36.5t-36.5 -24.5t-44 -9q-24 0 -45 9t-36.5 24.5t-24.5 36.5t-9 45zM579 1537q0 24 9 46t25 38.5t37.5 26t45.5 9.5q49 0 83 -38q33 -38 33 -82q0 -24 -9 -45t-25 -36.5t-37 -24.5t-45 -9t-45.5 9t-37.5 24.5 t-25 36.5t-9 45z" />
<glyph unicode="&#xdd;" horiz-adv-x="1064" d="M-9 1357h193l296 -510q74 128 149 256t149 254h194l-407 -680v-677h-168v677q-48 81 -99.5 167t-103 173t-103 173t-100.5 167zM236 1492l213 225h299l-430 -305z" />
<glyph unicode="&#xde;" horiz-adv-x="1264" d="M39 1379v176h395v-176h-112v-415q61 65 141 99.5t176 34.5q199 0 342 -142q141 -138 144 -335q-2 -211 -143 -351q-145 -142 -342 -142q-96 0 -176 35t-141 100v-415h112v-176h-395v176h116q0 194 -0.5 386.5t-0.5 386.5v758h-116zM332 607q0 -134 89 -228 q91 -91 223 -91q135 0 228 93q46 48 69 104t23 122q0 134 -94 227q-95 93 -226 93q-134 0 -224 -93q-88 -94 -88 -227z" />
<glyph unicode="&#xdf;" horiz-adv-x="1188" d="M12 0v165h108v884q0 128 90 218q92 89 220 89h125q94 0 176.5 -30t144 -82.5t97 -123.5t35.5 -153q0 -135 -140 -243q199 -108 199 -349q0 -374 -452 -376h-219v165h219q56 1 105.5 15.5t96.5 43.5h-1q90 57 90 174q0 93 -86 154q-89 63 -341 63v169q231 0 295 59 q65 56 65 125q0 45 -22.5 86t-60.5 71.5t-88 48.5t-106 18l-132 -1q-59 -2 -102 -37q-42 -35 -43 -104q0 -227 -0.5 -451.5t-0.5 -451.5l-1 -147z" />
<glyph unicode="&#xe0;" d="M100 266q0 38 13.5 77.5t38 76t59 68t76.5 53.5q24 12 55.5 20t67 13t74 8t75.5 5q42 2 82.5 5t72 9t51 16t19.5 26v62q0 27 -23 49.5t-57.5 39t-76 26t-77.5 9.5q-44 0 -87.5 -6.5t-81.5 -25.5t-69 -52.5t-50 -88.5l-158 34q15 81 56 138t98.5 93t129 53t148.5 17 q45 0 93 -8t94 -24t87 -38.5t72 -51.5t49 -63.5t18 -74.5v-563q1 -12 13 -18t35 -8q-1 -16 -2 -37.5t-2 -44.5t-1.5 -44.5t-0.5 -36.5q-59 3 -103 22.5t-69 53.5q-63 -40 -142 -58.5t-162 -17.5q-78 0 -152.5 11.5t-133 43t-94 87.5t-35.5 145zM122 1357h299l213 -225 l-82 -80zM273 264q0 -42 22.5 -66t57.5 -36t76.5 -15t79.5 -3q59 0 102.5 9t73.5 21t48 24.5t26 19.5q25 20 25 46v184q-21 -5 -52 -6t-66 -3t-74 -3.5t-76.5 -5.5t-71.5 -10.5t-58 -16.5q-24 -11 -44.5 -27t-35.5 -35t-24 -39t-9 -38z" />
<glyph unicode="&#xe1;" d="M100 266q0 38 13.5 77.5t38 76t59 68t76.5 53.5q24 12 55.5 20t67 13t74 8t75.5 5q42 2 82.5 5t72 9t51 16t19.5 26v62q0 27 -23 49.5t-57.5 39t-76 26t-77.5 9.5q-44 0 -87.5 -6.5t-81.5 -25.5t-69 -52.5t-50 -88.5l-158 34q15 81 56 138t98.5 93t129 53t148.5 17 q45 0 93 -8t94 -24t87 -38.5t72 -51.5t49 -63.5t18 -74.5v-563q1 -12 13 -18t35 -8q-1 -16 -2 -37.5t-2 -44.5t-1.5 -44.5t-0.5 -36.5q-59 3 -103 22.5t-69 53.5q-63 -40 -142 -58.5t-162 -17.5q-78 0 -152.5 11.5t-133 43t-94 87.5t-35.5 145zM273 264q0 -42 22.5 -66 t57.5 -36t76.5 -15t79.5 -3q59 0 102.5 9t73.5 21t48 24.5t26 19.5q25 20 25 46v184q-21 -5 -52 -6t-66 -3t-74 -3.5t-76.5 -5.5t-71.5 -10.5t-58 -16.5q-24 -11 -44.5 -27t-35.5 -35t-24 -39t-9 -38zM427 1132l213 225h299l-430 -305z" />
<glyph unicode="&#xe2;" d="M100 266q0 38 13.5 77.5t38 76t59 68t76.5 53.5q24 12 55.5 20t67 13t74 8t75.5 5q42 2 82.5 5t72 9t51 16t19.5 26v62q0 27 -23 49.5t-57.5 39t-76 26t-77.5 9.5q-44 0 -87.5 -6.5t-81.5 -25.5t-69 -52.5t-50 -88.5l-158 34q15 81 56 138t98.5 93t129 53t148.5 17 q45 0 93 -8t94 -24t87 -38.5t72 -51.5t49 -63.5t18 -74.5v-563q1 -12 13 -18t35 -8q-1 -16 -2 -37.5t-2 -44.5t-1.5 -44.5t-0.5 -36.5q-59 3 -103 22.5t-69 53.5q-63 -40 -142 -58.5t-162 -17.5q-78 0 -152.5 11.5t-133 43t-94 87.5t-35.5 145zM203 1054l216 302h182 l217 -302h-207l-101 139q-24 -34 -50.5 -70.5t-49.5 -68.5h-207zM273 264q0 -42 22.5 -66t57.5 -36t76.5 -15t79.5 -3q59 0 102.5 9t73.5 21t48 24.5t26 19.5q25 20 25 46v184q-21 -5 -52 -6t-66 -3t-74 -3.5t-76.5 -5.5t-71.5 -10.5t-58 -16.5q-24 -11 -44.5 -27t-35.5 -35 t-24 -39t-9 -38z" />
<glyph unicode="&#xe3;" d="M100 266q0 38 13.5 77.5t38 76t59 68t76.5 53.5q24 12 55.5 20t67 13t74 8t75.5 5q42 2 82.5 5t72 9t51 16t19.5 26v62q0 27 -23 49.5t-57.5 39t-76 26t-77.5 9.5q-44 0 -87.5 -6.5t-81.5 -25.5t-69 -52.5t-50 -88.5l-158 34q15 81 56 138t98.5 93t129 53t148.5 17 q45 0 93 -8t94 -24t87 -38.5t72 -51.5t49 -63.5t18 -74.5v-563q1 -12 13 -18t35 -8q-1 -16 -2 -37.5t-2 -44.5t-1.5 -44.5t-0.5 -36.5q-59 3 -103 22.5t-69 53.5q-63 -40 -142 -58.5t-162 -17.5q-78 0 -152.5 11.5t-133 43t-94 87.5t-35.5 145zM187 1122q42 126 113 167 q23 13 50.5 20t56.5 7q63 0 134 -44q61 -38 84 -38q28 0 65 84l156 -57q-72 -198 -226 -198q-48 0 -96 23q-5 2 -25 14.5t-57 35.5l3 -1q-24 12 -38 12q-30 0 -64 -86zM273 264q0 -42 22.5 -66t57.5 -36t76.5 -15t79.5 -3q59 0 102.5 9t73.5 21t48 24.5t26 19.5q25 20 25 46 v184q-21 -5 -52 -6t-66 -3t-74 -3.5t-76.5 -5.5t-71.5 -10.5t-58 -16.5q-24 -11 -44.5 -27t-35.5 -35t-24 -39t-9 -38z" />
<glyph unicode="&#xe4;" d="M100 266q0 38 13.5 77.5t38 76t59 68t76.5 53.5q24 12 55.5 20t67 13t74 8t75.5 5q42 2 82.5 5t72 9t51 16t19.5 26v62q0 27 -23 49.5t-57.5 39t-76 26t-77.5 9.5q-44 0 -87.5 -6.5t-81.5 -25.5t-69 -52.5t-50 -88.5l-158 34q15 81 56 138t98.5 93t129 53t148.5 17 q45 0 93 -8t94 -24t87 -38.5t72 -51.5t49 -63.5t18 -74.5v-563q1 -12 13 -18t35 -8q-1 -16 -2 -37.5t-2 -44.5t-1.5 -44.5t-0.5 -36.5q-59 3 -103 22.5t-69 53.5q-63 -40 -142 -58.5t-162 -17.5q-78 0 -152.5 11.5t-133 43t-94 87.5t-35.5 145zM223 1177q0 24 9 46 t24.5 38.5t36.5 26t45 9.5q49 0 81 -38q34 -37 34 -82q0 -24 -9.5 -45t-25 -36.5t-36.5 -24.5t-44 -9q-24 0 -45 9t-36.5 24.5t-24.5 36.5t-9 45zM273 264q0 -42 22.5 -66t57.5 -36t76.5 -15t79.5 -3q59 0 102.5 9t73.5 21t48 24.5t26 19.5q25 20 25 46v184q-21 -5 -52 -6 t-66 -3t-74 -3.5t-76.5 -5.5t-71.5 -10.5t-58 -16.5q-24 -11 -44.5 -27t-35.5 -35t-24 -39t-9 -38zM572 1177q0 24 9 46t25 38.5t37.5 26t45.5 9.5q49 0 83 -38q33 -38 33 -82q0 -24 -9 -45t-25 -36.5t-37 -24.5t-45 -9t-45.5 9t-37.5 24.5t-25 36.5t-9 45z" />
<glyph unicode="&#xe5;" d="M100 266q0 38 13.5 77.5t38 76t59 68t76.5 53.5q24 12 55.5 20t67 13t74 8t75.5 5q42 2 82.5 5t72 9t51 16t19.5 26v62q0 27 -23 49.5t-57.5 39t-76 26t-77.5 9.5q-44 0 -87.5 -6.5t-81.5 -25.5t-69 -52.5t-50 -88.5l-158 34q15 81 56 138t98.5 93t129 53t148.5 17 q45 0 93 -8t94 -24t87 -38.5t72 -51.5t49 -63.5t18 -74.5v-563q1 -12 13 -18t35 -8q-1 -16 -2 -37.5t-2 -44.5t-1.5 -44.5t-0.5 -36.5q-59 3 -103 22.5t-69 53.5q-63 -40 -142 -58.5t-162 -17.5q-78 0 -152.5 11.5t-133 43t-94 87.5t-35.5 145zM273 264q0 -42 22.5 -66 t57.5 -36t76.5 -15t79.5 -3q59 0 102.5 9t73.5 21t48 24.5t26 19.5q25 20 25 46v184q-21 -5 -52 -6t-66 -3t-74 -3.5t-76.5 -5.5t-71.5 -10.5t-58 -16.5q-24 -11 -44.5 -27t-35.5 -35t-24 -39t-9 -38zM364 1229q0 70 52 122q52 51 122 51q73 0 126 -50q52 -51 52 -123 q0 -74 -53 -124q-51 -48 -125 -48q-69 0 -122 50q-52 52 -52 122zM481 1229q0 -24 16.5 -40t40.5 -16q25 0 43.5 16t18.5 40q0 23 -18.5 39.5t-43.5 16.5q-23 0 -40 -16.5t-17 -39.5z" />
<glyph unicode="&#xe6;" horiz-adv-x="1917" d="M37 333q0 107 71 193q63 78 168 116q35 13 70.5 18.5t73.5 5.5h76q54 0 98 1.5t81 3.5q20 2 46 5t55 8q-5 22 -15 42.5t-27 36.5q-43 38 -99 38h-252q-57 0 -100 -43q-42 -42 -42 -120h-168q0 148 91 240q94 92 219 92h252q93 0 171 -51q66 -43 104 -107q144 158 357 158 q204 0 344 -143q142 -142 142 -343v-34h-806q3 -47 32 -100q20 -41 52.5 -75.5t71.5 -59.5q42 -24 86.5 -37t92.5 -13q93 0 179 49q45 26 78.5 62t56.5 83l165 -28q-29 -79 -78.5 -140t-116.5 -105q-64 -42 -136.5 -64t-147.5 -22q-81 0 -150 20.5t-130 63.5v-15 q-58 64 -96 64q-45 0 -65 -30l-3 -3q-114 -100 -281 -100h-137q-55 0 -105.5 13t-97.5 38q-48 26 -85.5 63.5t-62.5 84.5q-15 30 -23.5 64t-8.5 70zM207 333q0 -62 58 -111q61 -53 155 -53h137q48 0 88 14t74 40h-1q60 48 60 110v177q-23 -4 -53 -6.5t-65 -3.5 q-34 -2 -76.5 -2.5t-86.5 -0.5h-31t-25 1h-21q-92 0 -155 -52q-28 -25 -43 -53.5t-15 -59.5zM975 620h585q-35 75 -109 126q-83 59 -184 59q-49 0 -95 -15.5t-88 -44.5q-36 -26 -64 -56.5t-45 -68.5z" />
<glyph unicode="&#xe7;" horiz-adv-x="1001" d="M30 484q0 103 35.5 190.5t105.5 164.5q143 152 344 152q203 0 345 -154q26 -29 51.5 -66t49.5 -85h-191q-12 18 -14.5 20.5t-6.5 7.5q-6 6 -8 9q-96 103 -226 103q-135 0 -227 -103q-47 -52 -69.5 -112t-22.5 -127q0 -137 93 -239v1q93 -102 226 -102q134 0 226 102 q2 2 5 5.5t5 5.5t4 4.5t9 10.5h193q-25 -44 -50 -80t-50 -62q-144 -151 -342 -151q-203 0 -344 153t-141 352zM334 70h182q9 -14 25.5 -27.5t40.5 -27.5l-1 1q14 -7 34 -21t46 -36q42 -46 42 -120q0 -104 -127 -131q-30 -6 -70 -6l-82 136q41 26 107 38l-22.5 22.5 t-36.5 34.5q-21 19 -55 52.5t-83 84.5zM543 -122h4h-1h-3z" />
<glyph unicode="&#xe8;" horiz-adv-x="1136" d="M27 484q0 200 146 355q145 152 345 152q204 0 345 -153q142 -154 142 -388h-813q10 -112 101 -207h-1q96 -99 226 -99q97 0 188 59t138 156l166 -28q-63 -157 -200 -254q-135 -98 -292 -98q-204 0 -347 152q-144 155 -144 353zM116 1357h299l213 -225l-82 -80zM217 616 h595q-17 38 -45 75.5t-64 66.5q-80 68 -185 68q-100 0 -186 -70q-78 -62 -115 -140z" />
<glyph unicode="&#xe9;" horiz-adv-x="1136" d="M27 484q0 200 146 355q145 152 345 152q204 0 345 -153q142 -154 142 -388h-813q10 -112 101 -207h-1q96 -99 226 -99q97 0 188 59t138 156l166 -28q-63 -157 -200 -254q-135 -98 -292 -98q-204 0 -347 152q-144 155 -144 353zM217 616h595q-17 38 -45 75.5t-64 66.5 q-80 68 -185 68q-100 0 -186 -70q-78 -62 -115 -140zM420 1132l213 225h299l-430 -305z" />
<glyph unicode="&#xea;" horiz-adv-x="1136" d="M27 484q0 200 146 355q145 152 345 152q204 0 345 -153q142 -154 142 -388h-813q10 -112 101 -207h-1q96 -99 226 -99q97 0 188 59t138 156l166 -28q-63 -157 -200 -254q-135 -98 -292 -98q-204 0 -347 152q-144 155 -144 353zM217 616h595q-17 38 -45 75.5t-64 66.5 q-80 68 -185 68q-100 0 -186 -70q-78 -62 -115 -140zM226 1055l216 302h182l217 -302h-207l-101 139q-24 -34 -50.5 -70.5t-49.5 -68.5h-207z" />
<glyph unicode="&#xeb;" horiz-adv-x="1136" d="M27 484q0 200 146 355q145 152 345 152q204 0 345 -153q142 -154 142 -388h-813q10 -112 101 -207h-1q96 -99 226 -99q97 0 188 59t138 156l166 -28q-63 -157 -200 -254q-135 -98 -292 -98q-204 0 -347 152q-144 155 -144 353zM212 1165q0 24 9 46t24.5 38.5t36.5 26 t45 9.5q49 0 81 -38q34 -37 34 -82q0 -24 -9.5 -45t-25 -36.5t-36.5 -24.5t-44 -9q-24 0 -45 9t-36.5 24.5t-24.5 36.5t-9 45zM217 616h595q-17 38 -45 75.5t-64 66.5q-80 68 -185 68q-100 0 -186 -70q-78 -62 -115 -140zM561 1165q0 24 9 46t25 38.5t37.5 26t45.5 9.5 q49 0 83 -38q33 -38 33 -82q0 -24 -9 -45t-25 -36.5t-37 -24.5t-45 -9t-45.5 9t-37.5 24.5t-25 36.5t-9 45z" />
<glyph unicode="&#xec;" horiz-adv-x="506" d="M-36 1365h299l213 -225l-82 -80zM155 805v165h288v-970h-165v805h-123z" />
<glyph unicode="&#xed;" horiz-adv-x="483" d="M-7 1138l213 225h299l-430 -305zM155 805v165h288v-970h-165v805h-123z" />
<glyph unicode="&#xee;" horiz-adv-x="722" d="M56 1055l216 302h182l217 -302h-207l-101 139q-24 -34 -50.5 -70.5t-49.5 -68.5h-207zM212 805v165h288v-970h-165v805h-123z" />
<glyph unicode="&#xef;" horiz-adv-x="722" d="M84 1160q0 24 9 46t24.5 38.5t36.5 26t45 9.5q49 0 81 -38q34 -37 34 -82q0 -24 -9.5 -45t-25 -36.5t-36.5 -24.5t-44 -9q-24 0 -45 9t-36.5 24.5t-24.5 36.5t-9 45zM223 805v165h288v-970h-165v805h-123zM433 1160q0 24 9 46t25 38.5t37.5 26t45.5 9.5q49 0 83 -38 q33 -38 33 -82q0 -24 -9 -45t-25 -36.5t-37 -24.5t-45 -9t-45.5 9t-37.5 24.5t-25 36.5t-9 45z" />
<glyph unicode="&#xf0;" horiz-adv-x="1054" d="M54 389q0 43 9.5 82t26.5 77q29 57 72.5 103t98.5 78q57 32 117.5 49.5t123.5 17.5q7 1 14 1h16q113 0 211 -63q-23 172 -125 277q-48 -21 -101 -45t-99 -45l-70 154l135 60q-71 43 -156 43h-68v168h68q89 0 173.5 -32.5t164.5 -95.5q57 26 118.5 53t118.5 52l70 -154 l-191 -83q76 -110 116 -240q22 -70 35 -168t16 -219v-70q0 -42 -9.5 -81t-26.5 -75q-53 -115 -169 -180q-111 -64 -239 -64q-186 0 -317 116q-133 118 -133 284zM222 379q0 -95 79 -159h-1q82 -65 205 -65q124 0 195 62q80 66 80 187q0 46 -20 88q-65 138 -241 138h-29 q-27 0 -54 -5t-52 -13q-79 -32 -120.5 -86t-41.5 -131v-16z" />
<glyph unicode="&#xf1;" horiz-adv-x="1133" d="M53 0v970h165v-127q57 72 136 110t176 38q219 0 338 -138q118 -136 118 -361v-492h-167v484q0 176 -81 259q-79 83 -208 83q-143 0 -226 -103q-86 -106 -86 -239v-484h-165zM197 1123q42 126 113 167q23 13 50.5 20t56.5 7q63 0 134 -44q61 -38 84 -38q28 0 65 84 l156 -57q-72 -198 -226 -198q-48 0 -96 23q-5 2 -25 14.5t-57 35.5l3 -1q-24 12 -38 12q-30 0 -64 -86z" />
<glyph unicode="&#xf2;" d="M31 484q0 103 35.5 190.5t105.5 164.5q143 152 344 152q203 0 345 -154t142 -353q0 -101 -36.5 -188.5t-108.5 -165.5q-144 -151 -342 -151q-203 0 -344 153t-141 352zM66 1357h299l213 -225l-82 -80zM197 484q0 -137 93 -239v1q93 -102 226 -102q134 0 226 102 q96 105 96 238q0 134 -96 239q-96 103 -226 103q-135 0 -227 -103q-47 -52 -69.5 -112t-22.5 -127z" />
<glyph unicode="&#xf3;" d="M31 484q0 103 35.5 190.5t105.5 164.5q143 152 344 152q203 0 345 -154t142 -353q0 -101 -36.5 -188.5t-108.5 -165.5q-144 -151 -342 -151q-203 0 -344 153t-141 352zM197 484q0 -137 93 -239v1q93 -102 226 -102q134 0 226 102q96 105 96 238q0 134 -96 239 q-96 103 -226 103q-135 0 -227 -103q-47 -52 -69.5 -112t-22.5 -127zM420 1132l213 225h299l-430 -305z" />
<glyph unicode="&#xf4;" d="M31 484q0 103 35.5 190.5t105.5 164.5q143 152 344 152q203 0 345 -154t142 -353q0 -101 -36.5 -188.5t-108.5 -165.5q-144 -151 -342 -151q-203 0 -344 153t-141 352zM197 484q0 -137 93 -239v1q93 -102 226 -102q134 0 226 102q96 105 96 238q0 134 -96 239 q-96 103 -226 103q-135 0 -227 -103q-47 -52 -69.5 -112t-22.5 -127zM219 1055l216 302h182l217 -302h-207l-101 139q-24 -34 -50.5 -70.5t-49.5 -68.5h-207z" />
<glyph unicode="&#xf5;" d="M31 484q0 103 35.5 190.5t105.5 164.5q143 152 344 152q203 0 345 -154t142 -353q0 -101 -36.5 -188.5t-108.5 -165.5q-144 -151 -342 -151q-203 0 -344 153t-141 352zM186 1116q42 126 113 167q23 13 50.5 20t56.5 7q63 0 134 -44q61 -38 84 -38q28 0 65 84l156 -57 q-72 -198 -226 -198q-48 0 -96 23q-5 2 -25 14.5t-57 35.5l3 -1q-24 12 -38 12q-30 0 -64 -86zM197 484q0 -137 93 -239v1q93 -102 226 -102q134 0 226 102q96 105 96 238q0 134 -96 239q-96 103 -226 103q-135 0 -227 -103q-47 -52 -69.5 -112t-22.5 -127z" />
<glyph unicode="&#xf6;" d="M31 484q0 103 35.5 190.5t105.5 164.5q143 152 344 152q203 0 345 -154t142 -353q0 -101 -36.5 -188.5t-108.5 -165.5q-144 -151 -342 -151q-203 0 -344 153t-141 352zM197 484q0 -137 93 -239v1q93 -102 226 -102q134 0 226 102q96 105 96 238q0 134 -96 239 q-96 103 -226 103q-135 0 -227 -103q-47 -52 -69.5 -112t-22.5 -127zM221 1179q0 24 9 46t24.5 38.5t36.5 26t45 9.5q49 0 81 -38q34 -37 34 -82q0 -24 -9.5 -45t-25 -36.5t-36.5 -24.5t-44 -9q-24 0 -45 9t-36.5 24.5t-24.5 36.5t-9 45zM570 1179q0 24 9 46t25 38.5 t37.5 26t45.5 9.5q49 0 83 -38q33 -38 33 -82q0 -24 -9 -45t-25 -36.5t-37 -24.5t-45 -9t-45.5 9t-37.5 24.5t-25 36.5t-9 45z" />
<glyph unicode="&#xf7;" horiz-adv-x="1085" d="M-9 374v165h1019v-165h-1019zM361 142q0 50 37 89q38 38 89 38q52 0 90 -38q38 -40 38 -89q0 -52 -38 -90q-37 -38 -90 -38q-26 0 -49 10t-40 27.5t-27 41t-10 49.5zM361 759q0 26 10 49t27 40t40 26.5t49 9.5q53 0 90 -37q38 -35 38 -88q0 -50 -38 -90q-38 -38 -90 -38 q-54 0 -89 38q-37 40 -37 90z" />
<glyph unicode="&#xf8;" horiz-adv-x="1202" d="M85 484q0 203 142 344q144 142 342 142q89 0 188 -38q8 10 15.5 20t12.5 18h188l-80 -126q161 -144 161 -360q0 -203 -143 -343q-146 -141 -342 -141q-98 0 -174 30l-10 -16t-9 -14h-189l68 111q-170 140 -170 373zM248 484q0 -68 25 -127t70 -104q84 137 164 267 t164 268q-28 9 -52.5 13t-49.5 4q-132 0 -228 -94q-93 -93 -93 -227zM484 173q17 -5 38 -6.5t47 -1.5q133 0 227 94q92 94 92 225q0 128 -82 214z" />
<glyph unicode="&#xf9;" horiz-adv-x="1056" d="M46 463v507h165v-507q0 -66 18 -122.5t53 -104.5q35 -45 83 -68.5t105 -23.5q129 0 194 96q70 102 70 244v486h165v-970h-165v96q-51 -51 -120.5 -84t-143.5 -33q-191 0 -308 130q-116 130 -116 354zM114 1357h299l213 -225l-82 -80z" />
<glyph unicode="&#xfa;" horiz-adv-x="1056" d="M46 463v507h165v-507q0 -66 18 -122.5t53 -104.5q35 -45 83 -68.5t105 -23.5q129 0 194 96q70 102 70 244v486h165v-970h-165v96q-51 -51 -120.5 -84t-143.5 -33q-191 0 -308 130q-116 130 -116 354zM282 1132l213 225h299l-430 -305z" />
<glyph unicode="&#xfb;" horiz-adv-x="1056" d="M46 463v507h165v-507q0 -66 18 -122.5t53 -104.5q35 -45 83 -68.5t105 -23.5q129 0 194 96q70 102 70 244v486h165v-970h-165v96q-51 -51 -120.5 -84t-143.5 -33q-191 0 -308 130q-116 130 -116 354zM170 1058l216 302h182l217 -302h-207l-101 139q-24 -34 -50.5 -70.5 t-49.5 -68.5h-207z" />
<glyph unicode="&#xfc;" horiz-adv-x="1056" d="M46 463v507h165v-507q0 -66 18 -122.5t53 -104.5q35 -45 83 -68.5t105 -23.5q129 0 194 96q70 102 70 244v486h165v-970h-165v96q-51 -51 -120.5 -84t-143.5 -33q-191 0 -308 130q-116 130 -116 354zM182 1166q0 24 9 46t24.5 38.5t36.5 26t45 9.5q49 0 81 -38 q34 -37 34 -82q0 -24 -9.5 -45t-25 -36.5t-36.5 -24.5t-44 -9q-24 0 -45 9t-36.5 24.5t-24.5 36.5t-9 45zM531 1166q0 24 9 46t25 38.5t37.5 26t45.5 9.5q49 0 83 -38q33 -38 33 -82q0 -24 -9 -45t-25 -36.5t-37 -24.5t-45 -9t-45.5 9t-37.5 24.5t-25 36.5t-9 45z" />
<glyph unicode="&#xfd;" horiz-adv-x="1120" d="M-1 970h190l373 -688q68 171 137 344t137 344h179l-457 -1146q-41 -107 -123.5 -161t-207.5 -50v164q122 -2 159 62q24 60 48.5 120t49.5 122q-118 217 -242.5 444.5t-242.5 444.5zM323 1132l213 225h299l-430 -305z" />
<glyph unicode="&#xfe;" horiz-adv-x="1286" d="M47 1411v176h190l93 -152v-343q61 64 140.5 99t176.5 35q197 0 341 -142q72 -70 107 -154t37 -182q-1 -106 -36 -193.5t-107 -156.5q-144 -142 -341 -142q-97 0 -176.5 35t-140.5 99v-510h112v-176h-395v176h115q0 219 -0.5 434t-0.5 434v663h-115zM340 734 q0 -135 89 -227q90 -92 223 -92q135 0 227 94q93 94 93 225q0 136 -94 227q-96 94 -226 94q-135 0 -224 -94q-88 -92 -88 -227z" />
<glyph unicode="&#xff;" horiz-adv-x="1120" d="M-1 970h190l373 -688q68 171 137 344t137 344h179l-457 -1146q-41 -107 -123.5 -161t-207.5 -50v164q122 -2 159 62q24 60 48.5 120t49.5 122q-118 217 -242.5 444.5t-242.5 444.5zM269 1173q0 24 9 46t24.5 38.5t36.5 26t45 9.5q49 0 81 -38q34 -37 34 -82 q0 -24 -9.5 -45t-25 -36.5t-36.5 -24.5t-44 -9q-24 0 -45 9t-36.5 24.5t-24.5 36.5t-9 45zM618 1173q0 24 9 46t25 38.5t37.5 26t45.5 9.5q49 0 83 -38q33 -38 33 -82q0 -24 -9 -45t-25 -36.5t-37 -24.5t-45 -9t-45.5 9t-37.5 24.5t-25 36.5t-9 45z" />
<glyph unicode="&#x152;" horiz-adv-x="1872" d="M44 533v291q0 157 77 287q77 135 214 201q91 45 190 45h10q101 0 199 -50q35 -19 65.5 -41t58.5 -50v74h811v-156h-642v-316h518v-169h-518v-434h642v-156h-811v82q-28 -28 -58.5 -50t-65.5 -40q-49 -25 -98.5 -38t-100.5 -13h-10q-200 0 -343 161q-138 157 -138 372z M199 533q0 -157 98 -264q97 -108 228 -108h10q130 0 225 108q95 107 95 264v291q0 156 -96 266q-95 108 -224 108h-10q-131 0 -228 -108q-98 -109 -98 -266v-291z" />
<glyph unicode="&#x153;" horiz-adv-x="1980" d="M47 484q0 206 130 345q132 141 333 141q250 0 395 -216q137 216 377 216q200 0 334 -146q127 -139 127 -340v-37h-756q7 -57 30 -107t62 -89q86 -86 213 -86q191 0 285 194l163 -28q-32 -82 -77.5 -143t-103.5 -103q-116 -85 -267 -85q-238 0 -386 219 q-137 -219 -396 -219q-149 0 -263 80q-55 39 -97.5 95.5t-68.5 121.5q-17 42 -25.5 89.5t-8.5 97.5zM211 484q0 -138 84 -228q83 -91 215 -91t223 94q89 94 89 225q0 50 -12.5 94t-38.5 84q-26 39 -59.5 68.5t-78.5 49.5q-56 25 -123 25q-66 0 -121 -25t-97 -70 q-38 -45 -59.5 -102.5t-21.5 -123.5zM1015 620h536q-18 39 -41.5 70.5t-55.5 55.5q-76 59 -172 59q-94 0 -160.5 -47t-106.5 -138z" />
<glyph unicode="&#x178;" horiz-adv-x="1078" d="M-2 1357h193l296 -510q74 128 149 256t149 254h194l-407 -680v-677h-168v677q-48 81 -99.5 167t-103 173t-103 173t-100.5 167zM182 1535q0 24 9 46t24.5 38.5t36.5 26t45 9.5q49 0 81 -38q34 -37 34 -82q0 -24 -9.5 -45t-25 -36.5t-36.5 -24.5t-44 -9q-24 0 -45 9 t-36.5 24.5t-24.5 36.5t-9 45zM531 1535q0 24 9 46t25 38.5t37.5 26t45.5 9.5q49 0 83 -38q33 -38 33 -82q0 -24 -9 -45t-25 -36.5t-37 -24.5t-45 -9t-45.5 9t-37.5 24.5t-25 36.5t-9 45z" />
<glyph unicode="&#x2c6;" horiz-adv-x="722" d="M36 1055l216 302h182l217 -302h-207l-101 139q-24 -34 -50.5 -70.5t-49.5 -68.5h-207z" />
<glyph unicode="&#x2dc;" horiz-adv-x="788" d="M18 986q42 126 113 167q23 13 50.5 20t56.5 7q63 0 134 -44q61 -38 84 -38q28 0 65 84l156 -57q-72 -198 -226 -198q-48 0 -96 23q-5 2 -25 14.5t-57 35.5l3 -1q-24 12 -38 12q-30 0 -64 -86z" />
<glyph unicode="&#x2000;" horiz-adv-x="864" />
<glyph unicode="&#x2001;" horiz-adv-x="1729" />
<glyph unicode="&#x2002;" horiz-adv-x="864" />
<glyph unicode="&#x2003;" horiz-adv-x="1729" />
<glyph unicode="&#x2004;" horiz-adv-x="576" />
<glyph unicode="&#x2005;" horiz-adv-x="432" />
<glyph unicode="&#x2006;" horiz-adv-x="288" />
<glyph unicode="&#x2007;" horiz-adv-x="288" />
<glyph unicode="&#x2008;" horiz-adv-x="216" />
<glyph unicode="&#x2009;" horiz-adv-x="345" />
<glyph unicode="&#x200a;" horiz-adv-x="96" />
<glyph unicode="&#x2010;" horiz-adv-x="739" d="M51 516v165h547v-165h-547z" />
<glyph unicode="&#x2011;" horiz-adv-x="739" d="M51 516v165h547v-165h-547z" />
<glyph unicode="&#x2012;" horiz-adv-x="739" d="M51 516v165h547v-165h-547z" />
<glyph unicode="&#x2013;" horiz-adv-x="996" d="M51 503v167h785v-167h-785z" />
<glyph unicode="&#x2014;" horiz-adv-x="1614" d="M25 494v169h1406v-169h-1406z" />
<glyph unicode="&#x2018;" horiz-adv-x="384" d="M16 1058q0 96 78 192q81 99 175 108q4 -5 9 -13.5t8 -19.5v1q2 -5 3.5 -10t3.5 -11q6 -20 0 -42q-79 -26 -108 -69q-4 -5 -7 -13q8 -5 17 -10.5t20 -11.5q26 -18 40.5 -43.5t14.5 -57.5v-8q-1 -2 -1 -3v-1v-3q-15 -109 -126 -109h-12q-24 2 -45 13t-36.5 27.5t-24.5 38 t-9 45.5z" />
<glyph unicode="&#x2019;" horiz-adv-x="384" d="M28.5 953q-1.5 8 1.5 23q75 27 109 69q7 8 10 15q-92 66 -92 124v13q3 24 14.5 44.5t28 36t37.5 24.5t45 9q26 0 49 -10t40 -27t27 -39.5t10 -48.5q0 -100 -77 -196v1q-80 -100 -187 -113v21q-2 5 -5 15l-6 20q-3 11 -4.5 19z" />
<glyph unicode="&#x201a;" horiz-adv-x="390" d="M28 -88q55 22 84.5 42t37.5 41q-59 12 -87 66q-7 16 -10.5 30.5t-3.5 29.5q0 16 5.5 33t13.5 34q18 30 48.5 46.5t68.5 16.5q48 0 87 -37q21 -18 30.5 -40.5t9.5 -48.5q2 -120 -76 -207q-38 -41 -85 -65.5t-99 -29.5z" />
<glyph unicode="&#x201c;" horiz-adv-x="728" d="M35 1058q0 98 78 192q39 49 84.5 76t95.5 32l11 -22q1 -7 3 -18t6 -23q0 -2 0.5 -5.5t0.5 -5.5t0.5 -10t0.5 -10q-79 -26 -110 -66q-7 -8 -8 -15q2 -2 5.5 -4.5t7.5 -4.5l-1 1q5 -3 11.5 -7t12.5 -8q56 -39 56 -103v-8l-1 -3v-3q-17 -109 -127 -109h-12q-24 2 -45 13 t-36 27.5t-24 38t-9 45.5zM315 1060q0 97 79 192q41 48 85.5 75t95.5 32l28 -93q-82 -27 -118 -69h-1q-3 -5 -5.5 -10t-4.5 -10q2 2 11 -1.5t27 -14.5h-1q58 -36 58 -104v-14q-8 -54 -38.5 -81.5t-87.5 -27.5h-12q-25 2 -46.5 12.5t-37 27t-24 38.5t-8.5 48z" />
<glyph unicode="&#x201d;" horiz-adv-x="724" d="M42 1024q109 44 119 89v2q-2 -5 -11 -0.5t-26 14.5q-57 35 -57 103v10q1 2 1 0v3q8 48 42.5 80.5t83.5 32.5q50 0 88 -38q38 -35 38 -86q0 -101 -79 -196q-78 -97 -180 -108q-5 11 -8.5 24t-8.5 30v-1q-6 20 -2 41zM318.5 1009q-0.5 8 10.5 18q35 14 61 31t43 35 q3 5 6 10.5t4 9.5v3q-3 -7 -38 16q-56 38 -56 99v8l1 3v2q13 114 123 114q26 0 49 -9.5t40 -26t27 -38.5t10 -48q0 -64 -36 -134q-80 -155 -219 -172q-7 12 -11.5 26t-9.5 33v-1q-4 13 -4.5 21z" />
<glyph unicode="&#x201e;" horiz-adv-x="724" d="M40.5 -92.5q-0.5 9.5 1.5 21.5q109 43 119 89v2q-2 -2 -11 1t-26 14q-57 34 -57 102v10l1 1v2q4 24 15 45t27.5 36t38 24t45.5 9q50 0 88 -38q38 -36 38 -88q0 -100 -79 -195q-78 -99 -180 -108q-5 10 -8.5 23t-8.5 30v-1q-3 11 -3.5 20.5zM318.5 -86.5 q-0.5 7.5 10.5 18.5q35 13 61 30.5t43 35.5q3 5 6 10.5t4 9.5v2q-2 -1 -11.5 2.5t-26.5 15.5q-56 36 -56 98v11q1 2 1 0v2q3 24 13.5 45t27 36.5t37.5 24.5t45 9q26 0 49 -9.5t40 -26t27 -39.5t10 -49q0 -64 -36 -134q-82 -156 -219 -171q-7 11 -11.5 25.5t-9.5 33.5v-1 q-4 13 -4.5 20.5z" />
<glyph unicode="&#x2022;" horiz-adv-x="603" d="M32 658q0 93 68 158t162 65q93 0 161 -66q68 -65 68 -157q0 -94 -69 -158q-68 -63 -160 -63q-95 0 -162 63q-68 65 -68 158z" />
<glyph unicode="&#x2026;" horiz-adv-x="1549" d="M47 125q0 27 10 50.5t27 40.5t40 27t49 10t49.5 -10t41 -27.5t27.5 -40.5t10 -50q0 -53 -38 -88q-40 -37 -90 -37q-26 0 -49 10t-40 27t-27 39.5t-10 48.5zM571 125q0 27 10 50.5t27 40.5t40 27t50 10t50 -10t40 -27.5t26.5 -40.5t9.5 -50q0 -26 -10 -49t-27 -40 t-40 -26.5t-49 -9.5q-27 0 -50 10t-40 27t-27 39.5t-10 48.5zM1094 125q0 27 10 50t27.5 40.5t41 27.5t49.5 10q27 0 50 -10t40 -27.5t26.5 -40.5t9.5 -50q0 -26 -10 -49t-27 -40t-40 -26.5t-49 -9.5q-50 0 -90 37q-38 36 -38 88z" />
<glyph unicode="&#x202f;" horiz-adv-x="345" />
<glyph unicode="&#x2039;" horiz-adv-x="559" d="M-19 507l471 491v-228l-199 -268q49 -66 99.5 -131.5t99.5 -130.5v-228z" />
<glyph unicode="&#x203a;" horiz-adv-x="575" d="M51 11v229l197 262q-48 66 -98.5 134t-98.5 134v229l470 -492z" />
<glyph unicode="&#x205f;" horiz-adv-x="432" />
<glyph unicode="&#x20ac;" horiz-adv-x="1054" d="M-95 433v167h177v185h-177v167h183q24 157 146 293q128 144 315 144q79 0 153.5 -30.5t137.5 -86.5q63 -57 104 -122t56 -137h-159q-61 139 -145 174q-87 37 -146 37q-119 0 -203 -91q-74 -81 -95 -181h200v-167h-208v-185h208v-167h-205q15 -113 98 -202q89 -95 203 -95 q47 0 89.5 15.5t84.5 45.5q80 60 118 154h159q-22 -85 -64.5 -152.5t-104.5 -119.5q-63 -51 -134.5 -79.5t-146.5 -28.5q-135 0 -256 91q-121 95 -162 203q-17 48 -28.5 89.5t-16.5 78.5h-181z" />
<glyph unicode="&#x2122;" horiz-adv-x="1238" d="M36 1189v168h463v-168h-144v-332h-167v332h-152zM519 857v500h190l80 -258q20 64 41 130t41 128h188v-500h-166v58l-19 -58h-169l-16 51v-51h-170z" />
<glyph unicode="&#x25fc;" horiz-adv-x="970" d="M0 0v970h970v-970h-970z" />
</font>
</defs>
</svg>
