<?xml version="1.0" standalone="no"?>
<!DOCTYPE svg PUBLIC "-//W3C//DTD SVG 1.1//EN" "http://www.w3.org/Graphics/SVG/1.1/DTD/svg11.dtd" >
<svg xmlns="http://www.w3.org/2000/svg" xmlns:xlink="http://www.w3.org/1999/xlink" version="1.1">
<metadata></metadata>
<defs>
<font id="dustismobold_italic" horiz-adv-x="1141" >
<font-face units-per-em="2048" ascent="1638" descent="-410" />
<missing-glyph horiz-adv-x="754" />
<glyph horiz-adv-x="0" />
<glyph unicode="&#xd;" horiz-adv-x="754" />
<glyph unicode=" "  horiz-adv-x="754" />
<glyph unicode="&#x09;" horiz-adv-x="754" />
<glyph unicode="&#xa0;" horiz-adv-x="754" />
<glyph unicode="!" horiz-adv-x="458" d="M-8 91q8 35 37.5 59.5t64.5 24.5q39 0 60.5 -26.5t13.5 -64.5q-3 -18 -13 -33t-24 -26.5t-30.5 -18t-34.5 -6.5q-38 0 -60 26.5t-14 64.5zM46 294l220 1059h167l-220 -1059h-167z" />
<glyph unicode="&#x22;" horiz-adv-x="657" d="M22 874l101 483h167l-100 -483h-168zM320 874l100 483h168l-101 -483h-167z" />
<glyph unicode="#" horiz-adv-x="1176" d="M-10 243l85 169h194q11 23 20 42.5t18 38.5t18.5 38.5t20.5 43.5h-198l81 169h194q12 26 26 55t28 59t27.5 58.5t25.5 53.5h176l-103 -226h167q26 54 53 113t52 113h174l-104 -226h176l-77 -169h-179q-11 -23 -19.5 -42t-17.5 -38t-18 -39t-20 -44h178l-80 -169h-178 q-27 -60 -56 -121.5t-56 -121.5h-179l115 243h-166q-27 -60 -56 -121.5t-56 -121.5h-176l114 243h-204zM448 412h167l75 163h-166q-11 -22 -19.5 -41t-17.5 -38.5t-18.5 -39.5t-20.5 -44z" />
<glyph unicode="$" horiz-adv-x="940" d="M-2 431h172q9 -34 40 -52.5t76 -21.5q7 33 13.5 63t12.5 59t12.5 59.5t13.5 63.5q-127 6 -195 72q-55 54 -55 136q0 16 1.5 30t3.5 29q40 186 231 264q26 11 58.5 18t70.5 9q10 47 21 99.5t20 97.5h171l-40 -197q59 -3 106.5 -20.5t79.5 -44.5q70 -64 76 -182h-171 q-14 37 -43.5 56t-83.5 21l-48 -236q66 -4 116.5 -26.5t82.5 -60.5q26 -32 40.5 -69.5t14.5 -78.5q0 -14 -1.5 -29t-4.5 -28q-20 -88 -78 -153t-155 -100q-51 -20 -133 -21q-8 -45 -19 -95.5t-20 -92.5h-171l39 188q-58 2 -101.5 18t-75.5 44q-69 62 -77 181zM256 836 q0 -51 59 -72q19 -7 55 -9l48 234q-63 -7 -106 -43t-53 -85q-3 -15 -3 -25zM457 358q72 6 117.5 37t55.5 75q3 13 3 24q0 38 -22 67q-14 20 -37.5 30t-64.5 11z" />
<glyph unicode="%" horiz-adv-x="1116" d="M39 1029q0 29 6 59q11 57 42 105t80 86h-1q96 78 211 78q119 0 185 -81q24 -30 37 -64.5t13 -73.5q0 -14 -1.5 -29.5t-4.5 -28.5q-11 -57 -42.5 -106t-79.5 -88q-49 -38 -102 -57.5t-111 -19.5q-118 0 -184 81q-48 58 -48 139zM97 0l684 1357h178l-681 -1357h-181z M214 1080q-10 -45 15 -74t70 -29t89 33q42 31 51 78q9 40 -18 70q-28 31 -70 31q-75 0 -120 -68q-5 -9 -10 -20t-7 -21zM448 218q0 16 1 31t4 29q12 59 42 107t78 87q95 77 211 77q57 0 103 -21t80 -61q24 -30 37 -65t13 -73q0 -32 -6 -59q-12 -56 -42.5 -105t-78.5 -87 q-48 -40 -101 -59t-110 -19q-120 0 -185 80q-24 29 -35 63.5t-11 74.5zM623 270q-9 -43 14 -72q26 -29 68 -29q45 0 86 32q20 17 33 35.5t18 41.5q8 44 -16 72q-26 30 -68 30q-46 0 -86 -33q-20 -16 -32.5 -35t-16.5 -42z" />
<glyph unicode="&#x26;" horiz-adv-x="955" d="M31 271q0 39 7 73q35 162 235 256q-10 21 -20 42.5t-20 42.5q-20 31 -20 84q0 30 6 63q18 100 112 173q93 71 214 71t181 -83q39 -56 39 -129q0 -17 -1.5 -34.5t-5.5 -34.5q-24 -111 -104 -182q-23 -20 -54.5 -40t-79.5 -43l149 -230q20 20 30 42t14 49h176 q-12 -62 -48.5 -119.5t-95.5 -111.5q11 -20 23.5 -41.5t22.5 -38.5l-156 -91l-40 67q-54 -25 -130.5 -40.5t-173.5 -14.5q-55 1 -104 25.5t-93 72.5q-63 72 -63 172zM201 289q0 -46 28 -79q20 -20 49.5 -32.5t65.5 -12.5q63 0 107.5 9t69.5 18l-174 286q-56 -25 -93 -61.5 t-47 -81.5q-6 -27 -6 -46zM384 792q0 -66 60 -136q73 29 115 69t49 91q14 95 -91 97q-110 -9 -129 -88v1q-2 -8 -3 -15.5t-1 -18.5z" />
<glyph unicode="'" horiz-adv-x="311" d="M3 874l100 483h167l-100 -483h-167z" />
<glyph unicode="(" horiz-adv-x="646" d="M27 75q0 185 48 413q36 177 88.5 323t121.5 267q140 243 334 285l-29 -146q-111 -43 -197 -238q-86 -200 -149 -498q-63 -296 -58 -499q5 -192 97 -234l-28 -140q-88 20 -141.5 94t-73.5 196q-7 39 -10 84t-3 93z" />
<glyph unicode=")" horiz-adv-x="645" d="M-19 -396l30 146q56 21 103.5 80t90.5 158q44 100 81 223.5t68 274.5q58 277 58 470v29q-5 192 -97 234l29 140q88 -20 141 -94t73 -196q7 -39 10 -84t3 -93q0 -185 -48 -413q-35 -177 -88 -323t-123 -267q-141 -243 -331 -285z" />
<glyph unicode="*" horiz-adv-x="787" d="M33 519l32 154h188q-15 42 -32 87.5t-31 83.5l147 75l62 -171q33 42 67.5 86.5t65.5 82.5l121 -78l-131 -166h181l-32 -154h-186q14 -37 28.5 -77.5t28.5 -74.5l-148 -78l-55 150q-29 -37 -60 -76t-57 -73l-121 80l117 149h-185z" />
<glyph unicode="+" horiz-adv-x="769" d="M-15 447l34 165h275q14 69 30 146t30 145h168l-60 -291h271l-34 -165h-271q-14 -68 -30 -143.5t-29 -141.5h-169l60 285h-275z" />
<glyph unicode="," horiz-adv-x="389" d="M10 -90q56 20 89 40t48 42q-29 6 -45.5 22.5t-24.5 45.5q-6 19 -6 37q0 49 34 90v-1q48 61 128 61q52 0 83 -40q15 -18 20 -41.5t2 -47.5q-12 -60 -42 -112t-76 -94q-46 -40 -98 -64.5t-107 -29.5z" />
<glyph unicode="-" horiz-adv-x="704" d="M36 516l34 165h550l-34 -165h-550z" />
<glyph unicode="." horiz-adv-x="351" d="M30 129q6 26 19 48.5t35 39.5q45 36 95 36q27 0 48 -11t34.5 -29t19 -42t1.5 -49q-5 -26 -18.5 -48.5t-34.5 -39.5v1q-44 -35 -94 -35q-27 0 -49 10t-36 27.5t-19.5 41t-0.5 50.5z" />
<glyph unicode="/" horiz-adv-x="861" d="M-27 0l686 1357h177l-682 -1357h-181z" />
<glyph unicode="0" horiz-adv-x="1042" d="M44 294q0 17 1.5 35.5t5.5 35.5q12 62 25.5 124t25.5 124q19 87 61.5 156.5t105.5 120.5q63 48 145 74.5t179 26.5q80 0 146.5 -29t119.5 -84q39 -44 60.5 -95.5t21.5 -107.5q0 -17 -1.5 -35t-5.5 -35l-52 -248q-19 -84 -62 -157.5t-109 -121.5q-135 -99 -320 -99 q-164 0 -267 112q-80 91 -80 203zM208 303q0 -58 45 -103q65 -60 162 -56q100 0 191 64q45 31 73 70.5t38 84.5l52 248q5 28 5 48q0 62 -39 105q-54 62 -169 62q-96 0 -189 -63q-88 -61 -108 -150q-14 -66 -28 -134t-28 -134q-5 -22 -5 -42z" />
<glyph unicode="1" horiz-adv-x="560" d="M30 0l34 165h86q30 147 60 286.5t59 287.5h-85l27 135q56 0 94.5 22.5t51.5 73.5h127l-167 -805h68l-34 -165h-321z" />
<glyph unicode="2" horiz-adv-x="1102" d="M10 0l31 150q27 129 107.5 207t211.5 104q119 23 214.5 48.5t150.5 48.5q51 24 81.5 51t36.5 56v-2q12 171 -222 163q-115 0 -207 -56q-86 -54 -102 -132h-166q9 86 51 152t119 111q148 90 330 90q116 0 215 -48q101 -49 133 -131q21 -50 21 -103q0 -26 -5 -51 q-24 -123 -134 -191q-105 -65 -222 -99q-60 -19 -127.5 -35t-143.5 -30q-129 -23 -168 -138h681l-34 -165h-852z" />
<glyph unicode="3" horiz-adv-x="1078" d="M28 -33q0 14 2 32.5t4 39.5h165l-1 -27q-2 -11 -3 -20.5t-1 -17.5q0 -54 31 -110v1q40 -76 200 -76q122 0 217 69q94 69 116 168q6 19 8.5 35t2.5 30q0 32 -12 62.5t-33 56.5q-68 79 -264 79l34 162q70 1 122.5 15t85.5 38q68 53 96 122q5 25 5 43q0 56 -38 99 q-52 58 -146 58q-96 0 -178 -58h-18l-115 92q32 26 61.5 45t56.5 33q54 26 108.5 39.5t109.5 13.5q143 -1 239 -103h-1q43 -44 63.5 -100t20.5 -124q0 -11 -0.5 -23t-2.5 -29q-23 -106 -99 -175q-24 -20 -47 -36.5t-46 -26.5q85 -47 126 -126q17 -33 26 -70t9 -78 q0 -42 -9 -84q-26 -127 -122 -223q-47 -48 -98.5 -81.5t-105.5 -51.5q-104 -36 -198 -36q-175 0 -281 112q-90 96 -90 231z" />
<glyph unicode="4" horiz-adv-x="960" d="M-20 0l32 154l666 816h215l-166 -805h97l-34 -165h-97q-20 -94 -41 -194t-40 -194h-167l80 388h-545zM210 165h349q16 80 30.5 147.5t28 133t27.5 133.5t31 149q-60 -73 -117 -142t-114 -137.5t-115.5 -138.5t-119.5 -145z" />
<glyph unicode="5" horiz-adv-x="1035" d="M16 -226l55 270q56 -152 128 -209q76 -58 170 -58q148 0 257 100q110 101 138 232q4 17 5 31.5t1 27.5q0 84 -60 137q-73 65 -205 65q-137 0 -244 -89h-136l143 689h695l-34 -165h-528q-9 -42 -17 -79t-15.5 -73t-15 -73.5t-16.5 -80.5q51 19 98 27.5t96 8.5 q196 0 310 -128q46 -53 69.5 -113t23.5 -129q0 -15 -1.5 -31.5t-3.5 -31.5q-13 -98 -59 -185t-124 -159q-156 -146 -403 -146q-201 8 -327 162z" />
<glyph unicode="6" horiz-adv-x="1043" d="M28 337q0 53 7.5 117.5t21.5 143.5q50 264 290 510q242 247 578 247l-34 -165q-205 0 -384 -157q-159 -138 -229 -311q159 84 283 84q178 0 293 -107q86 -79 86 -209q0 -48 -10 -94q-18 -95 -64 -169.5t-121 -125.5q-148 -101 -343 -101q-65 0 -122 13.5t-106 42.5 q-99 58 -133 170q-13 42 -13 111zM199 344q0 -70 43 -115q32 -32 78 -48t109 -16q121 0 218 67v-1q92 64 117 179q3 14 4.5 27t1.5 24q0 68 -45 115q-62 65 -158 65q-141 0 -239 -64q-97 -62 -122 -167l1 1q-4 -20 -6 -36.5t-2 -30.5z" />
<glyph unicode="7" horiz-adv-x="1079" d="M-59 -332l818 1138h-616l6 164h782q71 -23 71 -79q0 -10 -2.5 -21t-7.5 -23q-227 -316 -458.5 -638t-457.5 -637q-13 9 -30.5 21.5t-36.5 26t-37 26.5t-31 22z" />
<glyph unicode="8" horiz-adv-x="1099" d="M42 338q0 16 1 32t3 33q21 104 87 186.5t169 140.5q-73 77 -73 189q0 20 1.5 40.5t5.5 39.5q17 75 58.5 139.5t108.5 115.5q131 103 281 103q73 0 135 -27.5t108 -78.5q70 -79 70 -185q0 -35 -8 -75q-33 -160 -176 -265q129 -93 129 -246q0 -41 -10 -85 q-47 -202 -210 -299q-158 -96 -310 -96q-158 -4 -273 96q-97 85 -97 242zM204 345q0 -31 12.5 -60t34.5 -53q68 -71 185 -67q61 0 114.5 18.5t101.5 53.5q95 71 116 167q8 35 8 60q0 66 -45 111q-56 56 -158 56h-15t-15 -1q-121 0 -215 -67t-118 -167h1q-3 -14 -5 -27 t-2 -24zM391 929q0 -50 34 -82q53 -51 142 -46q83 0 162 52q74 50 95 146l1 2q7 24 7 49q0 51 -34 89q-53 60 -140 53q-42 0 -82 -16t-80 -47q-79 -61 -95 -139q-5 -17 -7.5 -31.5t-2.5 -29.5z" />
<glyph unicode="9" horiz-adv-x="1042" d="M46 500q0 23 2.5 47t7.5 48v-2q20 174 175 287q156 114 354 111q65 0 120.5 -16t100 -46t77.5 -72.5t54 -94.5q15 -42 15 -107q0 -24 -3 -55.5t-8 -67t-12 -74t-16 -76.5q-33 -135 -104 -267.5t-180 -257.5q-220 -258 -572 -246l34 164q205 0 385 168q162 148 231 326 q-159 -84 -282 -84q-180 0 -294 106q-85 80 -85 209zM213 514q0 -63 42 -108h-1q63 -63 163 -56h1q74 5 133.5 23t110.5 50q96 63 117 158q3 14 4.5 27.5t1.5 24.5q0 74 -50 123q-64 70 -178 70q-60 0 -115 -16.5t-103 -50.5q-94 -63 -117 -178q-9 -35 -9 -67z" />
<glyph unicode=":" horiz-adv-x="461" d="M8.5 82.5q-5.5 23.5 0.5 50.5q12 52 53 88q41 37 95 37q27 0 49 -10.5t36 -29t19.5 -42.5t-0.5 -51q-12 -53 -55 -87q-41 -34 -94 -34q-27 0 -49 10t-35.5 27.5t-19 41zM158 802q-5 24 1 51q9 51 53 87q44 35 94 35q53 0 84 -40v1q16 -19 21 -42t0 -49q-11 -50 -55 -87 q-42 -37 -94 -37q-27 0 -49 10.5t-36 28.5t-19 42z" />
<glyph unicode=";" horiz-adv-x="516" d="M-9 -96q56 20 89.5 40t47.5 42q-29 6 -45.5 23t-24.5 45q-3 10 -4 19t-1 18q0 50 34 90v-1q48 61 127 61q52 0 84 -40q14 -18 19.5 -41.5t1.5 -47.5q-11 -60 -41.5 -112t-77.5 -93q-46 -41 -98 -65.5t-106 -29.5zM216 802q-5 24 1 51q11 51 55 87q46 35 94 35 q26 0 47 -10.5t36 -29.5q33 -39 22 -90q-6 -26 -19.5 -48t-36.5 -40v1q-45 -37 -94 -37q-27 0 -49 10.5t-36.5 28.5t-19.5 42z" />
<glyph unicode="&#x3c;" horiz-adv-x="680" d="M-13 493l37 181l611 520l-48 -235l-432 -383q66 -94 136.5 -190.5t137.5 -188.5l-47 -224z" />
<glyph unicode="=" horiz-adv-x="866" d="M28 313l34 166h661l-34 -166h-661zM90 609l35 165h660l-34 -165h-661z" />
<glyph unicode="&#x3e;" horiz-adv-x="680" d="M-3 -32l49 234l431 380q-67 94 -137 192t-137 191l47 224l395 -520l-37 -181z" />
<glyph unicode="?" horiz-adv-x="785" d="M5 972q39 188 162 287q122 98 268 98q72 0 130 -26t100 -76q32 -38 48.5 -82.5t16.5 -92.5q0 -17 -1.5 -35.5t-5.5 -34.5q-14 -62 -38.5 -111t-59.5 -83q-46 -42 -113 -73l-114 -46v1q-26 -13 -49.5 -39t-43.5 -68q-9 -21 -19 -52t-18 -73l-37 -174h-169l41 193 q17 78 43.5 139t64.5 109q55 69 145 116q22 10 54 25.5t74 38.5v-1q51 31 61 83q9 39 9 68q0 54 -26 85q-33 41 -119 41q-126 0 -198 -110v1q-20 -32 -36 -108h-170zM17.5 55.5q-3.5 16.5 0.5 35.5q3 18 13 33t24 26.5t30.5 18t34.5 6.5q38 0 60 -26.5t14 -64.5 q-4 -18 -14 -33t-24 -26.5t-30.5 -18t-34.5 -6.5q-19 0 -34.5 7t-25.5 19.5t-13.5 29z" />
<glyph unicode="@" horiz-adv-x="1689" d="M47 495q0 84 18 170q20 94 63.5 188t107.5 182q65 87 147 158.5t176 125.5q101 55 210 85t219 30q172 0 318 -81t217 -223q48 -102 48 -220q0 -33 -3 -67t-10 -68q-3 -11 -8.5 -29.5t-13.5 -44.5q-78 -253 -188 -372q-101 -107 -227 -107q-91 0 -130 64v-1q-21 32 -23 77 q-159 -132 -356 -132q-169 0 -255 113q-61 80 -61 189q0 44 9 89q45 217 251 380q201 159 414 159q183 0 250 -130q9 20 16.5 38t15.5 35h76q-118 163 -360 163q-258 0 -477 -187q-208 -177 -258 -422q-16 -73 -16 -137q0 -153 86 -265q111 -148 295 -148q171 0 414 126 l51 -153q-135 -71 -256.5 -105t-233.5 -34q-81 0 -154.5 22.5t-139.5 65.5q-64 45 -115 110t-80 140q-19 50 -28 104.5t-9 111.5zM464 566q0 -110 101 -155q21 -11 47.5 -15.5t57.5 -4.5q72 0 140 28.5t131 82.5q60 54 101.5 123t57.5 141q8 38 8 67q0 104 -92 149h1 q-44 19 -95 19h-6q-72 0 -140.5 -28t-137.5 -84q-67 -54 -108.5 -120t-57.5 -139q-8 -37 -8 -64zM1142 425q-8 -39 33 -39q22 0 82 75q44 56 78.5 136.5t54.5 174.5q6 28 9 55t3 51q0 69 -23 130q-235 -572 -237 -583z" />
<glyph unicode="A" horiz-adv-x="1066" d="M-18 13q174 334 351 674t352 676q16 26 36 38.5t42 12.5q26 0 48 -18.5t32 -53.5q35 -336 69.5 -677.5t68.5 -677.5q-16 -1 -37.5 -2t-45 -1.5t-45 -1t-37.5 -0.5q-14 131 -27.5 261t-26.5 261h-339q-72 -138 -146.5 -282.5t-146.5 -281.5zM509 668h238q-5 53 -11 105.5 t-11 106.5l-18 169q-26 -49 -50 -95.5l-48 -93t-49 -94t-51 -98.5z" />
<glyph unicode="B" horiz-adv-x="1140" d="M16 0l281 1357h431q184 0 294 -108q85 -86 85 -207q0 -17 -1.5 -36t-6.5 -40q-11 -94 -63 -169.5t-145 -128.5q73 -39 114.5 -97t41.5 -132q0 -17 -1.5 -34t-5.5 -33q-27 -125 -131 -221q-97 -86 -224 -125q-43 -12 -86.5 -19t-84.5 -7h-498zM217 165h323 q65 0 122.5 19.5t110.5 57.5q91 64 105 134q8 29 8 45q0 49 -44 96q-23 28 -75 42t-135 16h-330q-23 -107 -43 -204.5t-42 -205.5zM337 744h266q61 0 117 18.5t105 52.5q89 69 108 154q6 17 8.5 31t2.5 26q0 54 -38 101q-34 32 -83 48.5t-115 16.5h-278 q-24 -116 -46.5 -223.5t-46.5 -224.5z" />
<glyph unicode="C" horiz-adv-x="1140" d="M39 395q0 31 3.5 61t9.5 60l69 335q15 78 49 149t86 137q52 67 109 113.5t120 74.5q125 55 232 55q111 0 211 -55q104 -57 155 -193q28 -73 28 -171q0 -15 -1 -31h-162q1 115 -49 186q-69 99 -208 99q-142 0 -256 -102q-54 -49 -91 -115t-54 -139q-18 -90 -38.5 -183.5 t-38.5 -183.5q-5 -24 -7.5 -46t-2.5 -42q0 -48 12.5 -88t35.5 -75v1q70 -98 209 -98q67 0 134.5 28.5t121.5 73.5q39 36 71.5 83t54.5 100h167q-23 -59 -52 -112t-63 -95q-103 -132 -229 -188q-123 -55 -231 -55q-111 0 -211 55q-104 57 -155 193q-29 81 -29 168z" />
<glyph unicode="D" horiz-adv-x="1124" d="M-14 0l282 1357h431q152 0 258 -95q99 -92 126 -238q3 -19 5 -39t2 -41q0 -62 -14 -124q-14 -71 -30 -145t-30 -146q-51 -256 -202.5 -390t-388.5 -139h-439zM188 165h262q159 6 262 108q51 51 86 118.5t52 145.5q15 71 30.5 145.5t30.5 145.5q17 68 17 119q0 81 -39 144 q-63 101 -217 101h-271z" />
<glyph unicode="E" horiz-adv-x="1094" d="M-16 0l282 1357h810l-34 -165h-643q-10 -50 -20 -96.5t-19.5 -92t-19.5 -92t-20 -97.5h517l-34 -165h-518q-13 -63 -25.5 -122.5t-24.5 -118.5t-24 -119t-25 -124h643l-34 -165h-811z" />
<glyph unicode="F" horiz-adv-x="1111" d="M-16 0l282 1357h810l-34 -165h-643q-10 -50 -19.5 -95.5t-19.5 -91t-19.5 -91.5t-19.5 -96h517l-35 -169h-517q-33 -161 -67 -324.5t-67 -324.5h-168z" />
<glyph unicode="G" horiz-adv-x="1109" d="M-6 395q0 31 3.5 61t9.5 60l69 335q32 153 127 285q98 133 230 188q133 56 239 56q54 0 108 -14.5t103 -40.5q48 -29 89.5 -79.5t64.5 -113.5q15 -39 22.5 -82t7.5 -87q0 -32 -4 -65t-11 -70h-168q18 84 18 135q0 90 -39 153q-60 98 -217 99q-60 0 -121 -25.5t-121 -78.5 q-122 -104 -160 -253l1 1q-19 -92 -38 -183.5t-39 -183.5q-5 -26 -7.5 -49.5t-2.5 -43.5q0 -90 43 -159q32 -48 85 -72q52 -24 123 -24h6q142 0 256 101q51 45 87 107t55 131h-279q2 7 4.5 18.5t5 23.5t4.5 23.5t4 19.5q2 16 7 39.5t9 39.5h367q34 -10 47 -26.5t15 -50.5 l-118 -570h-165l20 103q-26 -21 -55 -38t-58 -31q-125 -55 -232 -55q-111 0 -211 55q-104 57 -155 193q-29 81 -29 168z" />
<glyph unicode="H" horiz-adv-x="1140" d="M-15 0l282 1357h167l-143 -689h515q35 170 71 345t71 344h167l-281 -1357h-168l104 503h-513q-25 -123 -52 -252t-52 -251h-168z" />
<glyph unicode="I" horiz-adv-x="785" d="M-20 0l34 165h166q27 131 53.5 259t53 255t53 254.5t53.5 259.5h-166l34 164h507l-34 -164h-172q-27 -131 -53.5 -259t-53 -255t-53 -254.5t-53.5 -259.5h171l-34 -165h-506z" />
<glyph unicode="J" horiz-adv-x="1063" d="M-2 306q0 39 8 76q6 31 14 70t14 68h167l-32 -152q-3 -12 -5 -23t-2 -23q0 -25 9 -49q20 -62 75 -94q59 -35 128 -35q96 0 190 71q45 34 72.5 77t38.5 90q43 205 84.5 404.5t83.5 405.5h-188l34 165h358l-205 -989q-18 -74 -66 -167q-73 -108 -191 -166 q-117 -56 -236 -56q-167 0 -269 117q-41 48 -61.5 99.5t-20.5 110.5z" />
<glyph unicode="K" horiz-adv-x="1217" d="M-16 13q35 165 70.5 338.5t70.5 339.5q34 165 70 337.5t71 338.5l164 -21l-115 -552q122 100 242.5 200t243.5 200q33 27 68.5 56.5t71.5 59l72 59t69 56.5l95 -134l-314 -260q-73 -60 -144 -118t-144 -119q95 -185 193 -373.5t193 -372.5q-14 -9 -32.5 -20.5t-38 -23.5 t-38.5 -23t-32 -19l-375 725q-22 -18 -43 -36t-42 -35q-26 -21 -49.5 -40.5t-49.5 -40.5q-5 -22 -9 -42.5t-9 -42.5q-23 -109 -47 -229t-47 -229q-16 2 -37.5 4.5t-45 5.5t-45 6t-37.5 5z" />
<glyph unicode="L" horiz-adv-x="924" d="M-9 0l281 1357h168l-247 -1192h579l-34 -165h-747z" />
<glyph unicode="M" horiz-adv-x="1464" d="M-11 6l279 1342q8 37 30.5 56.5t49.5 19.5q20 0 40 -10.5t36 -34.5l71 -204q25 -73 48.5 -141t46.5 -134.5t46 -134.5t48 -141q146 192 292.5 384.5t293.5 386.5q17 15 34 21.5t33 6.5q34 0 56.5 -26t21.5 -73l-279 -1339l-164 21q28 132 53.5 254.5t50 243.5t50 243.5 t52.5 255.5q-114 -150 -226 -298.5t-226 -297.5q-17 -20 -34.5 -29t-35.5 -9q-23 0 -43.5 14t-33.5 41q-29 84 -54 158t-50 145.5t-50 145t-54 157.5q-25 -118 -49.5 -239.5t-50.5 -239.5q-29 -138 -58.5 -283t-58.5 -283q-16 2 -37.5 4.5t-45 5.5t-45 6t-37.5 5z" />
<glyph unicode="N" horiz-adv-x="1248" d="M-29 6l266 1287q9 37 31.5 56.5t49.5 19.5q20 0 39.5 -10t34.5 -33l329 -739q18 -41 32 -73t27.5 -62.5t28 -63t32.5 -72.5q23 109 44.5 216t44.5 216q15 73 31 151t32.5 156.5t32.5 156t31 150.5q16 -2 38 -5t45 -6t45 -6t38 -4l-52 -243q-55 -265 -111 -534t-110 -533 q-13 -33 -35 -49t-46 -16q-22 0 -43 13.5t-35 41.5q-59 132 -113.5 255t-108 244.5t-108 244.5t-112.5 255q-54 -258 -107.5 -518t-106.5 -517z" />
<glyph unicode="O" horiz-adv-x="1125" d="M-6 395q0 31 3.5 61t9.5 60l69 335v-1q24 154 128 287q102 132 233 188q126 55 235 55q110 0 209 -56q51 -29 90 -78t64 -114q16 -39 23.5 -82.5t7.5 -89.5q0 -56 -11 -117l-70 -335v1q-25 -154 -125 -287q-49 -67 -107 -113.5t-125 -74.5q-131 -55 -239 -55 q-111 0 -211 55q-104 57 -155 193q-29 81 -29 168zM155 389q0 -45 12 -85t33 -71q35 -48 89 -71q44 -19 100 -19q12 0 25 1q139 0 249 101q116 103 154 256l-1 -1q20 92 39 184l38 184q18 60 18 107q0 39 -11.5 75t-32.5 67q-35 47 -91 72.5t-130 25.5q-134 0 -248 -102 q-117 -103 -154 -255l1 1l-78 -367q-5 -26 -8.5 -51.5t-3.5 -51.5z" />
<glyph unicode="P" horiz-adv-x="1140" d="M-29 0l281 1357h390q219 0 350 -121q107 -103 107 -236q0 -38 -6 -72v2q-26 -199 -208 -314q-179 -113 -412 -113h-229q-25 -123 -52 -252t-52 -251h-169zM278 668h221q83 0 153.5 19t131.5 57q59 38 94.5 86.5t48.5 105.5q3 14 5 29t2 26q0 64 -41 109.5t-117 71.5 q-65 20 -160 20h-229q-14 -68 -27.5 -132.5l-27 -129t-27 -129.5t-27.5 -133z" />
<glyph unicode="Q" horiz-adv-x="1109" d="M-6 395q0 31 3.5 61t9.5 60l69 335v-1q24 154 128 287q102 132 233 188q126 55 235 55q110 0 209 -56q51 -29 90 -78t64 -114q16 -39 23.5 -82.5t7.5 -89.5q0 -56 -11 -117l-70 -335v1q-12 -74 -46 -149t-79 -138q-2 -2 -2 -3l-1 -1q6 -6 12.5 -11t12.5 -10q9 -8 21 -18 l24 -20t23 -19.5t20 -16.5l-107 -126q-26 22 -59 49.5t-59 49.5q-4 3 -1.5 1.5t-1.5 1.5q-26 -19 -54.5 -35.5t-59.5 -29.5q-131 -55 -239 -55q-111 0 -211 55q-104 57 -155 193q-29 81 -29 168zM155 389q0 -45 12 -85t33 -71q35 -48 89 -71q44 -19 100 -19q12 0 25 1 q110 0 202 63q-26 21 -55 46t-51 45l107 125q19 -17 45 -39t46 -39q11 -8 13.5 -10.5t12.5 -11.5q29 40 50 84.5t33 93.5l-1 -1q20 92 39 184l38 184q18 60 18 107q0 39 -11.5 75t-32.5 67q-35 47 -91 72.5t-130 25.5q-134 0 -248 -102q-117 -103 -154 -255l1 1 q-19 -92 -38.5 -183.5t-39.5 -183.5q-5 -26 -8.5 -51.5t-3.5 -51.5z" />
<glyph unicode="R" horiz-adv-x="1140" d="M-29 0l281 1357h390q218 0 347 -121q109 -105 109 -241q0 -17 -1.5 -34t-3.5 -33v2q-7 -78 -43.5 -146.5t-105.5 -125.5q-125 -104 -302 -134q22 -62 45 -128.5t46 -134t46 -134t44 -127.5h-189l-175 503h-215q-25 -123 -52 -252t-52 -251h-169zM278 668h240 q148 0 269 80q59 40 94 86t46 102q3 13 4 24t1 22q0 81 -66 138q-88 76 -249 76h-229q-12 -60 -26 -127t-28.5 -135t-28.5 -136t-27 -130z" />
<glyph unicode="S" horiz-adv-x="1139" d="M-21 321q0 17 1 35.5t4 41.5h169q-7 -29 -9.5 -48.5t-2.5 -32.5q0 -39 14.5 -66t41.5 -49v1q73 -59 218 -59q75 0 138.5 18t114.5 48q50 30 85 69t46 100q2 11 3 20t1 17q0 33 -15.5 61t-44.5 51q-19 17 -82 36.5t-171 44.5q-225 53 -288 103q-63 51 -86 128 q-7 22 -10 44t-3 43q0 17 1.5 34t5.5 33q16 75 61 153q47 78 123 127q36 24 81.5 43.5t95.5 33.5q51 15 101 22t99 7h7q101 0 181 -30q83 -31 138 -79q27 -26 48 -59.5t35 -75.5q8 -24 11.5 -48.5t3.5 -48.5q0 -17 -1.5 -36.5t-6.5 -41.5h-168q5 23 8 40.5t3 29.5 q0 35 -12.5 68t-35.5 54q-35 29 -95 47q-54 16 -125 15h-17q-77 0 -137 -15t-108 -43q-46 -27 -78.5 -74.5t-47.5 -97.5l1 2q-5 -23 -5 -38q0 -74 53 -116q16 -14 79 -33t173 -44v1q226 -51 293 -102q32 -26 55.5 -57.5t34.5 -68.5q13 -39 13 -85q0 -39 -7 -71v1 q-15 -103 -68.5 -173.5t-134.5 -122.5q-79 -51 -176 -75t-194 -24q-99 0 -178 28.5t-135 80.5q-48 44 -73.5 100t-25.5 133z" />
<glyph unicode="T" horiz-adv-x="1048" d="M8 1192l34 165h969l-34 -165h-406q-61 -294 -124 -596t-123 -596h-167l247 1192h-396z" />
<glyph unicode="U" horiz-adv-x="1171" d="M-21 395q0 30 2.5 61t9.5 60q42 205 87 421t87 420h168l-181 -867q-6 -26 -9.5 -51.5t-3.5 -51.5q0 -43 12.5 -82.5t33.5 -71.5q36 -45 89 -69q45 -21 101 -21q9 0 19 1q67 1 129.5 27.5t116.5 74.5q56 51 95 115.5t59 141.5l-1 -1q43 211 88.5 427.5t88.5 427.5h167 l-176 -849v1q-36 -230 -211 -387q-180 -143 -381 -143q-155 0 -260 95q-97 88 -124 237v-1q-6 40 -6 85z" />
<glyph unicode="V" horiz-adv-x="1044" d="M30 1357h160l97 -1044q134 260 270.5 523t270.5 521h182l-688 -1357h-166z" />
<glyph unicode="W" horiz-adv-x="1340" d="M27 62l15 644q4 158 7 324t6 324l165 6q-3 -123 -5 -235t-4 -221.5t-4.5 -221t-5.5 -234.5q102 214 202.5 428t200.5 428q16 26 36 37.5t41 11.5q26 0 48 -18t33 -54q6 -116 11 -217.5t10 -201t9.5 -201.5t10.5 -217q13 32 27.5 70t27.5 70q37 93 78 195t82.5 205.5 t82 204.5t77.5 194l150 -73q-128 -320 -259 -645t-259 -645q-17 -22 -36.5 -31.5t-38.5 -9.5q-29 0 -51.5 22t-27.5 61l-24 477q-3 60 -5 107t-4 92t-4 92.5t-5 107.5q-50 -106 -99.5 -212t-100.5 -212q-58 -125 -116.5 -248t-116.5 -248q-17 -20 -36.5 -29.5t-37.5 -9.5 q-29 0 -52 22t-28 61z" />
<glyph unicode="X" horiz-adv-x="1217" d="M-26 56q31 39 64.5 81t67.5 85t67.5 85t65.5 81q64 79 123.5 154t122.5 154q-57 155 -118 316t-119 316l154 61l204 -545q110 137 223.5 280t223.5 280l135 -96q-65 -81 -134.5 -167.5t-133.5 -166.5q-63 -80 -123.5 -154.5t-124.5 -154.5q58 -154 118.5 -314.5 t118.5 -313.5l-154 -61l-203 540q-66 -81 -135 -169.5t-135 -169.5q-41 -51 -87 -108t-86 -108q-13 9 -30.5 21.5t-36.5 26t-37 26t-31 21.5z" />
<glyph unicode="Y" horiz-adv-x="981" d="M18 1328l153 62q26 -69 55 -148.5t55 -148.5q13 -35 24 -64.5t21.5 -58.5t22 -58.5t24.5 -64.5q51 66 101 129t101 128q57 72 118.5 149.5t118.5 149.5q13 -9 31 -21.5t37 -26t37 -26t31 -21.5l-525 -660q-34 -162 -68.5 -331.5t-68.5 -331.5l-164 21l138 668 q-60 160 -121.5 327t-120.5 327z" />
<glyph unicode="Z" horiz-adv-x="1201" d="M-12 80q0 25 18 55q128 148 254.5 296t254.5 297q100 117 197 230t200 232h-653l6 164h837q35 -10 53.5 -31.5t18.5 -47.5q0 -29 -27 -64q-104 -121 -207 -241t-207 -241q-64 -75 -123.5 -145t-118.5 -138.5t-118.5 -138t-123.5 -143.5h664q-1 -15 -2 -37t-1.5 -45 t-1.5 -44.5t-1 -37.5h-837q-39 6 -60.5 27.5t-21.5 52.5z" />
<glyph unicode="[" horiz-adv-x="756" d="M19 -305l329 1585l89 77h252l-34 -168h-156q-37 -178 -73.5 -352.5t-72.5 -348t-72.5 -348t-73.5 -352.5h156l-35 -168h-247z" />
<glyph unicode="\" horiz-adv-x="338" d="M2 1357h172l123 -1357h-176z" />
<glyph unicode="]" horiz-adv-x="696" d="M-19 -380l35 168h153q37 178 73.5 352.5t73 348t72.5 348t73 352.5h-154l34 168h243l67 -77l-330 -1589l-92 -71h-248z" />
<glyph unicode="^" horiz-adv-x="939" d="M-24 853l463 504h183l256 -504h-202l-173 341q-78 -85 -158 -171t-157 -170h-212z" />
<glyph unicode="_" horiz-adv-x="1051" d="M38 0l34 165h883l-34 -165h-883z" />
<glyph unicode="`" horiz-adv-x="459" d="M-49 1357h292l169 -228l-94 -77z" />
<glyph unicode="a" horiz-adv-x="1173" d="M39 387q0 41 6 80q8 51 24 98t43 92q32 53 71.5 92t88.5 75q70 51 154 81t167 48q62 13 131 22.5t138 9.5q74 0 137 -12q42 -13 58.5 -35t15.5 -64l-189 -892l-166 21l11 54q-84 -49 -179 -67q-27 -5 -54.5 -7.5t-56.5 -2.5q-106 0 -195 45t-150 145q-14 24 -24.5 52 t-16.5 55v-1q-8 29 -11 57t-3 54zM203 388q0 -28 5 -56t16 -53q13 -29 33.5 -55t48.5 -44h-1q41 -24 68 -30.5t52 -6.5q36 0 65.5 3.5t64.5 14.5q106 30 169 105t86 182l82 369q-12 1 -25 1h-25q-77 0 -154 -11t-168 -40q-38 -13 -75 -31t-72 -44q-35 -24 -60 -47.5 t-40 -43.5v1q-32 -47 -51 -102t-19 -112z" />
<glyph unicode="b" horiz-adv-x="1117" d="M21 90l267 1269h169l-91 -444q41 25 86 42t93 26q27 5 54.5 7.5t56.5 2.5q106 0 194.5 -45t149.5 -145q15 -25 25 -52.5t17 -54.5v1q8 -29 11 -57t3 -54q0 -41 -6 -80q-9 -51 -24.5 -98t-42.5 -92q-32 -53 -72.5 -96.5t-88.5 -79.5q-69 -51 -153 -81t-168 -48 q-62 -13 -131 -22t-137 -9q-38 0 -72 2.5t-66 8.5q-41 13 -58 35t-16 64zM201 147q11 -1 22 -1h22q112 0 222.5 20.5t205.5 75.5h-1q44 28 83 57t66 69q33 47 51.5 102.5t18.5 113.5q0 28 -5 56.5t-15 53.5q-14 29 -34.5 55t-48.5 44h1q-41 24 -68 30.5t-52 6.5 q-35 0 -64.5 -3.5t-64.5 -14.5q-103 -30 -167 -107t-89 -180q-20 -93 -41.5 -189t-41.5 -189z" />
<glyph unicode="c" horiz-adv-x="1056" d="M22 388q0 27 2.5 52t5.5 51l4 21q2 7 4.5 16t3.5 17v-1q3 10 6 21t6 21q30 73 79.5 140t113 121t138 90.5t152.5 48.5q37 6 79 6q60 0 117.5 -15t108.5 -44.5t94 -72.5t73 -98l-154 -65q-39 64 -103 97.5t-134 33.5q-53 0 -104 -17q-51 -16 -98 -43t-86.5 -63.5t-70 -81 t-49.5 -95.5v1q-6 -17 -10 -36l-6 -24l1 2q-3 -22 -5.5 -42.5t-2.5 -39.5q0 -17 2.5 -35.5t7.5 -36.5q14 -45 39 -77t58 -52.5t72 -30t80 -9.5q30 0 60.5 4.5t59.5 12.5h-1q53 16 103.5 49.5t96.5 79.5l137 -96q-64 -69 -138 -118.5t-151 -72.5q-41 -13 -81.5 -19t-81.5 -6 q-68 0 -132 17.5t-118.5 53t-96 89t-63.5 126.5q-10 30 -14 60.5t-4 59.5z" />
<glyph unicode="d" horiz-adv-x="1186" d="M23 386q0 41 6 80q9 51 24.5 98t42.5 92q31 51 72.5 96t88.5 80q71 51 153.5 81.5t167.5 47.5q47 10 97.5 17.5t104.5 10.5q11 1 23.5 1.5t27.5 0.5h35q16 0 43 -2q18 90 37.5 185t38.5 184h170q-16 -73 -40 -189t-58 -276q-32 -156 -79.5 -382t-110.5 -529l-165 20 l11 54q-82 -48 -179 -67q-27 -5 -54.5 -7.5t-56.5 -2.5q-106 0 -194.5 45t-149.5 145q-15 24 -25 52t-17 55v-1q-8 29 -11 57t-3 54zM188 388q0 -28 5 -56.5t15 -53.5q14 -29 34.5 -55t48.5 -44h-1q41 -24 67.5 -30.5t52.5 -6.5q35 0 64.5 3.5t64.5 14.5q51 15 93 42 t74 64.5t54.5 83.5t34.5 97l80 378h-40h-32t-32 -1q-95 -5 -189.5 -26.5t-175.5 -67.5h1q-44 -28 -83 -57t-66 -69q-33 -47 -51.5 -102.5t-18.5 -113.5z" />
<glyph unicode="e" horiz-adv-x="1102" d="M1 401q0 85 30 169t87 162q42 55 100.5 103t126.5 83.5t141 55.5q63 17 124 16h19q3 0 7 -0.5t7 -0.5q49 -2 104.5 -8t99.5 -29q10 -5 24.5 -13t24.5 -14q5 -5 9 -7q18 -11 27.5 -21t20.5 -23q2 -2 5.5 -6.5t5.5 -6.5q12 -14 16.5 -25t9.5 -28q1 -3 2 -5.5l3 -7.5 q10 -28 10 -58q0 -38 -15 -76t-40 -70.5t-57.5 -56t-68.5 -33.5q-107 -29 -213 -57t-213 -57q-61 -16 -112 -29.5t-111 -29.5q12 -48 39 -82.5t63.5 -56.5t80.5 -32.5t90 -10.5q48 0 98.5 12t92.5 34q48 26 94 64.5t88 86.5l117 -116q-46 -53 -102.5 -98.5t-119.5 -79 t-130.5 -52.5t-135.5 -19q-51 0 -99 9q-35 8 -74.5 20t-72.5 33q-53 33 -91 74t-63 87.5t-37 97t-12 102.5zM179 499q69 18 144.5 38.5t152 41t151.5 40.5t144 39q27 7 42 25.5t24 44.5v8q0 3 0.5 4t0.5 4q-2 5 -3.5 10t-3.5 10l-16 16q-47 27 -91 36.5t-100 9.5 q-69 0 -139 -26t-130.5 -71t-107 -104.5t-68.5 -125.5z" />
<glyph unicode="f" horiz-adv-x="615" d="M0 -387l5 155l26 18v-1q23 16 35.5 44t17.5 51h-1q24 118 48 233t47.5 229t47.5 228.5t48 233.5h-167l34 165h167q8 35 15.5 71t15.5 71q7 35 22 69t39 64t56.5 54.5t74.5 40.5q43 15 90 15q31 0 62 -9t58.5 -27.5t49.5 -47t37 -67.5l-155 -62q-6 18 -8.5 23.5t-4.5 9.5 q-13 11 -21.5 13.5t-21.5 2.5q-8 0 -21.5 -4t-27.5 -12v1q-23 -14 -37.5 -33t-25.5 -42l2 4q-8 -39 -14.5 -67.5t-13.5 -67.5h189l-34 -165h-189q-51 -243 -101 -482.5t-101 -482.5q-9 -38 -29 -78t-51 -73t-72 -54t-91 -21z" />
<glyph unicode="g" horiz-adv-x="1222" d="M9 -92l120 70l29 28q1 -4 2.5 -13t3 -19.5t3.5 -19.5t3 -13q12 -44 36 -75t55.5 -51.5t68.5 -30t77 -9.5q28 0 56.5 4.5t54.5 12.5q44 15 86.5 41t79.5 60.5t66.5 75.5t46.5 85q-16 -9 -31 -17t-31 -14v1q-29 -12 -58 -21.5t-56 -14.5t-54.5 -7.5t-55.5 -2.5 q-72 0 -137.5 21.5t-120.5 65.5q-24 20 -46 45.5t-42 57.5q-7 14 -14 27.5t-12 25.5q-6 14 -10 28t-6 25q-5 23 -8.5 46t-4.5 49v20q0 38 6 76q4 25 10 50t14 48q8 21 19 45.5t24 46.5q32 54 72 92q20 19 42.5 38.5t45.5 36.5q36 26 76 47.5t78 35.5q38 13 82.5 25.5 t84.5 20.5q63 13 133.5 22.5t139.5 9.5q8 0 16.5 -0.5t16.5 -0.5q25 -1 51.5 -4.5t52.5 -8.5q39 -12 54 -33q16 -21 16 -57v-8l-167 -777v1q-12 -80 -49.5 -153t-92 -133.5t-123.5 -105.5t-145 -69q-77 -24 -156 -24q-67 0 -130 18.5t-116.5 56t-94 93t-61.5 130.5zM274 372 q0 -6 1 -14q2 -22 7 -41.5t13 -39.5q6 -14 14.5 -28t19.5 -28l-1 1q22 -27 49 -44h-1q22 -12 38.5 -20t30.5 -11q24 -6 51 -6q17 0 33.5 1t31.5 3q17 2 33 5.5t33 8.5q51 15 94 41.5t74 63.5q32 38 53 83t33 99q20 92 41 184t41 185q-11 0 -21 0.5t-21 0.5q-47 0 -94.5 -4 t-95.5 -12q-63 -11 -139 -35.5t-148 -74.5q-35 -23 -60 -47t-40 -44q-31 -46 -50.5 -102t-19.5 -112v-13z" />
<glyph unicode="h" horiz-adv-x="1155" d="M14 0l280 1355h169l-91 -443q15 9 30.5 17t32.5 15v-1q29 12 59 21.5t57 14.5t54.5 7.5t55.5 2.5q71 0 136.5 -21.5t120.5 -65.5q24 -20 46.5 -45.5t41.5 -57.5q8 -15 14 -27.5t11 -25.5q5 -11 9 -24.5t8 -29.5q6 -25 8.5 -48.5t3.5 -46.5v-18q0 -36 -3 -72l-105 -507 h-168l108 523v-1q2 16 3.5 30.5t1.5 28.5v13t-1 14q-2 20 -7 41t-13 41q-12 28 -34 55q-11 14 -23 25t-25 19h1q-21 12 -38 19t-30 11q-14 3 -26 5t-26 2q-17 0 -33.5 -1t-31.5 -3q-31 -4 -65 -14q-51 -15 -95 -42t-74 -64q-29 -35 -52 -82.5t-34 -98.5l-111 -521h-165z" />
<glyph unicode="i" horiz-adv-x="493" d="M11 0l166 805h-123l34 165h290l-200 -970h-167zM262 1270q3 18 14 34.5t26.5 28.5t34 19t37.5 7q42 1 64 -27q17 -20 17 -49q0 -10 -2 -21q-4 -19 -14.5 -35.5t-25.5 -28.5t-33.5 -19t-37.5 -7q-42 0 -65 28q-17 21 -17 50q0 9 2 20z" />
<glyph unicode="j" horiz-adv-x="575" d="M-173 -388l34 169q96 0 149 44t65 103l182 875h-116l27 167h291l-219 -1050q-13 -63 -47.5 -118t-86.5 -100q-54 -44 -123.5 -67t-155.5 -23zM341 1268l1 1q4 18 15.5 34t26.5 28t33 19t36 7q42 0 65 -27q17 -20 17 -48q0 -10 -2 -22q-4 -19 -14.5 -35.5t-25.5 -28.5 t-33 -19t-37 -7q-42 0 -66 28q-18 22 -18 50q0 10 2 20z" />
<glyph unicode="k" horiz-adv-x="899" d="M8 0q41 201 85 412t86 413q13 62 26.5 128.5t28 134t28 134t26.5 128.5q16 -2 37.5 -5t44.5 -6t45 -5.5t37 -4.5l-129 -620q62 38 122.5 75.5t123.5 75.5q44 27 95.5 59.5t96.5 59.5q9 -13 21.5 -31t25.5 -37t25.5 -37t21.5 -31q-19 -12 -41 -25.5t-44.5 -27t-44 -27 t-40.5 -25.5q-38 -23 -69.5 -42.5t-68.5 -42.5q61 -159 125.5 -327t126.5 -326h-177l-217 563q-14 -8 -29.5 -17.5t-29.5 -17.5h1l-35 -21l-35 -21q-10 -51 -21.5 -105t-22.5 -105q-13 -64 -27.5 -138t-28.5 -138h-169z" />
<glyph unicode="l" horiz-adv-x="447" d="M-14 0l282 1357h169l-281 -1357h-170z" />
<glyph unicode="m" horiz-adv-x="1509" d="M-19 0l200 970h167l-12 -64q105 85 237 85q100 0 158.5 -38.5t79.5 -125.5q60 85 143 124.5t194 39.5q185 0 245 -148h-1q34 -78 34 -183q0 -39 -6 -87t-14 -92q-12 -57 -24.5 -118t-25 -123t-25 -122.5t-24.5 -117.5h-168l101 488q15 54 22 100t7 84q0 17 -1.5 34.5 t-4.5 32.5q-10 42 -45 64.5t-96 22.5q-109 0 -182 -94q-76 -99 -108 -251l-99 -481h-168l100 488q18 84 18 148q0 58 -12 102q-22 88 -124 88q-109 0 -189 -95h1q-80 -98 -112 -250l-99 -481h-167z" />
<glyph unicode="n" horiz-adv-x="1162" d="M19 -1l201 970h168l-11 -58q16 9 31.5 17t32.5 15v-1q29 12 58.5 21.5t56.5 14.5t54.5 7.5t55.5 2.5q72 0 137.5 -21.5t120.5 -65.5q24 -20 46 -45.5t42 -57.5q8 -15 14 -27.5t11 -25.5q5 -11 9 -24.5t8 -29.5q10 -49 12 -95q1 -23 0 -45t-4 -45l-104 -507h-168l108 523 v-1q2 16 3.5 30.5t1.5 28.5v13t-1 14q-2 20 -7 41t-14 41q-10 28 -34 55q-10 14 -22 25t-25 19h1q-22 12 -38.5 19t-29.5 11q-14 3 -26 5t-26 2q-17 0 -33.5 -1t-31.5 -3q-17 -2 -33 -5.5t-32 -8.5q-51 -15 -95 -42t-75 -64q-29 -35 -51.5 -82.5t-33.5 -98.5l-111 -521h-166 z" />
<glyph unicode="o" horiz-adv-x="1154" d="M36 383q0 28 2.5 53t5.5 51l4 20q2 8 4 16.5t4 16.5v-1q3 11 5.5 21.5t6.5 20.5q30 73 79.5 140t113 121t137.5 91t153 49q19 2 39 3.5t40 1.5q79 0 152 -24.5t130.5 -70.5t96 -113.5t49.5 -152.5q3 -24 3 -52q0 -29 -2.5 -57.5t-6.5 -51.5q-16 -80 -55.5 -153t-96 -134 t-126.5 -106.5t-147 -69.5q-41 -13 -81.5 -18.5t-81.5 -5.5q-68 0 -132 17t-118.5 52.5t-96 89t-63.5 126.5q-10 31 -14 61t-4 59zM200 384q0 -17 2.5 -35t8.5 -37q14 -45 39 -77t57.5 -52.5t71.5 -30t80 -9.5q31 0 61.5 5t59.5 13h-1q56 16 107 49t92 78t69.5 98.5 t40.5 111.5q8 37 8 71v17q0 9 -2 18q-6 54 -30 94.5t-59.5 68.5t-80 42t-92.5 14q-26 0 -52.5 -4.5t-52.5 -12.5q-50 -16 -97 -43.5t-86.5 -64t-70.5 -81t-49 -94.5v1q-6 -17 -10 -36q-2 -5 -3.5 -11.5t-3.5 -12.5l1 2q-3 -22 -5.5 -42t-2.5 -40z" />
<glyph unicode="p" horiz-adv-x="1220" d="M22 -386q28 134 57 275t57 275q17 80 32.5 154.5t31 148t31 148t32.5 155.5q-16 -7 -33 -15t-37 -19l-73 150q47 24 91.5 41.5t89.5 28.5q2 13 5 26.5t6 27.5q1 4 3.5 16t3.5 16l165 -21q-2 -11 -4.5 -22.5t-4.5 -13.5h16q32 2 63.5 3.5t62.5 1.5q50 0 99.5 -4.5 t100.5 -17.5l-1 1q42 -10 76 -28.5t68 -40.5q32 -22 56 -49.5t48 -58.5q37 -50 53 -106.5t16 -116.5q0 -67 -19 -134t-52 -124q-42 -73 -106.5 -133t-141.5 -103t-163.5 -66.5t-172.5 -23.5q-51 0 -102.5 10t-99.5 27q-22 -103 -45 -214.5t-44 -214.5q-16 2 -37.5 4.5 t-45 5.5t-45 6t-37.5 5zM306 164q26 -9 55 -13.5t61 -7.5q25 -3 49 -3q67 0 133 17.5t125 50.5t108 80t82 106q23 41 35 84t12 85q0 40 -12 78t-35 70.5t-58 57.5t-81 39q-34 10 -70.5 14.5t-74.5 4.5q-32 0 -63 -2t-63 -4q-21 -2 -34.5 -3t-33.5 -4q-17 -83 -34 -163.5 t-33.5 -161t-33 -161.5t-34.5 -164z" />
<glyph unicode="q" horiz-adv-x="1163" d="M47 381q0 41 6 80q8 51 24 98t43 92q31 53 71.5 96.5t88.5 79.5q70 51 153.5 81t167.5 48q62 13 131 22t138 9q37 0 71 -2.5t66 -8.5q41 -13 58 -35t16 -64l-267 -1269h-169l91 444q-81 -50 -179 -68q-27 -5 -54.5 -7.5t-55.5 -2.5q-106 0 -195 45t-150 145 q-14 25 -24.5 52.5t-17.5 54.5v-1q-13 56 -13 111zM211 383q0 -28 5 -56.5t16 -53.5q13 -29 33.5 -55t48.5 -44h-1q41 -24 68 -30.5t52 -6.5q36 0 65.5 3.5t63.5 14.5q103 30 167 107t89 180q19 92 40.5 188t41.5 190q-11 0 -21.5 0.5t-21.5 0.5q-112 0 -222.5 -20.5 t-205.5 -75.5h1q-43 -28 -82.5 -57t-66.5 -69q-33 -47 -51.5 -102.5t-18.5 -113.5z" />
<glyph unicode="r" horiz-adv-x="950" d="M18 0l200 970h169l-26 -129q149 129 332 129h222l-44 -217q-56 26 -104.5 39t-93.5 13q-133 0 -248 -95q-111 -94 -139 -229l-99 -481h-169z" />
<glyph unicode="s" horiz-adv-x="1049" d="M21 282l157 35q-5 -32 2.5 -57t23 -43.5t35.5 -30.5t40 -19h-1q39 -8 73.5 -14t68.5 -6q21 0 41 3q45 7 91 19t86 35q56 32 68 73q5 17 5 28q0 21 -14 35h1q-28 28 -78 41q-40 14 -88 19q-23 3 -56.5 7.5t-78.5 10.5q-47 7 -82 15.5t-61 17.5q-26 11 -51 30.5t-50 49.5 q-42 49 -42 120q0 9 0.5 16t1.5 15q5 44 16 78t30 59q34 46 89.5 83.5t127.5 55.5q36 10 73.5 16.5t69.5 10.5q15 1 30.5 1.5t32.5 0.5q52 0 102 -8t93 -25q44 -15 81.5 -38t63.5 -56q26 -32 40 -75q10 -31 10 -70q0 -14 -1 -29l-153 -34q-1 35 -9.5 60t-23 42t-33.5 28 t-41 19q-39 11 -91 19q-41 6 -80 5h-21q-48 -2 -94 -14.5t-85 -39.5q-49 -32 -58 -80q-3 -23 0.5 -40.5t14.5 -27.5q11 -12 28 -21.5t34 -14.5q21 -7 56 -13t80 -11q47 -5 83.5 -8t59.5 -7q24 -4 50 -12t55 -20q29 -14 55 -36t47 -51q33 -45 33 -113q0 -14 -1 -29.5 t-4 -29.5v1q-18 -108 -135 -178h1q-78 -51 -163.5 -74.5t-170.5 -23.5q-52 0 -101.5 7.5t-94.5 24.5q-45 15 -81 37.5t-60 54.5q-26 33 -38 76q-10 35 -10 78q0 11 1 22z" />
<glyph unicode="t" horiz-adv-x="621" d="M10 805l34 165q71 0 112 21.5t51 58.5q5 26 12.5 60t12.5 60h167l-42 -200h234l-34 -165h-234l-117 -564q-6 -32 10 -54t48 -22h161l-34 -165h-154q-103 0 -161 73q-40 51 -40 122q0 13 1 27.5t4 26.5q29 139 57.5 277.5t57.5 278.5h-146z" />
<glyph unicode="u" horiz-adv-x="1162" d="M35 372q-1 23 0 44.5t4 44.5l104 508h168l-108 -523v1q-2 -16 -3.5 -30.5t-1.5 -28.5v-13t1 -14q4 -41 20 -82q7 -15 15 -29.5t19 -26.5q10 -12 21.5 -22.5t27.5 -20.5h-1q21 -12 37.5 -19t30.5 -11q12 -3 25 -5t26 -2q17 0 33.5 1t31.5 3q17 2 33 5.5t33 8.5 q51 15 94.5 42t74.5 64q29 35 51.5 82.5t34.5 98.5l110 521h166l-205 -987l-164 21l11 54q-16 -9 -31.5 -17t-31.5 -15v1q-29 -12 -59 -21.5t-57 -14.5t-54.5 -7.5t-55.5 -2.5q-72 0 -137.5 21.5t-120.5 65.5q-24 20 -46 45.5t-41 57.5q-8 14 -14.5 27t-11.5 26 q-6 15 -10 28.5t-7 24.5q-10 45 -12 96z" />
<glyph unicode="v" horiz-adv-x="1025" d="M9 942l153 61l244 -783q79 110 157 216.5t157 216.5q10 14 22.5 34.5t23.5 43t19 45.5t8 42q0 18 -12.5 33t-41.5 26l63 153q42 -16 70.5 -37t47 -46t27.5 -53t11 -58q1 -9 1 -19q0 -49 -18 -97q-21 -58 -54 -112q-67 -94 -123.5 -173t-103.5 -144q-96 -133 -151 -210 l-60 -84q-17 -22 -36.5 -32t-37.5 -10q-23 0 -42.5 14t-33.5 42z" />
<glyph unicode="w" horiz-adv-x="1304" d="M24 938l162 34l105 -679q61 99 119.5 194t119.5 195q-9 61 -20.5 130t-21.5 130l161 34l114 -680q53 91 105.5 180t104.5 180q2 2 5 7l6 10q10 16 22.5 37t23.5 43.5t18.5 44.5t7.5 41q0 17 -12.5 31.5t-41.5 25.5l61 153q29 -11 49 -22t37 -25q23 -17 37.5 -40.5 t22.5 -49.5q6 -19 8.5 -37t2.5 -35q0 -34 -8.5 -66.5t-21.5 -63.5t-29.5 -60.5t-32.5 -57.5q-2 -2 -5 -6.5t-5 -8.5q-81 -140 -165 -282.5t-165 -281.5q-17 -21 -36 -30t-36 -9q-23 0 -43 14t-35 44l-67 405q-65 -105 -128.5 -210t-128.5 -210q-17 -21 -35.5 -30t-36.5 -9 q-23 0 -43 14t-35 44z" />
<glyph unicode="x" horiz-adv-x="1084" d="M6 60q103 110 205.5 220.5t205.5 221.5q-26 50 -50 97t-50 98q-27 52 -58 111t-57 111l141 86q16 -32 34.5 -67.5l37 -71t36.5 -70.5t34 -67q8 -16 14 -27.5t11.5 -22.5l11.5 -23t14 -27q44 47 90 96.5t92.5 99t92 98.5t88.5 96l118 -118q-68 -72 -140.5 -150 t-139.5 -150q-32 -35 -59 -64t-59 -64q54 -106 111.5 -216.5t112.5 -215.5q-14 -9 -32.5 -20t-38.5 -23t-39 -23.5t-32 -19.5q-38 75 -81.5 157.5t-81.5 157.5q-7 13 -11.5 22t-8 17t-8 16.5t-11.5 20.5q-42 -45 -82 -89t-82 -89q-50 -54 -106 -113t-105 -112z" />
<glyph unicode="y" horiz-adv-x="1014" d="M6 961l154 61l243 -783q79 110 157 216.5t157 216.5q10 14 22.5 34.5t23.5 43t19 45.5t8 43q0 17 -12.5 32t-41.5 26l63 154q42 -16 70.5 -37t47 -46t27.5 -53.5t11 -58.5q1 -9 1 -19q0 -48 -18 -97q-21 -58 -54 -112l-425 -591q-8 -96 -16 -193t-16 -193l-5 -50 q-16 2 -37.5 4.5t-44.5 5.5t-44.5 6t-37.5 5q5 52 9.5 112.5t9.5 113.5q5 48 8.5 95t8.5 95q-72 229 -144.5 462.5t-143.5 461.5z" />
<glyph unicode="z" horiz-adv-x="1208" d="M22 80q0 23 19 56q179 156 356.5 312t355.5 312q11 9 16 13.5t8.5 7.5t9 7.5t16.5 14.5h-554l6 164h777q35 -11 53.5 -32t18.5 -47q0 -31 -28 -65q-100 -88 -200 -175t-200 -175q-48 -42 -93 -81t-89 -77.5t-89 -78t-94 -81.5q41 -5 81.5 -11.5t75.5 -13.5q11 -2 21 -4 t21 -4q32 -7 61 -12.5t57 -7.5q8 -1 14 -1h14q75 0 153 22t156 48q4 -15 10.5 -36t13 -43t13 -43t11.5 -36q-90 -29 -177 -51.5t-175 -24.5q-23 0 -49.5 2t-53.5 6t-52.5 8.5t-46.5 9.5q-18 4 -38 7.5t-39 7.5h1q-69 11 -138.5 15.5t-141.5 6.5q-38 6 -59.5 27.5t-21.5 52.5 z" />
<glyph unicode="{" horiz-adv-x="565" d="M13 -207q0 64 18.5 187.5t55.5 297.5q5 35 -13 70.5t-60 68.5l29 138q116 70 131 144q88 426 149 528q61 103 211 135l-6 -167q-40 -7 -70 -39q-14 -16 -32.5 -78.5t-40.5 -175.5q-23 -113 -43.5 -189.5t-38.5 -118.5q-17 -33 -38.5 -62t-49.5 -50q17 -23 28 -52t13 -62 q2 -41 -9.5 -117.5t-36.5 -192.5q-36 -167 -36 -225q0 -23 2 -25q13 -27 57 -36l-61 -163q-67 16 -106.5 51.5t-49.5 87.5q-3 16 -3 45z" />
<glyph unicode="|" horiz-adv-x="542" d="M-16 -376l360 1733h170l-360 -1733h-170z" />
<glyph unicode="}" horiz-adv-x="565" d="M-15 -395l6 167q40 7 69 39h1q14 16 32.5 80t40.5 173q23 112 44 190.5t39 118.5q34 69 88 112q-21 23 -30 50.5t-11 63.5q-3 80 45 309q19 84 27.5 140t8.5 86q0 18 -3 24q-13 28 -55 37l61 163q137 -32 156 -140v1q3 -17 3 -45q0 -64 -18.5 -187.5t-55.5 -297.5 q-6 -35 12 -70.5t61 -68.5l-28 -138q-117 -70 -132 -143q-45 -216 -82.5 -347t-66.5 -182q-61 -103 -212 -135z" />
<glyph unicode="~" horiz-adv-x="771" d="M17 1012q69 123 133 157q61 33 126 33q34 0 66 -12t58 -34q21 -18 40.5 -27.5t35.5 -8.5q27 2 82 83l147 -60q-113 -195 -260 -195q-85 0 -135 49q-36 38 -62 36q-38 0 -87 -87z" />
<glyph unicode="&#xa1;" horiz-adv-x="455" d="M-17 0l220 1059h180l-220 -1059h-180zM241 1234q-4 17 0 36q8 35 37 59t64 24q19 0 35 -7t26 -19.5t14 -29t0 -35.5q-3 -18 -13 -33t-24 -26.5t-31 -18t-35 -6.5q-19 0 -34.5 7t-25 19.5t-13.5 29.5z" />
<glyph unicode="&#xa2;" horiz-adv-x="979" d="M28 517q0 25 3 49t8 49q13 63 41 121.5t72 110.5q42 51 96 92t115 70q38 17 76.5 29.5t78.5 18.5q7 33 14.5 71.5t14.5 70.5h171l-29 -143q75 -11 129.5 -42t101.5 -84l-46 -224l-34 -1q-37 151 -186 186l-117 -559q77 14 143 60.5t119 126.5l34 -13l-46 -220 q-72 -55 -141.5 -86t-143.5 -39q-8 -38 -16 -81t-16 -80h-171l34 165q-79 14 -138.5 50.5t-101.5 92.5q-31 46 -48 99t-17 110zM197 542q0 -72 36 -121q23 -32 55 -53t80 -32l115 548q-49 -14 -93 -36.5t-79 -54.5q-41 -38 -68 -85t-39 -101q-4 -17 -5.5 -34.5t-1.5 -30.5z " />
<glyph unicode="&#xa3;" horiz-adv-x="1035" d="M8 149q14 62 76 103v-1q65 46 160 46h17t12 -1q3 9 6.5 22t5.5 26l64 302h-129l34 168h129q17 77 32 152.5t32 152.5q21 107 94 163q64 49 154 49q53 0 136 -27l-86 -157q-29 10 -48.5 14t-32.5 4q-36 0 -48 -54l-62 -297h102l-34 -168h-103q-16 -79 -32 -154.5 t-33 -154.5q-6 -32 -12.5 -58.5t-14.5 -45.5q99 -64 171 -64q58 0 109 8t97 23q28 10 61 38l109 -113q-79 -75 -205 -105q-46 -10 -94.5 -15t-102.5 -5q-115 0 -227 88q-73 -88 -161 -88q-95 0 -142 44h1q-47 41 -35 105zM171 149q-1 -4 22 -4q11 0 25 17q-44 -2 -47 -13z " />
<glyph unicode="&#xa4;" horiz-adv-x="949" d="M18 351l86 70q-20 52 -20 110q0 20 2 38.5t5 37.5q21 99 89 185l-55 69l142 117l54 -69q50 26 97 37.5t97 11.5q49 0 94.5 -13t83.5 -37q20 17 43 36t40 35l99 -123l-85 -71q11 -27 14.5 -55.5t3.5 -58.5q0 -36 -6 -72q-11 -50 -31.5 -94.5t-57.5 -90.5q14 -16 29.5 -36 t26.5 -33l-142 -116l-54 68q-48 -23 -97 -36t-100 -13q-49 0 -93.5 13.5t-82.5 36.5q-20 -17 -43 -36.5t-40 -33.5zM255 558q0 -24 8.5 -47.5t21.5 -41.5q40 -52 117 -52q82 0 147 55q68 57 83 135q6 27 6 47q0 47 -29 84q-40 52 -122 52q-79 0 -146 -56q-30 -26 -51 -62 t-30 -73q-5 -23 -5 -41z" />
<glyph unicode="&#xa5;" horiz-adv-x="1094" d="M14 156l34 168h227q5 19 8.5 35.5t8.5 39.5h-228l34 168h228q6 30 12 56t12 57q-63 163 -130.5 338.5t-130.5 338.5h188l190 -508q100 127 202 254.5t203 253.5h197l-550 -684q-3 -16 -5.5 -28l-5 -24t-5.5 -25t-6 -29h203l-34 -168h-203q-5 -19 -8 -35.5t-8 -39.5h203 l-34 -168h-204q-18 -83 -35.5 -168.5t-34.5 -167.5h-171l70 336h-227z" />
<glyph unicode="&#xa6;" horiz-adv-x="542" d="M-16 -376l152 733h169l-151 -733h-170zM182 572l162 785h170l-163 -785h-169z" />
<glyph unicode="&#xa7;" horiz-adv-x="900" d="M27 36q0 24 3.5 52t10.5 61h190q-18 -22 -24.5 -34t-8.5 -21t-3 -19t-1 -19q0 -12 2.5 -23t8.5 -19q22 -34 86 -34q72 0 111 38v-1q30 30 44 92q2 18 -8 39.5t-35 44.5h1q-57 52 -115 103.5t-115 103.5q-49 44 -49 121q0 18 2 35t6 35q22 103 99 174q52 47 120 69 q-18 17 -37 34.5t-38 34.5q-47 44 -47 121q0 16 1.5 30.5t3.5 29.5q27 127 120 200q89 73 222 73q134 0 198 -80q45 -54 45 -142q0 -24 -3.5 -51.5t-10.5 -60.5h-186q8 12 12.5 20t7.5 13.5t4 9t3 8.5q-1 -2 -0.5 0.5t1.5 4.5v-1q2 10 3 19.5t1 18.5q0 73 -101 73 q-68 0 -106 -35v1q-32 -32 -45 -90q-7 -34 6 -57q5 -11 12 -20t15 -16l166 -144q43 -38 69 -79t37 -83q3 -11 4 -21.5t1 -21.5q0 -31 -7 -62q-14 -63 -56 -114.5t-114 -89.5l1 1q-11 -7 -24.5 -13t-25.5 -10q21 -20 42.5 -38t41.5 -37h-1q52 -46 52 -117q0 -10 -1 -21 t-3 -21q-14 -65 -45.5 -118.5t-79.5 -92.5v1q-97 -79 -226 -79q-111 0 -174 56t-63 168zM299 580q-9 -95 97 -95q65 0 104 31l-1 -1q28 21 46 72q3 49 -21 75t-78 26q-63 0 -100 -31q-31 -28 -47 -77z" />
<glyph unicode="&#xa8;" horiz-adv-x="726" d="M46.5 1003q-4.5 22 1.5 47q9 46 48 81q38 35 87 35q25 0 45 -10t32.5 -27t17 -39.5t-0.5 -47.5q-10 -45 -49 -79q-41 -32 -86 -32q-26 0 -46 9t-32.5 25t-17 38zM396 1003q-5 22 1 47q5 24 18.5 45t32 36.5t40.5 25t46 9.5q25 0 45 -10t33 -27t17.5 -39.5t-0.5 -47.5 q-5 -23 -18 -43.5t-31.5 -35.5t-41 -23.5t-45.5 -8.5q-26 0 -46.5 9t-33 25t-17.5 38z" />
<glyph unicode="&#xa9;" horiz-adv-x="1578" d="M60 536q0 36 4 72.5t12 73.5q31 137 105.5 257.5t191.5 216.5v-1q238 195 515 195q284 0 442 -198q116 -144 116 -334q0 -35 -4 -71.5t-12 -72.5q-31 -137 -105 -258.5t-192 -218.5q-239 -197 -517 -197q-285 0 -442 201q-114 147 -114 335zM220 561q0 -142 87 -253v1 q121 -150 333 -150q220 0 403 152q91 77 148.5 170t80.5 201q5 29 8 56.5t3 52.5q0 142 -87 253q-118 151 -332 151q-135 0 -274 -71q-69 -35 -126 -82t-105 -107v1q-96 -121 -126 -262q-13 -58 -13 -113zM285 572q0 50 11 105q41 197 203 327q159 128 358 128 q190 0 307 -132l-46 -224l-34 -1q-24 92 -92 142q-69 52 -160 52q-133 0 -240 -86q-53 -42 -85 -95t-46 -119q-9 -39 -9 -72q0 -82 48 -139q69 -81 200 -81q99 0 188 51q90 50 152 147l33 -14l-46 -221q-167 -126 -353 -126q-201 0 -309 129q-80 98 -80 229z" />
<glyph unicode="&#xab;" horiz-adv-x="1046" d="M-2 525l573 492l-49 -236l-253 -266q35 -66 72 -131.5t72 -130.5l-46 -224zM400 525l573 492l-49 -236l-253 -266q35 -66 72 -131.5t72 -130.5l-46 -224z" />
<glyph unicode="&#xac;" horiz-adv-x="977" d="M-16 676l35 169h869l-100 -474h-169l63 305h-698z" />
<glyph unicode="&#xad;" horiz-adv-x="704" d="M36 516l34 165h550l-34 -165h-550z" />
<glyph unicode="&#xae;" horiz-adv-x="1578" d="M60 536q0 36 4 72.5t12 73.5q31 137 105.5 257.5t191.5 216.5v-1q238 195 515 195q284 0 442 -198q116 -144 116 -334q0 -35 -4 -71.5t-12 -72.5q-31 -137 -105 -258.5t-192 -218.5q-239 -197 -517 -197q-285 0 -442 201q-114 147 -114 335zM220 561q0 -142 87 -253v1 q121 -150 333 -150q88 0 169 23.5t157 72.5h-141l-94 195h-108q-10 -47 -20.5 -98.5t-19.5 -96.5h-171l179 870q0 -1 -1 -1q-69 -35 -126 -82t-105 -107v1q-96 -121 -126 -262q-13 -58 -13 -113zM607 1132l258 3q137 2 217 -107q56 -75 56 -169q0 -35 -8 -72 q-39 -193 -220 -289q23 -48 50.5 -104.5t51.5 -106.5q8 6 15.5 12t15.5 12q91 77 148.5 170t80.5 201q5 29 8 56.5t3 52.5q0 142 -87 253q-118 151 -332 151q-127 0 -257 -63zM659 620h111q63 0 121 52h-1q29 26 47 58t26 65q5 22 5 39q0 23 -6.5 42t-18.5 36 q-17 23 -44 37.5t-59 19.5q-32 -1 -55.5 -2t-54.5 -2z" />
<glyph unicode="&#xaf;" horiz-adv-x="959" d="M42 1192l34 165h787l-34 -165h-787z" />
<glyph unicode="&#xb0;" horiz-adv-x="691" d="M37 1027q0 31 6 61q23 114 119 191q96 78 211 78q118 0 184 -81q50 -61 50 -138q0 -14 -1.5 -29.5t-4.5 -28.5q-11 -57 -42.5 -106t-79.5 -88q-49 -38 -102 -57.5t-110 -19.5q-117 0 -183 81q-23 29 -35 64t-12 73zM207 1055q0 -14 4.5 -26.5t12.5 -22.5q24 -29 70 -29 q48 0 90 32q42 31 51 79q9 41 -18 71q-29 30 -71 30q-43 0 -87 -33h1q-41 -34 -50 -76q-3 -15 -3 -25z" />
<glyph unicode="&#xb1;" horiz-adv-x="897" d="M-8 374l35 168h281l58 274h-273l34 168h273q14 69 30 145t30 143h171l-60 -288h269l-34 -168h-269q-14 -65 -29.5 -137.5t-27.5 -136.5h272l-35 -168h-725z" />
<glyph unicode="&#xb4;" horiz-adv-x="594" d="M18 1135l257 222h305l-493 -305z" />
<glyph unicode="&#xb5;" horiz-adv-x="1097" d="M5 -276q37 46 72.5 113t71.5 155q36 93 89.5 280.5t123.5 471.5h165q-17 -85 -25.5 -157.5t-8.5 -135.5q0 -30 1.5 -60t5.5 -59q20 -163 80 -163q65 0 155 170q49 88 84.5 189t59.5 216h167q-46 -270 -71 -454.5t-30 -289.5h-169q2 27 6 61.5t9 70.5q-113 -132 -237 -132 q-132 0 -189 140q-63 -218 -132 -351t-128 -179z" />
<glyph unicode="&#xb6;" horiz-adv-x="964" d="M39 559q0 43 9 85q27 129 118 225h-1q43 45 93 71q29 14 54.5 22t48.5 8h546l-34 -165h-139q-42 -198 -83 -402.5t-83 -402.5h-168l166 805h-80q-41 -198 -82 -402.5t-83 -402.5h-168l64 312q-45 6 -81 31t-60 69q-37 68 -37 147z" />
<glyph unicode="&#xb7;" horiz-adv-x="356" d="M31.5 506.5q-5.5 23.5 0.5 50.5q5 26 18 49t36 40q21 17 44.5 26t50.5 9q28 0 50 -10.5t35.5 -28t18.5 -41.5t-1 -51q-6 -26 -19 -48.5t-35 -39.5v1q-44 -35 -94 -35q-27 0 -49 10t-36 27.5t-19.5 41z" />
<glyph unicode="&#xb8;" horiz-adv-x="386" d="M2 39h176q7 -14 20 -27t35 -28h-1q13 -8 31 -22t41 -37q21 -32 21 -75q0 -21 -5 -46q-23 -101 -151 -127q-30 -6 -74 -6l-53 139q20 12 49.5 21.5t66.5 14.5q-5 8 -17.5 22t-31.5 36v-1q-15 17 -42 50.5t-65 85.5z" />
<glyph unicode="&#xbb;" horiz-adv-x="1047" d="M16 21l48 237l252 262q-35 66 -71 134t-71 134l46 224l347 -493zM418 23l49 235l253 262q-35 66 -71.5 134t-71.5 134l46 223l368 -492z" />
<glyph unicode="&#xbf;" horiz-adv-x="801" d="M11 278q0 47 12 107h171q-8 -31 -10.5 -52t-2.5 -34t3 -28l-1 1q24 -104 145 -104q86 0 142 44q32 24 53 64t32 94q9 48 -25 78l2 -2q-32 21 -56.5 36t-41.5 25q-76 52 -103 122q-20 54 -20 122q0 58 14 128l38 186h168l-37 -182q-8 -41 -11.5 -72t-1.5 -52 q4 -79 44 -100l-1 1q23 -12 47 -24.5t48 -23.5q61 -34 85 -75q29 -46 29 -113q0 -41 -9 -84q-30 -143 -154 -241q-123 -99 -268 -99q-148 0 -231 101q-60 73 -60 177zM404 1273q3 18 13 33t23.5 26.5t30 18t34.5 6.5q19 0 34.5 -7t26 -19.5t14.5 -29t0 -35.5 q-8 -35 -38 -59.5t-65 -24.5q-39 0 -60 26.5t-13 64.5z" />
<glyph unicode="&#xc0;" horiz-adv-x="1180" d="M60 13q174 334 351 674t352 676q16 26 36 38.5t42 12.5q26 0 48 -18.5t32 -53.5q35 -336 69.5 -677.5t68.5 -677.5q-16 -1 -37.5 -2t-45 -1.5t-45 -1t-37.5 -0.5q-14 131 -27.5 261t-26.5 261h-339q-72 -138 -146.5 -282.5t-146.5 -281.5zM176 1722h292l169 -228l-94 -77 zM587 668h238q-5 53 -11 105.5t-11 106.5l-18 169q-26 -49 -50 -95.5l-48 -93t-49 -94t-51 -98.5z" />
<glyph unicode="&#xc1;" horiz-adv-x="1166" d="M53 13q174 334 351 674t352 676q16 26 36 38.5t42 12.5q26 0 48 -18.5t32 -53.5q35 -336 69.5 -677.5t68.5 -677.5q-16 -1 -37.5 -2t-45 -1.5t-45 -1t-37.5 -0.5q-14 131 -27.5 261t-26.5 261h-339q-72 -138 -146.5 -282.5t-146.5 -281.5zM542 1505l257 222h305 l-493 -305zM580 668h238q-5 53 -11 105.5t-11 106.5l-18 169q-26 -49 -50 -95.5l-48 -93t-49 -94t-51 -98.5z" />
<glyph unicode="&#xc2;" horiz-adv-x="1166" d="M-14 13q174 334 351 674t352 676q16 26 36 38.5t42 12.5q26 0 48 -18.5t32 -53.5q35 -336 69.5 -677.5t68.5 -677.5q-16 -1 -37.5 -2t-45 -1.5t-45 -1t-37.5 -0.5q-14 131 -27.5 261t-26.5 261h-339q-72 -138 -146.5 -282.5t-146.5 -281.5zM250 1415l279 302h183 l154 -302h-204l-70 138q-32 -35 -65 -70.5t-63 -67.5h-214zM513 668h238q-5 53 -11 105.5t-11 106.5l-18 169q-26 -49 -50 -95.5l-48 -93t-49 -94t-51 -98.5z" />
<glyph unicode="&#xc3;" horiz-adv-x="1166" d="M-49 13q174 334 351 674t352 676q16 26 36 38.5t42 12.5q26 0 48 -18.5t32 -53.5q35 -336 69.5 -677.5t68.5 -677.5q-16 -1 -37.5 -2t-45 -1.5t-45 -1t-37.5 -0.5q-14 131 -27.5 261t-26.5 261h-339q-72 -138 -146.5 -282.5t-146.5 -281.5zM275 1495q32 60 70 102.5 t76 62.5q25 12 53.5 19t57.5 7q32 0 63.5 -11.5t62.5 -33.5h-1q54 -37 77 -37q31 0 84 84l146 -58q-113 -197 -262 -197q-49 0 -96 25l1 -1q-4 2 -21.5 14.5t-47.5 34.5q-18 11 -32 11q-35 0 -86 -85zM478 668h238q-5 53 -11 105.5t-11 106.5l-18 169q-26 -49 -50 -95.5 l-48 -93t-49 -94t-51 -98.5z" />
<glyph unicode="&#xc4;" horiz-adv-x="1166" d="M-25 13q174 334 351 674t352 676q16 26 36 38.5t42 12.5q26 0 48 -18.5t32 -53.5q35 -336 69.5 -677.5t68.5 -677.5q-16 -1 -37.5 -2t-45 -1.5t-45 -1t-37.5 -0.5q-14 131 -27.5 261t-26.5 261h-339q-72 -138 -146.5 -282.5t-146.5 -281.5zM339.5 1503q-4.5 22 1.5 47 q9 46 48 81q38 35 87 35q25 0 45 -10t32.5 -27t17 -39.5t-0.5 -47.5q-10 -45 -49 -79q-41 -32 -86 -32q-26 0 -46 9t-32.5 25t-17 38zM502 668h238q-5 53 -11 105.5t-11 106.5l-18 169q-26 -49 -50 -95.5l-48 -93t-49 -94t-51 -98.5zM689 1503q-5 22 1 47q5 24 18.5 45 t32 36.5t40.5 25t46 9.5q25 0 45 -10t33 -27t17.5 -39.5t-0.5 -47.5q-5 -23 -18 -43.5t-31.5 -35.5t-41 -23.5t-45.5 -8.5q-26 0 -46.5 9t-33 25t-17.5 38z" />
<glyph unicode="&#xc5;" horiz-adv-x="1166" d="M34 13q174 334 351 674t352 676q16 26 36 38.5t42 12.5q26 0 48 -18.5t32 -53.5q35 -336 69.5 -677.5t68.5 -677.5q-16 -1 -37.5 -2t-45 -1.5t-45 -1t-37.5 -0.5q-14 131 -27.5 261t-26.5 261h-339q-72 -138 -146.5 -282.5t-146.5 -281.5zM439 1440q0 18 3 35 q15 67 76 119q62 50 130 50q77 0 118 -51h-1q16 -20 24.5 -42t8.5 -48q0 -12 -1 -19.5t-3 -16.5q-8 -36 -26.5 -65.5t-50.5 -55.5q-62 -47 -132 -47q-74 0 -115 51h1q-32 41 -32 90zM559 1467q-5 -22 7 -37t35 -15q26 0 49 17t27 43q5 22 -8.5 37t-35.5 15q-25 0 -47 -17.5 t-27 -42.5zM561 668h238q-5 53 -11 105.5t-11 106.5l-18 169q-26 -49 -50 -95.5l-48 -93t-49 -94t-51 -98.5z" />
<glyph unicode="&#xc6;" horiz-adv-x="1986" d="M-24 0l1086 1357h837l-33 -159h-642q-10 -50 -20 -97t-19.5 -93t-19.5 -92.5t-20 -97.5h516l-35 -169h-516q-26 -126 -50.5 -243.5t-50.5 -244.5h642l-33 -161h-813l89 433h-368q-86 -107 -174.5 -216.5t-174.5 -216.5h-201zM661 600h267l96 457q-47 -59 -91 -114.5 t-88.5 -111.5t-90 -113t-93.5 -118z" />
<glyph unicode="&#xc7;" horiz-adv-x="1120" d="M2 395q0 31 3.5 61t9.5 60l69 335q15 78 49 149t86 137q52 67 109 113.5t120 74.5q125 55 232 55q111 0 211 -55q104 -57 155 -193q32 -84 27 -202h-162q1 115 -49 186q-69 99 -208 99q-142 0 -256 -102q-54 -49 -91 -115t-54 -139q-18 -90 -38.5 -183.5t-38.5 -183.5 q-5 -24 -7.5 -46t-2.5 -42q0 -48 12.5 -88t35.5 -75v1q70 -98 209 -98q67 0 134.5 28.5t121.5 73.5q39 36 71.5 83t54.5 100h167q-23 -59 -52 -112t-63 -95q-103 -132 -229 -188q-123 -55 -231 -55q-111 0 -211 55q-104 57 -155 193q-29 81 -29 168zM261 73h176 q7 -14 20 -27t35 -28h-1q13 -8 31 -22t41 -37q21 -32 21 -75q0 -21 -5 -46q-23 -101 -151 -127q-30 -6 -74 -6l-53 139q20 12 49.5 21.5t66.5 14.5q-5 8 -17.5 22t-31.5 36v-1q-15 17 -42 50.5t-65 85.5z" />
<glyph unicode="&#xc8;" horiz-adv-x="960" d="M-95 0l282 1357h810l-34 -165h-643q-10 -50 -20 -96.5t-19.5 -92t-19.5 -92t-20 -97.5h517l-34 -165h-518q-13 -63 -25.5 -122.5t-24.5 -118.5t-24 -119t-25 -124h643l-34 -165h-811zM-90 1720h292l169 -228l-94 -77z" />
<glyph unicode="&#xc9;" horiz-adv-x="960" d="M-144 0l282 1357h810l-34 -165h-643q-10 -50 -20 -96.5t-19.5 -92t-19.5 -92t-20 -97.5h517l-34 -165h-518q-13 -63 -25.5 -122.5t-24.5 -118.5t-24 -119t-25 -124h643l-34 -165h-811zM222 1498l257 222h305l-493 -305z" />
<glyph unicode="&#xca;" horiz-adv-x="960" d="M-95 0l282 1357h810l-34 -165h-643q-10 -50 -20 -96.5t-19.5 -92t-19.5 -92t-20 -97.5h517l-34 -165h-518q-13 -63 -25.5 -122.5t-24.5 -118.5t-24 -119t-25 -124h643l-34 -165h-811zM49 1427l279 302h183l154 -302h-204l-70 138q-32 -35 -65 -70.5t-63 -67.5h-214z" />
<glyph unicode="&#xcb;" horiz-adv-x="960" d="M-95 0l282 1357h810l-34 -165h-643q-10 -50 -20 -96.5t-19.5 -92t-19.5 -92t-20 -97.5h517l-34 -165h-518q-13 -63 -25.5 -122.5t-24.5 -118.5t-24 -119t-25 -124h643l-34 -165h-811zM130.5 1492q-4.5 22 1.5 47q9 46 48 81q38 35 87 35q25 0 45 -10t32.5 -27t17 -39.5 t-0.5 -47.5q-10 -45 -49 -79q-41 -32 -86 -32q-26 0 -46 9t-32.5 25t-17 38zM480 1492q-5 22 1 47q5 24 18.5 45t32 36.5t40.5 25t46 9.5q25 0 45 -10t33 -27t17.5 -39.5t-0.5 -47.5q-5 -23 -18 -43.5t-31.5 -35.5t-41 -23.5t-45.5 -8.5q-26 0 -46.5 9t-33 25t-17.5 38z" />
<glyph unicode="&#xcc;" horiz-adv-x="628" d="M-150 1723h292l169 -228l-94 -77zM-87 0l34 165h166q27 131 53.5 259t53 255t53 254.5t53.5 259.5h-166l34 164h507l-34 -164h-172q-27 -131 -53.5 -259t-53 -255t-53 -254.5t-53.5 -259.5h171l-34 -165h-506z" />
<glyph unicode="&#xcd;" horiz-adv-x="628" d="M-104 0l34 165h166q27 131 53.5 259t53 255t53 254.5t53.5 259.5h-166l34 164h507l-34 -164h-172q-27 -131 -53.5 -259t-53 -255t-53 -254.5t-53.5 -259.5h171l-34 -165h-506zM-39 1499l257 222h305l-493 -305z" />
<glyph unicode="&#xce;" horiz-adv-x="628" d="M-150 1421l279 302h183l154 -302h-204l-70 138q-32 -35 -65 -70.5t-63 -67.5h-214zM-147 0l34 165h166q27 131 53.5 259t53 255t53 254.5t53.5 259.5h-166l34 164h507l-34 -164h-172q-27 -131 -53.5 -259t-53 -255t-53 -254.5t-53.5 -259.5h171l-34 -165h-506z" />
<glyph unicode="&#xcf;" horiz-adv-x="628" d="M-104 0l34 165h166q27 131 53.5 259t53 255t53 254.5t53.5 259.5h-166l34 164h507l-34 -164h-172q-27 -131 -53.5 -259t-53 -255t-53 -254.5t-53.5 -259.5h171l-34 -165h-506zM-10.5 1497q-4.5 22 1.5 47q9 46 48 81q38 35 87 35q25 0 45 -10t32.5 -27t17 -39.5 t-0.5 -47.5q-10 -45 -49 -79q-41 -32 -86 -32q-26 0 -46 9t-32.5 25t-17 38zM339 1497q-5 22 1 47q5 24 18.5 45t32 36.5t40.5 25t46 9.5q25 0 45 -10t33 -27t17.5 -39.5t-0.5 -47.5q-5 -23 -18 -43.5t-31.5 -35.5t-41 -23.5t-45.5 -8.5q-26 0 -46.5 9t-33 25t-17.5 38z" />
<glyph unicode="&#xd0;" horiz-adv-x="1297" d="M9 609l35 169h210q29 143 60 290t60 289h432q153 0 259 -95q99 -92 126 -238q3 -19 5 -39t2 -41q0 -62 -14 -124q-15 -71 -30.5 -145t-29.5 -146q-45 -216 -215 -371q-173 -158 -376 -158h-441l127 609h-210zM295 161h263q67 0 132 28.5t124 79.5q57 54 97 123.5 t57 144.5q14 71 30 145.5t30 145.5q11 52 11 92q0 97 -52 172q-72 106 -206 106h-271q-11 -55 -22 -106.5t-21.5 -102.5t-21.5 -103.5t-22 -107.5h226l-35 -169h-226q-24 -116 -46.5 -223.5t-46.5 -224.5z" />
<glyph unicode="&#xd1;" horiz-adv-x="1182" d="M-65 6l266 1287q9 37 31.5 56.5t49.5 19.5q20 0 39.5 -10t34.5 -33l329 -739q18 -41 32 -73t27.5 -62.5t28 -63t32.5 -72.5q23 109 44.5 216t44.5 216q15 73 31 151t32.5 156.5t32.5 156t31 150.5q16 -2 38 -5t45 -6t45 -6t38 -4l-52 -243q-55 -265 -111 -534t-110 -533 q-13 -33 -35 -49t-46 -16q-22 0 -43 13.5t-35 41.5q-59 132 -113.5 255t-108 244.5t-108 244.5t-112.5 255q-54 -258 -107.5 -518t-106.5 -517zM242 1485q32 60 70 102.5t76 62.5q25 12 53.5 19t57.5 7q32 0 63.5 -11.5t62.5 -33.5h-1q54 -37 77 -37q31 0 84 84l146 -58 q-113 -197 -262 -197q-49 0 -96 25l1 -1q-4 2 -21.5 14.5t-47.5 34.5q-18 11 -32 11q-35 0 -86 -85z" />
<glyph unicode="&#xd2;" horiz-adv-x="1148" d="M7 395q0 31 3.5 61t9.5 60l69 335v-1q24 154 128 287q102 132 233 188q126 55 235 55q110 0 209 -56q51 -29 90 -78t64 -114q16 -39 23.5 -82.5t7.5 -89.5q0 -56 -11 -117l-70 -335v1q-25 -154 -125 -287q-49 -67 -107 -113.5t-125 -74.5q-131 -55 -239 -55 q-111 0 -211 55q-104 57 -155 193q-29 81 -29 168zM168 389q0 -45 12 -85t33 -71q35 -48 89 -71t125 -18q139 0 249 101q116 103 154 256l-1 -1q20 92 39 184l38 184q18 60 18 107q0 39 -11.5 75t-32.5 67q-35 47 -91 72.5t-130 25.5q-134 0 -248 -102q-117 -103 -154 -255 l1 1l-78 -367q-5 -26 -8.5 -51.5t-3.5 -51.5zM226 1720h292l169 -228l-94 -77z" />
<glyph unicode="&#xd3;" horiz-adv-x="1148" d="M7 395q0 31 3.5 61t9.5 60l69 335v-1q24 154 128 287q102 132 233 188q126 55 235 55q110 0 209 -56q51 -29 90 -78t64 -114q16 -39 23.5 -82.5t7.5 -89.5q0 -56 -11 -117l-70 -335v1q-25 -154 -125 -287q-49 -67 -107 -113.5t-125 -74.5q-131 -55 -239 -55 q-111 0 -211 55q-104 57 -155 193q-29 81 -29 168zM168 389q0 -45 12 -85t33 -71q35 -48 89 -71t125 -18q139 0 249 101q116 103 154 256l-1 -1q20 92 39 184l38 184q18 60 18 107q0 39 -11.5 75t-32.5 67q-35 47 -91 72.5t-130 25.5q-134 0 -248 -102q-117 -103 -154 -255 l1 1l-78 -367q-5 -26 -8.5 -51.5t-3.5 -51.5zM367 1492l257 222h305l-493 -305z" />
<glyph unicode="&#xd4;" horiz-adv-x="1148" d="M7 395q0 31 3.5 61t9.5 60l69 335v-1q24 154 128 287q102 132 233 188q126 55 235 55q110 0 209 -56q51 -29 90 -78t64 -114q16 -39 23.5 -82.5t7.5 -89.5q0 -56 -11 -117l-70 -335v1q-25 -154 -125 -287q-49 -67 -107 -113.5t-125 -74.5q-131 -55 -239 -55 q-111 0 -211 55q-104 57 -155 193q-29 81 -29 168zM168 389q0 -45 12 -85t33 -71q35 -48 89 -71t125 -18q139 0 249 101q116 103 154 256l-1 -1q20 92 39 184l38 184q18 60 18 107q0 39 -11.5 75t-32.5 67q-35 47 -91 72.5t-130 25.5q-134 0 -248 -102q-117 -103 -154 -255 l1 1l-78 -367q-5 -26 -8.5 -51.5t-3.5 -51.5zM217 1427l279 302h183l154 -302h-204l-70 138q-32 -35 -65 -70.5t-63 -67.5h-214z" />
<glyph unicode="&#xd5;" horiz-adv-x="1148" d="M-7 395q0 31 3.5 61t9.5 60l69 335v-1q24 154 128 287q102 132 233 188q126 55 235 55q110 0 209 -56q51 -29 90 -78t64 -114q16 -39 23.5 -82.5t7.5 -89.5q0 -56 -11 -117l-70 -335v1q-25 -154 -125 -287q-49 -67 -107 -113.5t-125 -74.5q-131 -55 -239 -55 q-111 0 -211 55q-104 57 -155 193q-29 81 -29 168zM154 389q0 -45 12 -85t33 -71q35 -48 89 -71t125 -18q139 0 249 101q116 103 154 256l-1 -1q20 92 39 184l38 184q18 60 18 107q0 39 -11.5 75t-32.5 67q-35 47 -91 72.5t-130 25.5q-134 0 -248 -102q-117 -103 -154 -255 l1 1l-78 -367q-5 -26 -8.5 -51.5t-3.5 -51.5zM241 1484q32 60 70 102.5t76 62.5q25 12 53.5 19t57.5 7q32 0 63.5 -11.5t62.5 -33.5h-1q54 -37 77 -37q31 0 84 84l146 -58q-113 -197 -262 -197q-49 0 -96 25l1 -1q-4 2 -21.5 14.5t-47.5 34.5q-18 11 -32 11q-35 0 -86 -85z " />
<glyph unicode="&#xd6;" horiz-adv-x="1148" d="M7 395q0 31 3.5 61t9.5 60l69 335v-1q24 154 128 287q102 132 233 188q126 55 235 55q110 0 209 -56q51 -29 90 -78t64 -114q16 -39 23.5 -82.5t7.5 -89.5q0 -56 -11 -117l-70 -335v1q-25 -154 -125 -287q-49 -67 -107 -113.5t-125 -74.5q-131 -55 -239 -55 q-111 0 -211 55q-104 57 -155 193q-29 81 -29 168zM168 389q0 -45 12 -85t33 -71q35 -48 89 -71t125 -18q139 0 249 101q116 103 154 256l-1 -1q20 92 39 184l38 184q18 60 18 107q0 39 -11.5 75t-32.5 67q-35 47 -91 72.5t-130 25.5q-134 0 -248 -102q-117 -103 -154 -255 l1 1l-78 -367q-5 -26 -8.5 -51.5t-3.5 -51.5zM308.5 1498q-4.5 22 1.5 47q9 46 48 81q38 35 87 35q25 0 45 -10t32.5 -27t17 -39.5t-0.5 -47.5q-10 -45 -49 -79q-41 -32 -86 -32q-26 0 -46 9t-32.5 25t-17 38zM658 1498q-5 22 1 47q5 24 18.5 45t32 36.5t40.5 25t46 9.5 q25 0 45 -10t33 -27t17.5 -39.5t-0.5 -47.5q-5 -23 -18 -43.5t-31.5 -35.5t-41 -23.5t-45.5 -8.5q-26 0 -46.5 9t-33 25t-17.5 38z" />
<glyph unicode="&#xd7;" horiz-adv-x="796" d="M11 391l242 200q-37 48 -77 99t-76 96l138 114l153 -195q60 50 125 104t124 103l95 -121l-248 -206q37 -46 77 -97t75 -95l-138 -114l-152 193q-59 -48 -122 -101t-120 -101z" />
<glyph unicode="&#xd8;" horiz-adv-x="1226" d="M20 0l108 159q-74 105 -74 252q0 30 2.5 62t9.5 64q15 71 30.5 145.5t29.5 145.5q16 75 51.5 148t85.5 137q52 65 115.5 115.5t138.5 83.5q100 45 198 45h7q26 0 57 -5t63 -14q49 -15 87 -40q11 14 22 30t21 29h188l-117 -174q34 -54 50.5 -112t16.5 -126q0 -61 -14 -125 q-14 -71 -30 -145t-30 -146q-45 -214 -213 -369q-175 -160 -375 -160h-6q-107 0 -195 53q-10 -14 -19 -27.5l-17 -25.5h-191zM214 436q0 -35 6.5 -66.5t17.5 -59.5q150 214 294.5 423t295.5 424q-60 41 -131 41h-7q-132 0 -252 -110h1q-59 -54 -98 -123.5t-56 -144.5 q-14 -71 -30 -145t-30 -146q-11 -52 -11 -93zM343 192q55 -31 124 -31h7q132 0 253 109q60 53 98 122.5t55 144.5q15 71 30.5 145.5t30.5 145.5q5 22 6.5 42t1.5 40q0 29 -4.5 58t-13.5 56z" />
<glyph unicode="&#xd9;" horiz-adv-x="1166" d="M-19 395q0 30 2.5 61t9.5 60q42 205 87 421t87 420h168l-181 -867q-6 -26 -9.5 -51.5t-3.5 -51.5q0 -43 12.5 -82.5t33.5 -71.5q36 -45 89 -69t120 -20q67 1 129.5 27.5t116.5 74.5q56 51 95 115.5t59 141.5l-1 -1q43 211 88.5 427.5t88.5 427.5h167l-176 -849v1 q-36 -230 -211 -387q-180 -143 -381 -143q-155 0 -260 95q-97 88 -124 237v-1q-6 40 -6 85zM169 1621h292l169 -228l-94 -77z" />
<glyph unicode="&#xda;" horiz-adv-x="1166" d="M-19 395q0 30 2.5 61t9.5 60q42 205 87 421t87 420h168l-181 -867q-6 -26 -9.5 -51.5t-3.5 -51.5q0 -43 12.5 -82.5t33.5 -71.5q36 -45 89 -69t120 -20q67 1 129.5 27.5t116.5 74.5q56 51 95 115.5t59 141.5l-1 -1q43 211 88.5 427.5t88.5 427.5h167l-176 -849v1 q-36 -230 -211 -387q-180 -143 -381 -143q-155 0 -260 95q-97 88 -124 237v-1q-6 40 -6 85zM213 1502l257 222h305l-493 -305z" />
<glyph unicode="&#xdb;" horiz-adv-x="1166" d="M-19 395q0 30 2.5 61t9.5 60q42 205 87 421t87 420h168l-181 -867q-6 -26 -9.5 -51.5t-3.5 -51.5q0 -43 12.5 -82.5t33.5 -71.5q36 -45 89 -69t120 -20q67 1 129.5 27.5t116.5 74.5q56 51 95 115.5t59 141.5l-1 -1q43 211 88.5 427.5t88.5 427.5h167l-176 -849v1 q-36 -230 -211 -387q-180 -143 -381 -143q-155 0 -260 95q-97 88 -124 237v-1q-6 40 -6 85zM184 1421l279 302h183l154 -302h-204l-70 138q-32 -35 -65 -70.5t-63 -67.5h-214z" />
<glyph unicode="&#xdc;" horiz-adv-x="1166" d="M-19 395q0 30 2.5 61t9.5 60q42 205 87 421t87 420h168l-181 -867q-6 -26 -9.5 -51.5t-3.5 -51.5q0 -43 12.5 -82.5t33.5 -71.5q36 -45 89 -69t120 -20q67 1 129.5 27.5t116.5 74.5q56 51 95 115.5t59 141.5l-1 -1q43 211 88.5 427.5t88.5 427.5h167l-176 -849v1 q-36 -230 -211 -387q-180 -143 -381 -143q-155 0 -260 95q-97 88 -124 237v-1q-6 40 -6 85zM282.5 1494q-4.5 22 1.5 47q9 46 48 81q38 35 87 35q25 0 45 -10t32.5 -27t17 -39.5t-0.5 -47.5q-10 -45 -49 -79q-41 -32 -86 -32q-26 0 -46 9t-32.5 25t-17 38zM632 1494 q-5 22 1 47q5 24 18.5 45t32 36.5t40.5 25t46 9.5q25 0 45 -10t33 -27t17.5 -39.5t-0.5 -47.5q-5 -23 -18 -43.5t-31.5 -35.5t-41 -23.5t-45.5 -8.5q-26 0 -46.5 9t-33 25t-17.5 38z" />
<glyph unicode="&#xdd;" horiz-adv-x="1064" d="M40 1328l153 62q26 -69 55 -148.5t55 -148.5q13 -35 24 -64.5t21.5 -58.5t22 -58.5t24.5 -64.5q51 66 101 129t101 128q57 72 118.5 149.5t118.5 149.5q13 -9 31 -21.5t37 -26t37 -26t31 -21.5l-525 -660q-34 -162 -68.5 -331.5t-68.5 -331.5l-164 21l138 668 q-60 160 -121.5 327t-120.5 327zM251 1495l257 222h305l-493 -305z" />
<glyph unicode="&#xde;" horiz-adv-x="1379" d="M5 -328l36 176h116q39 193 80 388.5t80 388.5q20 97 39.5 190.5t39 186.5t39 186.5t39.5 190.5h-116l36 176h397l-36 -176h-112q-12 -57 -22 -106.5t-20 -97.5t-21 -98t-23 -109q150 130 340 130q97 0 177.5 -38t137.5 -105q40 -51 62 -113.5t22 -129.5q0 -49 -9 -95 q-45 -212 -214 -348q-86 -70 -177.5 -105.5t-191.5 -35.5q-193 0 -292 137q-21 -105 -42.5 -207.5t-43.5 -209.5h112l-37 -176h-396zM484 531q0 -87 49 -154q35 -43 85.5 -66t115.5 -23q136 0 249 94q111 96 141 229q3 18 5 37t2 33q0 87 -53 155q-73 91 -203 91 q-137 0 -246 -94q-108 -93 -138 -230q-5 -20 -6 -37.5t-1 -34.5z" />
<glyph unicode="&#xdf;" horiz-adv-x="1313" d="M4 0l34 165h108l184 888q13 63 47 117.5t87 98.5q108 87 236 87h126q84 0 154 -24t121 -67t79 -102t28 -129q0 -17 -1.5 -35.5t-5.5 -35.5q-15 -66 -62.5 -127.5t-128.5 -113.5q138 -89 138 -253q0 -46 -11 -98q-40 -183 -171.5 -277t-354.5 -95h-224l34 165h216 q110 2 216 60q51 29 83 73.5t45 103.5q2 10 3 20t1 18q0 63 -56 113q-74 62 -331 62l35 169q115 0 191.5 15t116.5 44q76 58 91 129q4 19 4 36q0 39 -17.5 72.5t-48 58t-73 39t-91.5 14.5l-132 -1q-61 -1 -113 -38q-49 -36 -67 -108l1 1q-47 -227 -93.5 -451.5t-94.5 -451.5 l-31 -143z" />
<glyph unicode="&#xe0;" d="M24 387q0 41 6 80q8 51 24 98t43 92q32 53 71.5 92t88.5 75q70 51 154 81t167 48q62 13 131 22.5t138 9.5q74 0 137 -12q42 -13 58.5 -35t15.5 -64l-189 -892l-166 21l11 54q-84 -49 -179 -67q-27 -5 -54.5 -7.5t-56.5 -2.5q-106 0 -195 45t-150 145q-14 24 -24.5 52 t-16.5 55v-1q-8 29 -11 57t-3 54zM188 388q0 -28 5 -56t16 -53q13 -29 33.5 -55t48.5 -44h-1q41 -24 68 -30.5t52 -6.5q36 0 65.5 3.5t64.5 14.5q106 30 169 105t86 182l82 369q-12 1 -25 1h-25q-77 0 -154 -11t-168 -40q-38 -13 -75 -31t-72 -44q-35 -24 -60 -47.5 t-40 -43.5v1q-32 -47 -51 -102t-19 -112zM381 1357h292l169 -228l-94 -77z" />
<glyph unicode="&#xe1;" d="M-9 387q0 41 6 80q8 51 24 98t43 92q32 53 71.5 92t88.5 75q70 51 154 81t167 48q62 13 131 22.5t138 9.5q74 0 137 -12q42 -13 58.5 -35t15.5 -64l-189 -892l-166 21l11 54q-84 -49 -179 -67q-27 -5 -54.5 -7.5t-56.5 -2.5q-106 0 -195 45t-150 145q-14 24 -24.5 52 t-16.5 55v-1q-8 29 -11 57t-3 54zM155 388q0 -28 5 -56t16 -53q13 -29 33.5 -55t48.5 -44h-1q41 -24 68 -30.5t52 -6.5q36 0 65.5 3.5t64.5 14.5q106 30 169 105t86 182l82 369q-12 1 -25 1h-25q-77 0 -154 -11t-168 -40q-38 -13 -75 -31t-72 -44q-35 -24 -60 -47.5 t-40 -43.5v1q-32 -47 -51 -102t-19 -112zM463 1157l257 222h305l-493 -305z" />
<glyph unicode="&#xe2;" d="M24 387q0 41 6 80q8 51 24 98t43 92q32 53 71.5 92t88.5 75q70 51 154 81t167 48q62 13 131 22.5t138 9.5q74 0 137 -12q42 -13 58.5 -35t15.5 -64l-189 -892l-166 21l11 54q-84 -49 -179 -67q-27 -5 -54.5 -7.5t-56.5 -2.5q-106 0 -195 45t-150 145q-14 24 -24.5 52 t-16.5 55v-1q-8 29 -11 57t-3 54zM188 388q0 -28 5 -56t16 -53q13 -29 33.5 -55t48.5 -44h-1q41 -24 68 -30.5t52 -6.5q36 0 65.5 3.5t64.5 14.5q106 30 169 105t86 182l82 369q-12 1 -25 1h-25q-77 0 -154 -11t-168 -40q-38 -13 -75 -31t-72 -44q-35 -24 -60 -47.5 t-40 -43.5v1q-32 -47 -51 -102t-19 -112zM366 1056l279 302h183l154 -302h-204l-70 138q-32 -35 -65 -70.5t-63 -67.5h-214z" />
<glyph unicode="&#xe3;" d="M24 387q0 41 6 80q8 51 24 98t43 92q32 53 71.5 92t88.5 75q70 51 154 81t167 48q62 13 131 22.5t138 9.5q74 0 137 -12q42 -13 58.5 -35t15.5 -64l-189 -892l-166 21l11 54q-84 -49 -179 -67q-27 -5 -54.5 -7.5t-56.5 -2.5q-106 0 -195 45t-150 145q-14 24 -24.5 52 t-16.5 55v-1q-8 29 -11 57t-3 54zM188 388q0 -28 5 -56t16 -53q13 -29 33.5 -55t48.5 -44h-1q41 -24 68 -30.5t52 -6.5q36 0 65.5 3.5t64.5 14.5q106 30 169 105t86 182l82 369q-12 1 -25 1h-25q-77 0 -154 -11t-168 -40q-38 -13 -75 -31t-72 -44q-35 -24 -60 -47.5 t-40 -43.5v1q-32 -47 -51 -102t-19 -112zM388 1171q32 60 70 102.5t76 62.5q25 12 53.5 19t57.5 7q32 0 63.5 -11.5t62.5 -33.5h-1q54 -37 77 -37q31 0 84 84l146 -58q-113 -197 -262 -197q-49 0 -96 25l1 -1q-4 2 -21.5 14.5t-47.5 34.5q-18 11 -32 11q-35 0 -86 -85z" />
<glyph unicode="&#xe4;" d="M24 387q0 41 6 80q8 51 24 98t43 92q32 53 71.5 92t88.5 75q70 51 154 81t167 48q62 13 131 22.5t138 9.5q74 0 137 -12q42 -13 58.5 -35t15.5 -64l-189 -892l-166 21l11 54q-84 -49 -179 -67q-27 -5 -54.5 -7.5t-56.5 -2.5q-106 0 -195 45t-150 145q-14 24 -24.5 52 t-16.5 55v-1q-8 29 -11 57t-3 54zM188 388q0 -28 5 -56t16 -53q13 -29 33.5 -55t48.5 -44h-1q41 -24 68 -30.5t52 -6.5q36 0 65.5 3.5t64.5 14.5q106 30 169 105t86 182l82 369q-12 1 -25 1h-25q-77 0 -154 -11t-168 -40q-38 -13 -75 -31t-72 -44q-35 -24 -60 -47.5 t-40 -43.5v1q-32 -47 -51 -102t-19 -112zM488.5 1134q-4.5 22 1.5 47q9 46 48 81q38 35 87 35q25 0 45 -10t32.5 -27t17 -39.5t-0.5 -47.5q-10 -45 -49 -79q-41 -32 -86 -32q-26 0 -46 9t-32.5 25t-17 38zM838 1134q-5 22 1 47q5 24 18.5 45t32 36.5t40.5 25t46 9.5 q25 0 45 -10t33 -27t17.5 -39.5t-0.5 -47.5q-5 -23 -18 -43.5t-31.5 -35.5t-41 -23.5t-45.5 -8.5q-26 0 -46.5 9t-33 25t-17.5 38z" />
<glyph unicode="&#xe5;" d="M24 387q0 41 6 80q8 51 24 98t43 92q32 53 71.5 92t88.5 75q70 51 154 81t167 48q62 13 131 22.5t138 9.5q74 0 137 -12q42 -13 58.5 -35t15.5 -64l-189 -892l-166 21l11 54q-84 -49 -179 -67q-27 -5 -54.5 -7.5t-56.5 -2.5q-106 0 -195 45t-150 145q-14 24 -24.5 52 t-16.5 55v-1q-8 29 -11 57t-3 54zM188 388q0 -28 5 -56t16 -53q13 -29 33.5 -55t48.5 -44h-1q41 -24 68 -30.5t52 -6.5q36 0 65.5 3.5t64.5 14.5q106 30 169 105t86 182l82 369q-12 1 -25 1h-25q-77 0 -154 -11t-168 -40q-38 -13 -75 -31t-72 -44q-35 -24 -60 -47.5 t-40 -43.5v1q-32 -47 -51 -102t-19 -112zM493 1164q0 18 3 35q15 67 76 119q62 50 130 50q77 0 118 -51h-1q16 -20 24.5 -42t8.5 -48q0 -12 -1 -19.5t-3 -16.5q-8 -36 -26.5 -65.5t-50.5 -55.5q-62 -47 -132 -47q-74 0 -115 51h1q-32 41 -32 90zM613 1191q-5 -22 7 -37 t35 -15q26 0 49 17t27 43q5 22 -8.5 37t-35.5 15q-25 0 -47 -17.5t-27 -42.5z" />
<glyph unicode="&#xe6;" horiz-adv-x="1948" d="M42 276q0 31 6 61q23 107 110 190q81 78 191 115q37 13 74 18.5t74 5.5h76q54 0 98 1.5t82 3.5q21 2 48 5t60 9q2 26 -4 44.5t-20 35.5q-33 36 -89 36h-252q-59 0 -112 -44q-25 -21 -42 -51t-25 -68h-170q30 150 140 240q110 92 235 92h252q91 0 163 -52q28 -21 49 -47.5 t33 -58.5q88 81 184.5 119.5t202.5 38.5q206 0 318 -145q83 -104 83 -241q0 -26 -3 -51.5t-8 -51.5l-6 -31h-807q-2 -8 -2 -16v-14q0 -32 11 -73q26 -85 96 -133v1q73 -50 167 -50q46 0 94 13t97 37q48 26 91 63t74 81l162 -29q-96 -159 -244 -244q-75 -44 -150 -65 t-150 -21q-158 0 -260 81v-24q-53 76 -90 76q-45 0 -73 -32l-3 -2q-134 -99 -299 -99h-137q-107 0 -194 52q-43 27 -73.5 65.5t-45.5 84.5q-12 36 -12 74zM215 303q0 -46 36 -82q49 -52 142 -52h137q96 0 175 55v-1q70 49 84 114l36 172q-23 -3 -51.5 -5.5t-64.5 -3.5 q-34 -2 -76 -2.5t-86 -0.5h-32q-14 0 -25 1h-20q-92 0 -168 -53q-35 -25 -55.5 -54.5t-28.5 -61.5q-2 -8 -2.5 -15t-0.5 -11zM1047 620h585q-9 39 -29 69.5t-52 56.5q-74 59 -172 59t-197 -61q-41 -25 -75 -56.5t-60 -67.5z" />
<glyph unicode="&#xe7;" horiz-adv-x="1001" d="M-17 388q0 27 2.5 52t5.5 51l4 21q2 7 4.5 16t4.5 17v-1q3 10 5.5 21t5.5 21q30 73 79.5 140t113 121t138 90.5t152.5 48.5q37 6 79 6q60 0 117.5 -15t108.5 -44.5t94 -72.5t73 -98l-154 -65q-39 64 -103 97.5t-134 33.5q-53 0 -104 -17q-51 -16 -98 -43t-86.5 -63.5 t-70 -81t-49.5 -95.5v1q-6 -17 -10 -36l-6 -24l1 2q-3 -22 -5.5 -42.5t-2.5 -39.5q0 -17 2.5 -35.5t7.5 -36.5q14 -45 39 -77t58 -52.5t72 -30t80 -9.5q30 0 60.5 4.5t59.5 12.5h-1q53 16 103.5 49.5t96.5 79.5l137 -96q-64 -69 -138 -118.5t-151 -72.5q-41 -13 -81.5 -19 t-81.5 -6q-68 0 -132 17.5t-118.5 53t-96 89t-63.5 126.5q-10 30 -14 60.5t-4 59.5zM288 70h176q7 -14 20 -27t35 -28h-1q13 -8 31 -22t41 -37q21 -32 21 -75q0 -21 -5 -46q-23 -101 -151 -127q-30 -6 -74 -6l-53 139q20 12 49.5 21.5t66.5 14.5q-5 8 -17.5 22t-31.5 36v-1 q-15 17 -42 50.5t-65 85.5z" />
<glyph unicode="&#xe8;" horiz-adv-x="1136" d="M13 1357h292l169 -228l-94 -77zM37 401q0 85 30 169t87 162q42 55 100.5 103t126.5 83.5t141 55t143 16.5q3 0 7 -0.5t7 -0.5q49 -2 104.5 -8t99.5 -29q10 -5 24.5 -13t24.5 -14q5 -5 9 -7q18 -11 27.5 -21t20.5 -23q2 -2 5.5 -6.5t5.5 -6.5q12 -14 16.5 -25t9.5 -28 q1 -3 2 -5.5l3 -7.5q10 -28 10 -58q0 -38 -15 -76t-40 -70.5t-57.5 -56t-68.5 -33.5q-107 -29 -213 -57t-213 -57q-61 -16 -112 -29.5t-111 -29.5q12 -48 39 -82.5t63.5 -56.5t80.5 -32.5t90 -10.5q48 0 98.5 12t92.5 34q48 26 94 64.5t88 86.5l117 -116 q-46 -53 -102.5 -98.5t-119.5 -79t-130.5 -52.5t-135.5 -19q-51 0 -99 9q-35 8 -74.5 20t-72.5 33q-53 33 -91 74t-63 87.5t-37 97t-12 102.5zM215 499q69 18 144.5 38.5t152 41t151.5 40.5t144 39q27 7 42 25.5t24 44.5v8q0 3 0.5 4t0.5 4q-2 5 -3.5 10t-3.5 10l-16 16 q-47 27 -91 36.5t-100 9.5q-69 0 -139 -26t-130.5 -71t-107 -104.5t-68.5 -125.5z" />
<glyph unicode="&#xe9;" horiz-adv-x="1136" d="M-11 401q0 85 30 169t87 162q42 55 100.5 103t126.5 83.5t141 55t143 16.5q3 0 7 -0.5t7 -0.5q49 -2 104.5 -8t99.5 -29q10 -5 24.5 -13t24.5 -14q5 -5 9 -7q18 -11 27.5 -21t20.5 -23q2 -2 5.5 -6.5t5.5 -6.5q12 -14 16.5 -25t9.5 -28q1 -3 2 -5.5l3 -7.5q10 -28 10 -58 q0 -38 -15 -76t-40 -70.5t-57.5 -56t-68.5 -33.5q-107 -29 -213 -57t-213 -57q-61 -16 -112 -29.5t-111 -29.5q12 -48 39 -82.5t63.5 -56.5t80.5 -32.5t90 -10.5q48 0 98.5 12t92.5 34q48 26 94 64.5t88 86.5l117 -116q-46 -53 -102.5 -98.5t-119.5 -79t-130.5 -52.5 t-135.5 -19q-51 0 -99 9q-35 8 -74.5 20t-72.5 33q-53 33 -91 74t-63 87.5t-37 97t-12 102.5zM167 499q69 18 144.5 38.5t152 41t151.5 40.5t144 39q27 7 42 25.5t24 44.5v8q0 3 0.5 4t0.5 4q-2 5 -3.5 10t-3.5 10l-16 16q-47 27 -91 36.5t-100 9.5q-69 0 -139 -26 t-130.5 -71t-107 -104.5t-68.5 -125.5zM269 1135l257 222h305l-493 -305z" />
<glyph unicode="&#xea;" horiz-adv-x="1136" d="M37 401q0 85 30 169t87 162q42 55 100.5 103t126.5 83.5t141 55t143 16.5q3 0 7 -0.5t7 -0.5q49 -2 104.5 -8t99.5 -29q10 -5 24.5 -13t24.5 -14q5 -5 9 -7q18 -11 27.5 -21t20.5 -23q2 -2 5.5 -6.5t5.5 -6.5q12 -14 16.5 -25t9.5 -28q1 -3 2 -5.5l3 -7.5q10 -28 10 -58 q0 -38 -15 -76t-40 -70.5t-57.5 -56t-68.5 -33.5q-107 -29 -213 -57t-213 -57q-61 -16 -112 -29.5t-111 -29.5q12 -48 39 -82.5t63.5 -56.5t80.5 -32.5t90 -10.5q48 0 98.5 12t92.5 34q48 26 94 64.5t88 86.5l117 -116q-46 -53 -102.5 -98.5t-119.5 -79t-130.5 -52.5 t-135.5 -19q-51 0 -99 9q-35 8 -74.5 20t-72.5 33q-53 33 -91 74t-63 87.5t-37 97t-12 102.5zM151 1055l279 302h183l154 -302h-204l-70 138q-32 -35 -65 -70.5t-63 -67.5h-214zM215 499q69 18 144.5 38.5t152 41t151.5 40.5t144 39q27 7 42 25.5t24 44.5v8q0 3 0.5 4t0.5 4 q-2 5 -3.5 10t-3.5 10l-16 16q-47 27 -91 36.5t-100 9.5q-69 0 -139 -26t-130.5 -71t-107 -104.5t-68.5 -125.5z" />
<glyph unicode="&#xeb;" horiz-adv-x="1136" d="M37 401q0 85 30 169t87 162q42 55 100.5 103t126.5 83.5t141 55t143 16.5q3 0 7 -0.5t7 -0.5q49 -2 104.5 -8t99.5 -29q10 -5 24.5 -13t24.5 -14q5 -5 9 -7q18 -11 27.5 -21t20.5 -23q2 -2 5.5 -6.5t5.5 -6.5q12 -14 16.5 -25t9.5 -28q1 -3 2 -5.5l3 -7.5q10 -28 10 -58 q0 -38 -15 -76t-40 -70.5t-57.5 -56t-68.5 -33.5q-107 -29 -213 -57t-213 -57q-61 -16 -112 -29.5t-111 -29.5q12 -48 39 -82.5t63.5 -56.5t80.5 -32.5t90 -10.5q48 0 98.5 12t92.5 34q48 26 94 64.5t88 86.5l117 -116q-46 -53 -102.5 -98.5t-119.5 -79t-130.5 -52.5 t-135.5 -19q-51 0 -99 9q-35 8 -74.5 20t-72.5 33q-53 33 -91 74t-63 87.5t-37 97t-12 102.5zM215 499q69 18 144.5 38.5t152 41t151.5 40.5t144 39q27 7 42 25.5t24 44.5v8q0 3 0.5 4t0.5 4q-2 5 -3.5 10t-3.5 10l-16 16q-47 27 -91 36.5t-100 9.5q-69 0 -139 -26 t-130.5 -71t-107 -104.5t-68.5 -125.5zM224.5 1122q-4.5 22 1.5 47q9 46 48 81q38 35 87 35q25 0 45 -10t32.5 -27t17 -39.5t-0.5 -47.5q-10 -45 -49 -79q-41 -32 -86 -32q-26 0 -46 9t-32.5 25t-17 38zM574 1122q-5 22 1 47q5 24 18.5 45t32 36.5t40.5 25t46 9.5 q25 0 45 -10t33 -27t17.5 -39.5t-0.5 -47.5q-5 -23 -18 -43.5t-31.5 -35.5t-41 -23.5t-45.5 -8.5q-26 0 -46.5 9t-33 25t-17.5 38z" />
<glyph unicode="&#xec;" horiz-adv-x="506" d="M-61 1365h292l169 -228l-94 -77zM72 0l166 805h-124l34 165h291l-200 -970h-167z" />
<glyph unicode="&#xed;" horiz-adv-x="513" d="M21 1141l257 222h305l-493 -305zM23 0l166 805h-124l34 165h291l-200 -970h-167z" />
<glyph unicode="&#xee;" horiz-adv-x="682" d="M9 1055l279 302h183l154 -302h-204l-70 138q-32 -35 -65 -70.5t-63 -67.5h-214zM121 0l166 805h-124l34 165h291l-200 -970h-167z" />
<glyph unicode="&#xef;" horiz-adv-x="589" d="M-38.5 1117q-4.5 22 1.5 47q9 46 48 81q38 35 87 35q25 0 45 -10t32.5 -27t17 -39.5t-0.5 -47.5q-10 -45 -49 -79q-41 -32 -86 -32q-26 0 -46 9t-32.5 25t-17 38zM30 0l166 805h-124l34 165h291l-200 -970h-167zM311 1117q-5 22 1 47q5 24 18.5 45t32 36.5t40.5 25 t46 9.5q25 0 45 -10t33 -27t17.5 -39.5t-0.5 -47.5q-5 -23 -18 -43.5t-31.5 -35.5t-41 -23.5t-45.5 -8.5q-26 0 -46.5 9t-33 25t-17.5 38z" />
<glyph unicode="&#xf0;" horiz-adv-x="1190" d="M31 314q0 19 2 38.5t7 40.5h-1q9 42 26 81t42 77q39 57 91 101.5t115 77.5q61 31 125.5 48.5t127.5 17.5q7 1 15 1h15q113 0 203 -64q3 28 3 51q0 70 -17 126t-51 101q-52 -21 -110.5 -45.5t-108.5 -45.5l-39 157l146 60q-32 22 -66.5 31.5t-76.5 9.5h-73l35 168h65 q90 0 167 -31t144 -96q63 26 131 53.5t130 52.5l39 -159l-208 -83q54 -110 67 -241q2 -17 3 -35.5t1 -40.5q0 -64 -9 -142t-25 -169q-3 -17 -7 -34.5t-7 -35.5q-17 -80 -69 -154h1q-79 -115 -204 -179q-62 -31 -124.5 -47t-126.5 -16q-187 0 -296 117q-42 45 -62 96.5 t-20 111.5zM198 332q0 -65 49 -114q68 -63 189 -63q124 0 211 63q47 33 77 81.5t44 108.5q2 11 3 21.5t1 18.5q0 26 -6 47q-37 135 -210 135h-28q-57 0 -111 -18h1q-85 -30 -138 -88t-73 -133q-1 -4 -2.5 -8.5l-2.5 -7.5q-2 -11 -3 -21.5t-1 -21.5z" />
<glyph unicode="&#xf1;" horiz-adv-x="1133" d="M-6 -1l201 970h168l-11 -58q16 9 31.5 17t32.5 15v-1q29 12 58.5 21.5t56.5 14.5t54.5 7.5t55.5 2.5q72 0 137.5 -21.5t120.5 -65.5q24 -20 46 -45.5t42 -57.5q8 -15 14 -27.5t11 -25.5q5 -11 9 -24.5t8 -29.5q10 -49 12 -95q1 -23 0 -45t-4 -45l-104 -507h-168l108 523 v-1q2 16 3.5 30.5t1.5 28.5v13t-1 14q-2 20 -7 41t-14 41q-10 28 -34 55q-10 14 -22 25t-25 19h1q-22 12 -38.5 19t-29.5 11q-14 3 -26 5t-26 2q-17 0 -33.5 -1t-31.5 -3q-17 -2 -33 -5.5t-32 -8.5q-51 -15 -95 -42t-75 -64q-29 -35 -51.5 -82.5t-33.5 -98.5l-111 -521h-166 zM199 1126q32 60 70 102.5t76 62.5q25 12 53.5 19t57.5 7q32 0 63.5 -11.5t62.5 -33.5h-1q54 -37 77 -37q31 0 84 84l146 -58q-113 -197 -262 -197q-49 0 -96 25l1 -1q-4 2 -21.5 14.5t-47.5 34.5q-18 11 -32 11q-35 0 -86 -85z" />
<glyph unicode="&#xf2;" d="M-17 1357h292l169 -228l-94 -77zM37 383q0 28 2.5 53t5.5 51l4 20q2 8 4 16.5t4 16.5v-1q3 11 5.5 21.5t6.5 20.5q30 73 79.5 140t113 121t137.5 91t153 49q19 2 39 3.5t40 1.5q79 0 152 -24.5t130.5 -70.5t96 -113.5t49.5 -152.5q3 -24 3 -52q0 -29 -2.5 -57.5 t-6.5 -51.5q-16 -80 -55.5 -153t-96 -134t-126.5 -106.5t-147 -69.5q-41 -13 -81.5 -18.5t-81.5 -5.5q-68 0 -132 17t-118.5 52.5t-96 89t-63.5 126.5q-10 31 -14 61t-4 59zM201 384q0 -17 2.5 -35t8.5 -37q14 -45 39 -77t57.5 -52.5t71.5 -30t80 -9.5q31 0 61.5 5t59.5 13 h-1q56 16 107 49t92 78t69.5 98.5t40.5 111.5q8 37 8 71v17q0 9 -2 18q-6 54 -30 94.5t-59.5 68.5t-80 42t-92.5 14q-26 0 -52.5 -4.5t-52.5 -12.5q-50 -16 -97 -43.5t-86.5 -64t-70.5 -81t-49 -94.5v1q-6 -17 -10 -36q-2 -5 -3.5 -11.5t-3.5 -12.5l1 2q-3 -22 -5.5 -42 t-2.5 -40z" />
<glyph unicode="&#xf3;" d="M-19 383q0 28 2.5 53t5.5 51l4 20q2 8 4 16.5t4 16.5v-1q3 11 5.5 21.5t6.5 20.5q30 73 79.5 140t113 121t137.5 91t153 49q19 2 39 3.5t40 1.5q79 0 152 -24.5t130.5 -70.5t96 -113.5t49.5 -152.5q3 -24 3 -52q0 -29 -2.5 -57.5t-6.5 -51.5q-16 -80 -55.5 -153t-96 -134 t-126.5 -106.5t-147 -69.5q-41 -13 -81.5 -18.5t-81.5 -5.5q-68 0 -132 17t-118.5 52.5t-96 89t-63.5 126.5q-10 31 -14 61t-4 59zM145 384q0 -17 2.5 -35t8.5 -37q14 -45 39 -77t57.5 -52.5t71.5 -30t80 -9.5q31 0 61.5 5t59.5 13h-1q56 16 107 49t92 78t69.5 98.5 t40.5 111.5q8 37 8 71v17q0 9 -2 18q-6 54 -30 94.5t-59.5 68.5t-80 42t-92.5 14q-26 0 -52.5 -4.5t-52.5 -12.5q-50 -16 -97 -43.5t-86.5 -64t-70.5 -81t-49 -94.5v1q-6 -17 -10 -36q-2 -5 -3.5 -11.5t-3.5 -12.5l1 2q-3 -22 -5.5 -42t-2.5 -40zM281 1135l257 222h305 l-493 -305z" />
<glyph unicode="&#xf4;" d="M28 383q0 28 2.5 53t5.5 51l4 20q2 8 4 16.5t4 16.5v-1q3 11 5.5 21.5t6.5 20.5q30 73 79.5 140t113 121t137.5 91t153 49q19 2 39 3.5t40 1.5q79 0 152 -24.5t130.5 -70.5t96 -113.5t49.5 -152.5q3 -24 3 -52q0 -29 -2.5 -57.5t-6.5 -51.5q-16 -80 -55.5 -153t-96 -134 t-126.5 -106.5t-147 -69.5q-41 -13 -81.5 -18.5t-81.5 -5.5q-68 0 -132 17t-118.5 52.5t-96 89t-63.5 126.5q-10 31 -14 61t-4 59zM154 1055l279 302h183l154 -302h-204l-70 138q-32 -35 -65 -70.5t-63 -67.5h-214zM192 384q0 -17 2.5 -35t8.5 -37q14 -45 39 -77t57.5 -52.5 t71.5 -30t80 -9.5q31 0 61.5 5t59.5 13h-1q56 16 107 49t92 78t69.5 98.5t40.5 111.5q8 37 8 71v17q0 9 -2 18q-6 54 -30 94.5t-59.5 68.5t-80 42t-92.5 14q-26 0 -52.5 -4.5t-52.5 -12.5q-50 -16 -97 -43.5t-86.5 -64t-70.5 -81t-49 -94.5v1q-6 -17 -10 -36 q-2 -5 -3.5 -11.5t-3.5 -12.5l1 2q-3 -22 -5.5 -42t-2.5 -40z" />
<glyph unicode="&#xf5;" d="M16 383q0 28 2.5 53t5.5 51l4 20q2 8 4 16.5t4 16.5v-1q3 11 5.5 21.5t6.5 20.5q30 73 79.5 140t113 121t137.5 91t153 49q19 2 39 3.5t40 1.5q79 0 152 -24.5t130.5 -70.5t96 -113.5t49.5 -152.5q3 -24 3 -52q0 -29 -2.5 -57.5t-6.5 -51.5q-16 -80 -55.5 -153t-96 -134 t-126.5 -106.5t-147 -69.5q-41 -13 -81.5 -18.5t-81.5 -5.5q-68 0 -132 17t-118.5 52.5t-96 89t-63.5 126.5q-10 31 -14 61t-4 59zM180 384q0 -17 2.5 -35t8.5 -37q14 -45 39 -77t57.5 -52.5t71.5 -30t80 -9.5q31 0 61.5 5t59.5 13h-1q56 16 107 49t92 78t69.5 98.5 t40.5 111.5q8 37 8 71v17q0 9 -2 18q-6 54 -30 94.5t-59.5 68.5t-80 42t-92.5 14q-26 0 -52.5 -4.5t-52.5 -12.5q-50 -16 -97 -43.5t-86.5 -64t-70.5 -81t-49 -94.5v1q-6 -17 -10 -36q-2 -5 -3.5 -11.5t-3.5 -12.5l1 2q-3 -22 -5.5 -42t-2.5 -40zM190 1119q32 60 70 102.5 t76 62.5q25 12 53.5 19t57.5 7q32 0 63.5 -11.5t62.5 -33.5h-1q54 -37 77 -37q31 0 84 84l146 -58q-113 -197 -262 -197q-49 0 -96 25l1 -1q-4 2 -21.5 14.5t-47.5 34.5q-18 11 -32 11q-35 0 -86 -85z" />
<glyph unicode="&#xf6;" d="M28 383q0 28 2.5 53t5.5 51l4 20q2 8 4 16.5t4 16.5v-1q3 11 5.5 21.5t6.5 20.5q30 73 79.5 140t113 121t137.5 91t153 49q19 2 39 3.5t40 1.5q79 0 152 -24.5t130.5 -70.5t96 -113.5t49.5 -152.5q3 -24 3 -52q0 -29 -2.5 -57.5t-6.5 -51.5q-16 -80 -55.5 -153t-96 -134 t-126.5 -106.5t-147 -69.5q-41 -13 -81.5 -18.5t-81.5 -5.5q-68 0 -132 17t-118.5 52.5t-96 89t-63.5 126.5q-10 31 -14 61t-4 59zM192 384q0 -17 2.5 -35t8.5 -37q14 -45 39 -77t57.5 -52.5t71.5 -30t80 -9.5q31 0 61.5 5t59.5 13h-1q56 16 107 49t92 78t69.5 98.5 t40.5 111.5q8 37 8 71v17q0 9 -2 18q-6 54 -30 94.5t-59.5 68.5t-80 42t-92.5 14q-26 0 -52.5 -4.5t-52.5 -12.5q-50 -16 -97 -43.5t-86.5 -64t-70.5 -81t-49 -94.5v1q-6 -17 -10 -36q-2 -5 -3.5 -11.5t-3.5 -12.5l1 2q-3 -22 -5.5 -42t-2.5 -40zM246.5 1136q-4.5 22 1.5 47 q9 46 48 81q38 35 87 35q25 0 45 -10t32.5 -27t17 -39.5t-0.5 -47.5q-10 -45 -49 -79q-41 -32 -86 -32q-26 0 -46 9t-32.5 25t-17 38zM596 1136q-5 22 1 47q5 24 18.5 45t32 36.5t40.5 25t46 9.5q25 0 45 -10t33 -27t17.5 -39.5t-0.5 -47.5q-5 -23 -18 -43.5t-31.5 -35.5 t-41 -23.5t-45.5 -8.5q-26 0 -46.5 9t-33 25t-17.5 38z" />
<glyph unicode="&#xf7;" horiz-adv-x="1084" d="M-14 374l34 165h1021l-34 -165h-1021zM308.5 95q-5.5 24 0.5 51q5 24 19.5 47t34.5 40q45 36 95 36q54 0 85 -40q30 -41 20 -91q-6 -26 -19 -48t-36 -40q-44 -36 -96 -36q-27 0 -48.5 10.5t-35.5 28.5t-19.5 42zM437 712q-5 24 1 51q10 52 53 86q43 35 95 35 q27 0 48.5 -10t36 -28t20 -41.5t0.5 -50.5q-12 -52 -55 -87q-45 -36 -95 -36q-27 0 -49 10.5t-36 28.5t-19 42z" />
<glyph unicode="&#xf8;" horiz-adv-x="1169" d="M59 376q0 56 12 112q42 201 211 341q173 141 370 141q46 0 89 -9.5t91 -29.5q8 9 19 20t18 19h192l-109 -128q99 -110 99 -256q0 -26 -2.5 -52t-8.5 -53q-21 -100 -74 -185.5t-138 -155.5q-172 -140 -369 -140q-96 0 -169 31q-6 -8 -13 -16.5t-11 -14.5h-195l91 113 q-103 106 -103 263zM226 406q0 -91 53 -154q57 69 111.5 135.5t109 132.5t109 132.5t111.5 136.5q-23 8 -47.5 12t-46.5 4q-135 0 -250 -95q-114 -96 -142 -229q-4 -21 -6 -39.5t-2 -35.5zM407 172q29 -7 78 -7q136 0 249 95q113 96 141 228q7 38 7 70q0 41 -10 76t-33 64z " />
<glyph unicode="&#xf9;" horiz-adv-x="1056" d="M-25 1357h292l169 -228l-94 -77zM-21 372q-1 23 0 44.5t4 44.5l104 508h168l-108 -523v1q-2 -16 -3.5 -30.5t-1.5 -28.5v-13t1 -14q4 -41 20 -82q7 -15 15 -29.5t19 -26.5q10 -12 21.5 -22.5t27.5 -20.5h-1q21 -12 37.5 -19t30.5 -11q12 -3 25 -5t26 -2q17 0 33.5 1 t31.5 3q17 2 33 5.5t33 8.5q51 15 94.5 42t74.5 64q29 35 51.5 82.5t34.5 98.5l110 521h166l-205 -987l-164 21l11 54q-16 -9 -31.5 -17t-31.5 -15v1q-29 -12 -59 -21.5t-57 -14.5t-54.5 -7.5t-55.5 -2.5q-72 0 -137.5 21.5t-120.5 65.5q-24 20 -46 45.5t-41 57.5 q-8 14 -14.5 27t-11.5 26q-6 15 -10 28.5t-7 24.5q-10 45 -12 96z" />
<glyph unicode="&#xfa;" horiz-adv-x="1056" d="M-21 372q-1 23 0 44.5t4 44.5l104 508h168l-108 -523v1q-2 -16 -3.5 -30.5t-1.5 -28.5v-13t1 -14q4 -41 20 -82q7 -15 15 -29.5t19 -26.5q10 -12 21.5 -22.5t27.5 -20.5h-1q21 -12 37.5 -19t30.5 -11q12 -3 25 -5t26 -2q17 0 33.5 1t31.5 3q17 2 33 5.5t33 8.5 q51 15 94.5 42t74.5 64q29 35 51.5 82.5t34.5 98.5l110 521h166l-205 -987l-164 21l11 54q-16 -9 -31.5 -17t-31.5 -15v1q-29 -12 -59 -21.5t-57 -14.5t-54.5 -7.5t-55.5 -2.5q-72 0 -137.5 21.5t-120.5 65.5q-24 20 -46 45.5t-41 57.5q-8 14 -14.5 27t-11.5 26 q-6 15 -10 28.5t-7 24.5q-10 45 -12 96zM144 1135l257 222h305l-493 -305z" />
<glyph unicode="&#xfb;" horiz-adv-x="1056" d="M-21 372q-1 23 0 44.5t4 44.5l104 508h168l-108 -523v1q-2 -16 -3.5 -30.5t-1.5 -28.5v-13t1 -14q4 -41 20 -82q7 -15 15 -29.5t19 -26.5q10 -12 21.5 -22.5t27.5 -20.5h-1q21 -12 37.5 -19t30.5 -11q12 -3 25 -5t26 -2q17 0 33.5 1t31.5 3q17 2 33 5.5t33 8.5 q51 15 94.5 42t74.5 64q29 35 51.5 82.5t34.5 98.5l110 521h166l-205 -987l-164 21l11 54q-16 -9 -31.5 -17t-31.5 -15v1q-29 -12 -59 -21.5t-57 -14.5t-54.5 -7.5t-55.5 -2.5q-72 0 -137.5 21.5t-120.5 65.5q-24 20 -46 45.5t-41 57.5q-8 14 -14.5 27t-11.5 26 q-6 15 -10 28.5t-7 24.5q-10 45 -12 96zM59 1058l279 302h183l154 -302h-204l-70 138q-32 -35 -65 -70.5t-63 -67.5h-214z" />
<glyph unicode="&#xfc;" horiz-adv-x="1056" d="M-21 372q-1 23 0 44.5t4 44.5l104 508h168l-108 -523v1q-2 -16 -3.5 -30.5t-1.5 -28.5v-13t1 -14q4 -41 20 -82q7 -15 15 -29.5t19 -26.5q10 -12 21.5 -22.5t27.5 -20.5h-1q21 -12 37.5 -19t30.5 -11q12 -3 25 -5t26 -2q17 0 33.5 1t31.5 3q17 2 33 5.5t33 8.5 q51 15 94.5 42t74.5 64q29 35 51.5 82.5t34.5 98.5l110 521h166l-205 -987l-164 21l11 54q-16 -9 -31.5 -17t-31.5 -15v1q-29 -12 -59 -21.5t-57 -14.5t-54.5 -7.5t-55.5 -2.5q-72 0 -137.5 21.5t-120.5 65.5q-24 20 -46 45.5t-41 57.5q-8 14 -14.5 27t-11.5 26 q-6 15 -10 28.5t-7 24.5q-10 45 -12 96zM158.5 1123q-4.5 22 1.5 47q9 46 48 81q38 35 87 35q25 0 45 -10t32.5 -27t17 -39.5t-0.5 -47.5q-10 -45 -49 -79q-41 -32 -86 -32q-26 0 -46 9t-32.5 25t-17 38zM508 1123q-5 22 1 47q5 24 18.5 45t32 36.5t40.5 25t46 9.5 q25 0 45 -10t33 -27t17.5 -39.5t-0.5 -47.5q-5 -23 -18 -43.5t-31.5 -35.5t-41 -23.5t-45.5 -8.5q-26 0 -46.5 9t-33 25t-17.5 38z" />
<glyph unicode="&#xfd;" horiz-adv-x="1120" d="M52 961l154 61l243 -783q79 110 157 216.5t157 216.5q10 14 22.5 34.5t23.5 43t19 45.5t8 43q0 17 -12.5 32t-41.5 26l63 154q42 -16 70.5 -37t47 -46t27.5 -53.5t11 -58.5q4 -58 -17 -116t-54 -112l-425 -591q-8 -96 -16 -193t-16 -193l-5 -50q-16 2 -37.5 4.5 t-44.5 5.5t-44.5 6t-37.5 5q5 52 9.5 112.5t9.5 113.5q5 48 8.5 95t8.5 95q-72 229 -144.5 462.5t-143.5 461.5zM288 1135l257 222h305l-493 -305z" />
<glyph unicode="&#xfe;" horiz-adv-x="1400" d="M6 -296l37 176h116q45 220 90 436t90 436l137 659h-116l36 176h191l62 -155l-69 -336q146 130 338 130q98 0 178.5 -38.5t137.5 -104.5q39 -51 61.5 -113.5t22.5 -128.5q0 -25 -2.5 -49t-7.5 -48q-45 -212 -214 -348v1q-171 -141 -368 -141q-196 0 -292 135 q-27 -131 -53 -254.5t-53 -256.5h112l-37 -176h-397zM505 659q0 -87 50 -154q34 -43 84.5 -66.5t115.5 -23.5q134 0 249 95q116 98 141 228q9 40 9 71q0 86 -55 153q-73 93 -203 93q-135 0 -245 -95t-138 -229q-5 -20 -6.5 -37.5t-1.5 -34.5z" />
<glyph unicode="&#xff;" horiz-adv-x="1120" d="M52 961l154 61l243 -783q79 110 157 216.5t157 216.5q10 14 22.5 34.5t23.5 43t19 45.5t8 43q0 17 -12.5 32t-41.5 26l63 154q42 -16 70.5 -37t47 -46t27.5 -53.5t11 -58.5q4 -58 -17 -116t-54 -112l-425 -591q-8 -96 -16 -193t-16 -193l-5 -50q-16 2 -37.5 4.5 t-44.5 5.5t-44.5 6t-37.5 5q5 52 9.5 112.5t9.5 113.5q5 48 8.5 95t8.5 95q-72 229 -144.5 462.5t-143.5 461.5zM350.5 1130q-4.5 22 1.5 47q9 46 48 81q38 35 87 35q25 0 45 -10t32.5 -27t17 -39.5t-0.5 -47.5q-10 -45 -49 -79q-41 -32 -86 -32q-26 0 -46 9t-32.5 25 t-17 38zM700 1130q-5 22 1 47q5 24 18.5 45t32 36.5t40.5 25t46 9.5q25 0 45 -10t33 -27t17.5 -39.5t-0.5 -47.5q-5 -23 -18 -43.5t-31.5 -35.5t-41 -23.5t-45.5 -8.5q-26 0 -46.5 9t-33 25t-17.5 38z" />
<glyph unicode="&#x152;" horiz-adv-x="1939" d="M61 415q0 30 3 61t10 61q14 71 30 145.5t30 145.5q16 75 51.5 148t84.5 137q53 65 116.5 115.5t137.5 83.5q100 45 199 45h10q51 0 98.5 -13t91.5 -38q32 -19 57.5 -40.5t47.5 -51.5q4 18 9 39.5t8 36.5h813l-32 -156h-642l-66 -316h517l-35 -169h-517 q-23 -113 -46 -216.5t-46 -217.5h643l-32 -156h-813l17 79q-64 -53 -139 -87q-54 -25 -105.5 -38t-102.5 -13h-10q-202 0 -313 163q-75 113 -75 252zM220 439q0 -98 50 -171q38 -51 89.5 -79t115.5 -28h9q66 0 128.5 27.5t121.5 81.5q55 53 95 124t56 143q15 71 30.5 145.5 t30.5 145.5q5 25 7.5 48.5t2.5 43.5q0 97 -50 172q-72 106 -199 106h-9q-135 0 -254 -110q-56 -51 -96 -123.5t-58 -144.5q-15 -71 -30.5 -145t-29.5 -146q-10 -47 -10 -90z" />
<glyph unicode="&#x153;" horiz-adv-x="1904" d="M45 378q0 28 3 55t8 55q23 101 72.5 186.5t128.5 155.5q160 140 359 140q126 0 214.5 -53.5t138.5 -160.5q91 106 195.5 160t223.5 54q101 0 178.5 -37.5t128.5 -109.5q70 -100 70 -230q0 -57 -12 -112l-3.5 -17.5t-3.5 -16.5h-757q-2 -12 -2 -22v-20q0 -89 52 -156v1 q70 -85 193 -85q194 0 326 194l161 -29q-102 -165 -231 -246q-134 -84 -283 -84q-239 0 -343 218q-179 -218 -439 -218q-148 0 -248 80q-50 41 -81 95.5t-42 125.5v-1q-4 18 -5.5 38t-1.5 40zM211 402q0 -43 11.5 -79.5t33.5 -68.5q63 -89 193 -89q135 0 245 95 q109 94 138 228q5 20 6.5 37t1.5 34q0 29 -5 55t-16 50q-33 77 -112 116h1q-51 25 -118 25q-135 0 -241 -97q-50 -45 -82 -103t-46 -124q-5 -22 -7.5 -42t-2.5 -37zM1054 620h537q-10 36 -28 70t-43 57q-62 58 -158 58q-190 0 -308 -185z" />
<glyph unicode="&#x178;" horiz-adv-x="1078" d="M47 1328l153 62q26 -69 55 -148.5t55 -148.5q13 -35 24 -64.5t21.5 -58.5t22 -58.5t24.5 -64.5q51 66 101 129t101 128q57 72 118.5 149.5t118.5 149.5q13 -9 31 -21.5t37 -26t37 -26t31 -21.5l-525 -660q-34 -162 -68.5 -331.5t-68.5 -331.5l-164 21l138 668 q-60 160 -121.5 327t-120.5 327zM314.5 1492q-4.5 22 1.5 47q9 46 48 81q38 35 87 35q25 0 45 -10t32.5 -27t17 -39.5t-0.5 -47.5q-10 -45 -49 -79q-41 -32 -86 -32q-26 0 -46 9t-32.5 25t-17 38zM664 1492q-5 22 1 47q5 24 18.5 45t32 36.5t40.5 25t46 9.5q25 0 45 -10 t33 -27t17.5 -39.5t-0.5 -47.5q-5 -23 -18 -43.5t-31.5 -35.5t-41 -23.5t-45.5 -8.5q-26 0 -46.5 9t-33 25t-17.5 38z" />
<glyph unicode="&#x2c6;" horiz-adv-x="657" d="M-18 1055l279 302h183l154 -302h-204l-70 138q-32 -35 -65 -70.5t-63 -67.5h-214z" />
<glyph unicode="&#x2dc;" horiz-adv-x="776" d="M18 989q32 60 70 102.5t76 62.5q25 12 53.5 19t57.5 7q32 0 63.5 -11.5t62.5 -33.5h-1q54 -37 77 -37q31 0 84 84l146 -58q-113 -197 -262 -197q-49 0 -96 25l1 -1q-4 2 -21.5 14.5t-47.5 34.5q-18 11 -32 11q-35 0 -86 -85z" />
<glyph unicode="&#x2000;" horiz-adv-x="864" />
<glyph unicode="&#x2001;" horiz-adv-x="1729" />
<glyph unicode="&#x2002;" horiz-adv-x="864" />
<glyph unicode="&#x2003;" horiz-adv-x="1729" />
<glyph unicode="&#x2004;" horiz-adv-x="576" />
<glyph unicode="&#x2005;" horiz-adv-x="432" />
<glyph unicode="&#x2006;" horiz-adv-x="288" />
<glyph unicode="&#x2007;" horiz-adv-x="288" />
<glyph unicode="&#x2008;" horiz-adv-x="216" />
<glyph unicode="&#x2009;" horiz-adv-x="345" />
<glyph unicode="&#x200a;" horiz-adv-x="96" />
<glyph unicode="&#x2010;" horiz-adv-x="704" d="M36 516l34 165h550l-34 -165h-550z" />
<glyph unicode="&#x2011;" horiz-adv-x="704" d="M36 516l34 165h550l-34 -165h-550z" />
<glyph unicode="&#x2012;" horiz-adv-x="704" d="M36 516l34 165h550l-34 -165h-550z" />
<glyph unicode="&#x2013;" horiz-adv-x="959" d="M42 503l34 167h787l-34 -167h-787z" />
<glyph unicode="&#x2014;" horiz-adv-x="1601" d="M43 494l35 169h1408l-35 -169h-1408z" />
<glyph unicode="&#x2018;" horiz-adv-x="390" d="M11 1062q8 47 37.5 94t79.5 95q51 48 98.5 75t94.5 32q10 -10 12 -16.5t3 -17.5q1 -5 1.5 -11.5t1.5 -11.5q1 -11 -0.5 -20t-6.5 -19q-85 -26 -124 -70q-6 -6 -11 -16q12 -5 31 -18q49 -37 37 -108v4q-1 -1 -1 -2v-2q-1 -2 -1 -4q0 -1 -1 -1l-1 -6q-39 -105 -145 -105 h-12q-50 5 -77 41.5t-16 86.5z" />
<glyph unicode="&#x2019;" horiz-adv-x="389" d="M10 957q1 8 8 21q79 27 121 68q8 8 13 16q-78 66 -65 126l2 10q8 24 23 44.5t34.5 35.5t41.5 24t45 9q27 0 49 -10t36.5 -27.5t20 -41t0.5 -50.5q-10 -48 -40 -96t-78 -97q-96 -96 -199 -110q-4 10 -6.5 21.5t-3.5 25.5q0 3 -0.5 6.5t-0.5 7.5v2q-2 7 -1 15z" />
<glyph unicode="&#x201a;" horiz-adv-x="392" d="M12 -87q56 20 89 40.5t48 42.5q-29 6 -45.5 22.5t-24.5 45.5q-6 19 -6 37q0 47 34 90v-1q48 61 127 61q26 0 47.5 -10.5t36.5 -29.5q15 -18 20 -41.5t2 -47.5q-24 -122 -119 -206h1q-91 -83 -205 -94z" />
<glyph unicode="&#x201c;" horiz-adv-x="715" d="M29.5 1015.5q-4.5 22.5 0.5 46.5q19 93 117 189q50 48 101 75.5t105 32.5l2 -29v-17q0 -9 1 -21v-28q-85 -26 -126 -68q-9 -9 -12 -16q5 -4 10.5 -7.5t10.5 -8.5l6 -5q52 -42 38 -105q0 -3 -1 -5q0 -2 -0.5 -4.5t-0.5 -3.5q-1 -1 -1 5l-1 -7q-36 -105 -146 -105h-11 q-25 2 -44 13.5t-31.5 28.5t-17 39.5zM310 1064q19 93 117 189q99 96 204 106l10 -94q-85 -26 -131 -70q-13 -12 -20 -29q8 8 15.5 5t19.5 -11h-1q54 -39 39 -107l-2 -11q-38 -108 -146 -108h-11q-51 5 -78 41t-16 89z" />
<glyph unicode="&#x201d;" horiz-adv-x="714" d="M27 986q-1 9 0 18.5t6 20.5q119 42 136 90q-5 -1 -30 14q-23 17 -34 43.5t-3 59.5v4q0 3 2 7l-1 -6q0 1 0.5 1.5t0.5 1.5q0 8 3 12q9 22 23.5 41.5t33.5 33.5t41 22.5t45 8.5q26 0 47 -10.5t37 -29.5q31 -39 21 -88q-11 -48 -39.5 -96.5t-79.5 -96.5q-102 -98 -202 -108 q-5 25 -7 57zM170 1114v1q1 0 1 1l-1 -1v-1zM307 992q-1 10 0.5 18.5t9.5 16.5q80 29 120 67q9 9 14 19q-2 0 -10 5.5t-20 14.5q-49 39 -37 106v-5l1 2q0 1 0.5 1.5t0.5 1.5q0 3 0.5 5.5t2.5 6.5q36 107 140 107q26 0 47.5 -10t35.5 -27.5t20 -40.5t2 -48q-12 -62 -63 -133 q-113 -154 -257 -170q-5 23 -7 63zM452 1116v1q1 0 1 1z" />
<glyph unicode="&#x201e;" horiz-adv-x="714" d="M26 -110q0 11 1 18.5t6 21.5q119 43 137 90q-7 -2 -31 15q-23 17 -34 43t-3 59v5t2 6q0 4 3 9q9 22 24 42t34 34t41 22.5t45 8.5q52 0 84 -40v1q31 -40 20 -91q-11 -48 -39.5 -96t-79.5 -96q-51 -50 -100.5 -77t-100.5 -31q-4 13 -5.5 23.5t-2.5 18.5v6t-1 8zM103 142 q0 1 0.5 1.5t0.5 1.5v1zM170 19l1 1h-1v-1zM307 -103q-1 10 0.5 18.5t9.5 16.5q78 26 120 67q6 6 9.5 11t5.5 9q-5 0 -31 20q-49 37 -37 106v-6q0 1 0.5 1.5t0.5 1.5t0.5 1.5t0.5 1.5q0 9 3 12q8 22 22.5 42t33.5 34t40.5 22.5t44.5 8.5q27 0 48 -10t35.5 -27.5t20 -41 t0.5 -49.5q-5 -31 -21.5 -64.5t-42.5 -68.5q-112 -154 -256 -169q-3 12 -4.5 28t-2.5 35zM452 19l1 1h-1v-1zM452 20v1q1 0 1 1z" />
<glyph unicode="&#x2022;" horiz-adv-x="578" d="M32 616q0 12 1.5 23.5t3.5 22.5q19 91 99 156q78 63 173 63q97 0 151 -67h-1q42 -51 42 -114q0 -23 -5 -46q-18 -89 -100 -155q-80 -62 -171 -62q-95 0 -151 65q-42 51 -42 114z" />
<glyph unicode="&#x2026;" horiz-adv-x="1478" d="M52.5 78.5q-5.5 23.5 0.5 50.5q5 26 18.5 48.5t34.5 39.5q45 36 95 36q26 0 47.5 -11t35.5 -29t20 -42t2 -49q-5 -25 -19 -47.5t-36 -39.5h1q-21 -17 -44.5 -26t-49.5 -9q-27 0 -49 10t-36.5 27.5t-20 41zM576.5 78.5q-5.5 23.5 0.5 50.5q6 26 19 48.5t34 39.5 q23 17 46.5 26.5t49.5 9.5q27 0 48 -11t35 -29t19.5 -42t1.5 -49q-5 -26 -18.5 -48.5t-35.5 -39.5q-41 -34 -94 -34q-27 0 -49 10t-36.5 27.5t-20 41zM1100 129q12 54 55 88v-1q45 37 95 37q27 0 48 -11t35 -29t19.5 -42t1.5 -49q-5 -26 -18.5 -48.5t-34.5 -39.5 q-43 -34 -95 -34q-27 0 -49 10t-36.5 27.5t-20 41t-0.5 50.5z" />
<glyph unicode="&#x202f;" horiz-adv-x="345" />
<glyph unicode="&#x2039;" horiz-adv-x="601" d="M-21 510l575 493l-49 -235l-255 -269q35 -66 72.5 -131.5t72.5 -130.5l-47 -223z" />
<glyph unicode="&#x203a;" horiz-adv-x="601" d="M2 8l49 234l253 263q-35 66 -71.5 134.5t-71.5 134.5l46 223l370 -493z" />
<glyph unicode="&#x205f;" horiz-adv-x="432" />
<glyph unicode="&#x20ac;" horiz-adv-x="1295" d="M1 433l34 167h178q6 26 10.5 48.5t8.5 44t8.5 43.5t10.5 49h-177l35 167h184q29 79 80.5 153t125.5 142q157 142 342 142q163 0 269 -118q106 -116 107 -258h-157q-32 140 -108 174q-77 37 -137 37q-121 0 -224 -93q-46 -41 -79.5 -85t-53.5 -94h201l-35 -167h-210 q-5 -26 -9.5 -48.5t-9 -44t-9 -43.5t-10.5 -49h209l-34 -167h-207q-1 -7 -1 -16v-15q0 -47 15 -91t41 -82q35 -45 80.5 -69t99.5 -24q92 0 189 62q49 32 86 70t64 83h163q-38 -85 -95 -153t-131 -120q-72 -51 -149 -79t-152 -28q-138 0 -240 92q-101 93 -120 205 q-12 69 -12 131v17q0 9 1 17h-182z" />
<glyph unicode="&#x2122;" horiz-adv-x="1182" d="M30 1189l34 168h465l-34 -168h-144q-17 -81 -34.5 -166t-34.5 -166h-169l69 332h-152zM445 857l103 500h189l28 -255q33 64 67.5 128.5t66.5 126.5h191l-104 -500h-167l8 44q-7 -12 -13 -22.5t-11 -21.5h-172l-5 47q-2 -13 -5 -24.5t-5 -22.5h-171z" />
<glyph unicode="&#x25fc;" horiz-adv-x="1020" d="M0 0v1020h1020v-1020h-1020z" />
</font>
</defs>
</svg>
