<?xml version="1.0" standalone="no"?>
<!DOCTYPE svg PUBLIC "-//W3C//DTD SVG 1.1//EN" "http://www.w3.org/Graphics/SVG/1.1/DTD/svg11.dtd" >
<svg xmlns="http://www.w3.org/2000/svg" xmlns:xlink="http://www.w3.org/1999/xlink" version="1.1">
<metadata></metadata>
<defs>
<font id="dustismoregular" horiz-adv-x="1111" >
<font-face units-per-em="2048" ascent="1638" descent="-410" />
<missing-glyph horiz-adv-x="724" />
<glyph horiz-adv-x="0" />
<glyph unicode="&#xd;" horiz-adv-x="1086" />
<glyph unicode=" "  horiz-adv-x="724" />
<glyph unicode="&#x09;" horiz-adv-x="724" />
<glyph unicode="&#xa0;" horiz-adv-x="724" />
<glyph unicode="!" horiz-adv-x="375" d="M108 70q0 29 20.5 49.5t49.5 20.5t50 -20.5t21 -49.5t-21 -49.5t-50 -20.5t-49.5 20.5t-20.5 49.5zM114 302v1049h143v-1049h-143z" />
<glyph unicode="&#x22;" horiz-adv-x="657" d="M103 898h132v457h-132v-457zM411 898h132v457h-132v-457z" />
<glyph unicode="#" horiz-adv-x="1132" d="M33 250l39 134h200l54 207h-203l36 134h200l61 232h138l-58 -232h214l60 232h136l-59 -232h181l-33 -134h-183l-53 -207h182l-35 -134h-182l-65 -250h-139l67 250h-215l-65 -250h-137l65 250h-206zM410 384h216l53 207h-213z" />
<glyph unicode="$" horiz-adv-x="875" d="M33 403h141q17 -35 54 -55.5t113 -20.5v292q-82 0 -133.5 17.5t-90.5 49.5t-61.5 78.5t-22.5 104.5q0 59 22 109.5t60 88t88.5 60t137.5 25.5v203h134v-203q87 0 133 -16.5t83.5 -45t64 -68t37.5 -84.5h-141q-20 34 -57.5 57t-119.5 23v-282q92 0 143 -22.5t90 -60.5 t62 -88.5t23 -105.5q0 -57 -23 -105.5t-62 -84t-90 -56t-143 -20.5v-193h-134v193q-80 0 -125 16t-82 44t-63 66.5t-38 83.5zM163 869q0 -29 12 -53t33.5 -42t50.5 -28t82 -10v282q-53 0 -82 -12t-50.5 -32t-33.5 -47.5t-12 -57.5zM475 327q57 0 88.5 9.5t55 27t37.5 41.5 t14 54q0 29 -12 57.5t-33 51.5t-50 37t-100 14v-292z" />
<glyph unicode="%" horiz-adv-x="1281" d="M40 1094q0 55 21.5 103t58 83t85.5 55t103 20q55 0 104 -20t86 -55t58 -83t21 -103q0 -56 -21 -103.5t-58 -83t-86 -55.5t-104 -20q-54 0 -103 20t-85.5 55.5t-58 83t-21.5 103.5zM174 1094q0 -27 10 -50.5t28 -41.5t42.5 -28t53.5 -10q28 0 53 10t43.5 28t29.5 41.5 t11 50.5q0 25 -11 48.5t-29.5 41t-43.5 28t-53 10.5q-29 0 -53.5 -10.5t-42.5 -28t-28 -41t-10 -48.5zM334 0l401 1355h138l-398 -1355h-141zM633 262q0 55 20.5 103t56.5 83.5t84.5 55.5t104.5 20q54 0 102.5 -20t85 -55.5t58 -83.5t21.5 -103q0 -56 -21.5 -104t-58 -83 t-85 -55t-102.5 -20q-56 0 -104.5 20t-84.5 55t-56.5 83t-20.5 104zM767 262q0 -26 10 -49t27.5 -40.5t41.5 -28t53 -10.5q28 0 52.5 10.5t42.5 28t28 40.5t10 49q0 25 -10 48.5t-28 41.5t-42.5 28.5t-52.5 10.5q-29 0 -53 -10.5t-41.5 -28.5t-27.5 -41.5t-10 -48.5z" />
<glyph unicode="&#x26;" horiz-adv-x="982" d="M49 330q0 49 15 87.5t42 69.5t64.5 55.5t82.5 45.5l-79 107q-20 23 -32 54t-12 60q0 60 22 107.5t60 80.5t88 51t106 18q54 0 100.5 -18.5t80.5 -53t53.5 -83.5t19.5 -110q0 -62 -17.5 -104t-46 -72t-63.5 -51.5t-70 -40.5l235 -276q11 15 19.5 26.5t14 22.5t8.5 23t3 28 v5h145v-5q0 -60 -29.5 -108.5t-80.5 -100.5l61 -79l-111 -73l-54 69q-25 -15 -59 -27t-70 -20.5t-71.5 -13t-63.5 -4.5q-82 0 -148.5 25.5t-114 70t-73 104.5t-25.5 130zM192 328q0 -44 14.5 -80.5t41 -62.5t64.5 -40.5t85 -14.5h13q18 0 43 2.5t51.5 7t51.5 11.5t42 16 l-269 329q-30 -12 -55 -27.5t-43 -35.5t-28.5 -45.5t-10.5 -57.5v-2zM269 818q0 -13 3 -25q5 -15 23.5 -42.5t39 -54t36.5 -46.5l16 -20q23 11 48 26t46 37t34.5 52t13.5 71q0 29 -10.5 51.5t-28.5 38.5t-41 24t-48 8q-23 0 -46 -9t-42.5 -24.5t-31.5 -37.5t-12 -49z" />
<glyph unicode="'" horiz-adv-x="360" d="M113 898h132v457h-132v-457z" />
<glyph unicode="(" horiz-adv-x="485" d="M74 478q0 32 2 84t7.5 115.5t16 135t27.5 142.5t41.5 137.5t58.5 120.5t78 91.5t100 50.5v-109q-11 -7 -25 -17.5t-29 -30.5t-31.5 -54t-32.5 -89q-15 -51 -29 -115t-25.5 -137t-18 -151.5t-6.5 -157.5v-8q0 -83 6 -164t17 -156.5t25 -142.5t31 -121q16 -54 33 -88 t32 -54t28.5 -29.5t24.5 -15.5v-114q-56 13 -99.5 50.5t-77 91.5t-58 120t-42 137t-28 142.5t-16.5 135t-8 115.5t-2 85z" />
<glyph unicode=")" horiz-adv-x="455" d="M49 -289q12 7 25 17.5t28 31t31.5 54.5t33.5 88q16 52 30.5 118.5t25 141.5t17 156t6.5 164q0 82 -6.5 162.5t-17.5 154.5t-25 139.5t-30 116.5q-17 54 -32.5 88t-30 54t-27.5 30t-24 15v113q55 -13 98.5 -50.5t77 -91.5t57.5 -120.5t41 -137.5t27.5 -142.5t16 -135 t7.5 -115.5t2 -84q0 -33 -2 -85.5t-8 -116.5t-16.5 -135t-28 -142t-42 -137t-58 -120t-77.5 -91t-99 -50v110z" />
<glyph unicode="*" horiz-adv-x="778" d="M44 580v101h202l-163 163l68 72l164 -169v210h98v-210l167 169l69 -68l-167 -167h209v-101h-209l163 -163l-65 -69l-167 164v-201h-98v201l-160 -160l-69 69l160 159h-202z" />
<glyph unicode="+" horiz-adv-x="794" d="M41 459v130h282v299h131v-299h278v-130h-278v-292h-131v292h-282z" />
<glyph unicode="," horiz-adv-x="360" d="M52 -123h1q19 6 39.5 17.5t38 26t29.5 31t14 34.5v3q0 6 -15 12t-32.5 17.5t-32.5 32t-15 55.5v10q6 42 37 70t73 28q22 0 42 -8.5t35.5 -22.5t25 -34t9.5 -42q0 -46 -22 -95.5t-55.5 -90.5t-75 -69.5t-80.5 -32.5q-1 2 -4.5 13t-7.5 25.5t-4 18.5v1z" />
<glyph unicode="-" horiz-adv-x="709" d="M72 528v132h523v-132h-523z" />
<glyph unicode="." horiz-adv-x="390" d="M72 109q0 23 8.5 43.5t23.5 35.5t35 23.5t43 8.5t43 -8.5t34.5 -23.5t23 -35.5t8.5 -43.5t-8.5 -42.5t-23 -34.5t-34.5 -23.5t-43 -8.5t-43 8.5t-35 23.5t-23.5 34.5t-8.5 42.5z" />
<glyph unicode="/" horiz-adv-x="601" d="M14 0l403 1355h137l-399 -1355h-141z" />
<glyph unicode="0" horiz-adv-x="989" d="M57 373v211q0 77 34.5 145t91.5 118.5t131 80t152 29.5q76 0 150 -29.5t131.5 -80t93 -118.5t35.5 -145v-211q0 -77 -35.5 -145t-93 -118.5t-131.5 -80t-150 -29.5q-78 0 -152 29.5t-131 80t-91.5 118.5t-34.5 145zM189 362q0 -50 24.5 -92t63.5 -73.5t88.5 -49 t99.5 -17.5q51 0 101 18.5t89.5 50.5t64 76.5t24.5 95.5v211q0 54 -25 99.5t-64.5 77.5t-89.5 50t-100 18t-99.5 -17t-88.5 -48t-63.5 -74.5t-24.5 -95.5v-221v-9z" />
<glyph unicode="1" horiz-adv-x="416" d="M53 0v130h88v630h-88v98h23q33 0 65 23q8 0 15 9t12.5 21.5t9 25t3.5 20.5h91v-827h69v-130h-288z" />
<glyph unicode="2" horiz-adv-x="1040" d="M68 0v130q0 63 29.5 114.5t80 90.5t116 65.5t137.5 40.5q12 1 37 6.5t57 14t67 20t67.5 24.5t59 27t41.5 28q11 20 16.5 38.5t5.5 38.5q0 31 -19.5 64t-57 60t-91 45t-120.5 20q-70 -2 -124.5 -20t-92 -45t-57.5 -60t-20 -64v-4h-132v4q0 73 36.5 132t96 100.5t136 64 t156.5 22.5q78 0 153.5 -22.5t135 -64t95.5 -100.5t36 -132q0 -31 -5.5 -61.5t-19.5 -55.5q-16 -32 -56 -60t-90.5 -51.5t-104.5 -42.5t-99 -32t-74 -20l-29 -7q-111 -23 -171.5 -70t-63.5 -108h702v-130h-834z" />
<glyph unicode="3" horiz-adv-x="1031" d="M40 0h132v-4q2 -57 26.5 -104t65.5 -80t96 -51t118 -18q65 0 121.5 19.5t98 55t65 84t23.5 105.5q0 55 -24 107.5t-66 93t-98 65t-174 24.5v127q92 1 135.5 16.5t74 42t47.5 60.5t17 73q0 38 -18.5 75.5t-52 67.5t-80 49t-101.5 19q-105 0 -177 -60h-171q24 43 61 78 t82.5 60t97.5 38.5t106 13.5q76 0 146 -25.5t123 -71.5t84.5 -108.5t31.5 -135.5q0 -49 -13.5 -88.5t-37.5 -70.5t-57.5 -53.5t-72.5 -37.5q62 -21 111.5 -56t84.5 -82t54 -104.5t19 -123.5q0 -83 -34.5 -154t-94 -123t-140 -81t-171.5 -29t-171 29t-139 80t-93.5 121 t-34.5 157z" />
<glyph unicode="4" horiz-adv-x="903" d="M11 0v130l504 827h189v-827h100v-130h-100v-399h-132v399h-561zM154 130h418v673z" />
<glyph unicode="5" horiz-adv-x="992" d="M68 -50q41 -45 74 -85t76 -70t93 -47t104 -17q72 0 136 29.5t112 78.5t76 113.5t28 135.5q0 69 -27 123.5t-73.5 92t-110 57t-136.5 19.5q-69 0 -132.5 -24t-106.5 -67h-109v668h675v-130h-543v-364q49 23 102.5 36t113.5 13q99 0 186 -29.5t152.5 -85t103 -134 t37.5 -175.5q0 -98 -38 -186.5t-103 -155.5t-153 -106t-188 -39q-103 0 -191.5 39.5t-157.5 105.5q1 0 0 204z" />
<glyph unicode="6" horiz-adv-x="1024" d="M49 391v72q0 192 45 355.5t126.5 282.5t195 186.5t251.5 67.5h50v-133h-50q-72 0 -142 -32.5t-130.5 -98.5t-109 -165t-76.5 -231q57 39 127 66.5t149 27.5q89 0 169.5 -31.5t141 -85.5t96 -126.5t35.5 -154.5q0 -81 -35 -152.5t-95 -124.5t-140.5 -83.5t-171.5 -30.5 q-90 0 -169 30.5t-138.5 83.5t-94 124.5t-34.5 152.5zM181 406q0 -69 24 -121t65 -86.5t96 -51.5t118 -17h2q65 0 121.5 18.5t98 52t65.5 79.5t24 101v16q0 55 -23 103t-63 83t-94 55.5t-116 20.5h-14h-15q-60 0 -112.5 -19.5t-92 -53.5t-62 -80t-22.5 -100z" />
<glyph unicode="7" horiz-adv-x="1044" d="M36 827v130h935l-675 -1356h-148l605 1226h-717z" />
<glyph unicode="8" horiz-adv-x="1035" d="M49 391q0 54 15 103.5t42.5 92t65.5 77.5t85 61q-66 49 -103.5 119.5t-37.5 158.5q0 73 30 137.5t81.5 112t119 75t142.5 27.5q76 0 143.5 -27.5t118 -75.5t80 -112.5t29.5 -138.5q0 -88 -38.5 -157.5t-104.5 -118.5q97 -54 152.5 -139t55.5 -195q0 -84 -35.5 -155.5 t-95.5 -124t-140 -82t-169 -29.5q-87 0 -166 29.5t-139 82t-95.5 124t-35.5 155.5zM181 391q0 -51 23 -98.5t63.5 -83.5t96.5 -57.5t121 -21.5q67 0 123.5 21.5t97.5 57.5t64 83.5t23 98.5q0 49 -20 93.5t-56 79t-85.5 57t-107.5 28.5h-72q-59 -6 -108.5 -29t-85.5 -57.5 t-56.5 -78.5t-20.5 -93zM248 1003q0 -42 17 -80t46 -68t69 -49t86 -23h42q48 4 88.5 22.5t70 48t45.5 67.5t16 82v2q0 43 -18 82.5t-50.5 70t-76.5 49t-95 20.5q-50 -2 -93.5 -21t-76 -49.5t-51.5 -70.5t-19 -83z" />
<glyph unicode="9" horiz-adv-x="1021" d="M37 565q0 82 34.5 153.5t94.5 124.5t139.5 83.5t169.5 30.5q91 0 170.5 -30.5t139 -83.5t94 -124.5t34.5 -153.5v-72q0 -192 -45 -355.5t-127 -282.5t-195.5 -186.5t-249.5 -67.5h-50v130h51q116 0 216 76t185 225q58 101 62 232q-63 -42 -134.5 -67.5t-150.5 -25.5 q-92 0 -172 30t-139 83t-93 125t-34 156zM163 565q0 -60 23.5 -108.5t65.5 -83t99 -53t124 -19.5q5 0 9.5 -0.5t9.5 -0.5q61 0 113.5 19t91.5 53t61 80t22 99q0 67 -23.5 119t-64.5 86.5t-97 52.5t-122 18q-65 0 -122 -18.5t-99 -53t-66.5 -82.5t-24.5 -108z" />
<glyph unicode=":" horiz-adv-x="399" d="M92 113q0 23 8.5 43.5t23 35.5t34.5 24t43 9t43 -9t35 -24t23.5 -35.5t8.5 -43.5t-8.5 -42.5t-23.5 -34.5t-35 -23.5t-43 -8.5t-43 8.5t-34.5 23.5t-23 34.5t-8.5 42.5zM92 853q0 22 8.5 41.5t23 34.5t34.5 24t43 9t43 -9t35 -24t23.5 -34.5t8.5 -41.5q0 -23 -8.5 -43.5 t-23.5 -35.5t-35 -24t-43 -9t-43 9t-34.5 24t-23 35.5t-8.5 43.5z" />
<glyph unicode=";" horiz-adv-x="390" d="M65 -134q19 7 40 18.5t39 25.5t30 30.5t14 33.5v3q0 7 -15 13t-32.5 17t-32.5 31.5t-15 56.5v11q6 41 37 69t72 28q22 0 42.5 -8.5t36 -23t25 -34.5t9.5 -42q0 -45 -21.5 -94.5t-55.5 -91t-75 -70t-81 -32.5l-2.5 8t-6 18t-6 19.5t-2.5 12.5v1zM93 853q0 22 8.5 41.5 t23.5 34.5t35 24t43 9q22 0 42.5 -9t35.5 -24t24 -34.5t9 -41.5q0 -23 -9 -43.5t-24 -35.5t-35.5 -24t-42.5 -9q-23 0 -43 9t-35 24t-23.5 35.5t-8.5 43.5z" />
<glyph unicode="&#x3c;" horiz-adv-x="664" d="M76 492v171l475 491v-178l-369 -401l369 -397v-178z" />
<glyph unicode="=" horiz-adv-x="785" d="M72 319v133h637v-133h-637zM72 626v134h637v-134h-637z" />
<glyph unicode="&#x3e;" horiz-adv-x="664" d="M110 0l475 492v171l-475 491v-178l369 -401l-369 -397v-178z" />
<glyph unicode="?" horiz-adv-x="798" d="M37 999q0 92 27 153t74 106t109 71t133 26q69 0 132 -26t110 -71t75 -106t28 -130q0 -66 -14.5 -111t-42 -77.5t-67 -55t-75 -37t-60 -27t-45 -40.5t-34.5 -78t-14 -133l-1 -163h-131l1 175q1 85 16 144.5t39.5 101t55.5 68.5t63 46t63 33.5t55 31.5t38.5 40t14.5 59 q0 63 -15.5 105.5t-43 68.5t-65.5 37.5t-83 11.5t-83 -16t-66.5 -43t-44.5 -63.5t-16 -100.5h-133zM238 70q0 29 20.5 49.5t49.5 20.5t50 -20.5t21 -49.5t-21 -49.5t-50 -20.5t-49.5 20.5t-20.5 49.5z" />
<glyph unicode="@" horiz-adv-x="1797" d="M163 660q0 96 24.5 190.5t70.5 180.5t113.5 160t152.5 128t187.5 84.5t219.5 30.5q83 0 167.5 -20t162.5 -58.5t145.5 -94.5t118 -128.5t79 -161t28.5 -190.5q0 -22 -1.5 -40.5t-3.5 -33.5q-14 -136 -43 -227.5t-69.5 -147.5t-90.5 -80t-106 -24q-45 0 -76.5 15.5 t-51.5 40t-30 55t-11 60.5q-66 -78 -156.5 -120.5t-199.5 -42.5q-83 0 -151.5 29.5t-118 80.5t-77 120t-27.5 148q0 110 47 207.5t124.5 171t176.5 116.5t204 43q106 0 179 -45t111 -120l25 107h102q-83 103 -201 155t-249 52q-94 0 -178 -24.5t-155.5 -68.5t-129 -104 t-97.5 -131.5t-61.5 -151t-21.5 -162.5q0 -135 46 -244t120 -185.5t166.5 -118t186.5 -41.5t191.5 31t197.5 89l65 -118q-114 -66 -228.5 -99.5t-224.5 -33.5q-79 0 -158 22.5t-151 65t-135 105t-109 142.5t-72.5 177t-26.5 209zM547 632q0 -57 19 -105.5t54.5 -85t86 -57.5 t112.5 -22h8q78 0 147 32.5t120.5 87.5t81.5 127.5t30 153.5q0 56 -17.5 104t-50.5 83.5t-81 56t-109 22.5h-6q-77 0 -148 -32t-126 -86t-88 -126t-33 -153zM1280 421q0 -26 16 -45t48 -19h3q6 0 30.5 18.5t52.5 65.5t50 127t22 202q0 73 -22 151t-71 145l-127 -628 q-1 -5 -1.5 -8.5t-0.5 -8.5z" />
<glyph unicode="A" horiz-adv-x="1150" d="M57 0l406 1355h160l406 -1355h-141l-156 517h-384l-156 -517h-135zM387 649h308l-152 510z" />
<glyph unicode="B" horiz-adv-x="1120" d="M72 0v1355h428q88 0 168.5 -27.5t142 -78t98 -120.5t36.5 -154q0 -91 -44 -167t-119 -127q48 -23 89 -55t71 -72t47 -87.5t17 -100.5q0 -84 -38 -152t-100 -115.5t-142.5 -73t-164.5 -25.5h-489zM204 130h357q75 0 134.5 23.5t100.5 59t62.5 76.5t21.5 77q0 38 -22 78 t-63 72.5t-100 53.5t-134 21h-357v-461zM204 725h299q69 0 126 21t97.5 56t62.5 80t22 93q0 46 -22.5 91t-63 80.5t-96 57t-122.5 21.5h-4h-299v-500z" />
<glyph unicode="C" horiz-adv-x="1104" d="M57 528v299q0 107 36.5 203t101 168t151.5 114.5t189 42.5q85 0 161 -30.5t136.5 -84.5t103.5 -126.5t63 -156.5h-126q-18 60 -51 109.5t-76 84.5t-94.5 54.5t-115.5 19.5q-80 0 -141 -29t-107.5 -80.5t-73.5 -121.5t-27 -151v-331q0 -83 28 -153t75.5 -121t110.5 -79.5 t133 -28.5q55 0 105.5 16.5t93.5 48t77 76.5t55 102h125q-21 -80 -64 -148t-102.5 -118t-133 -78.5t-155.5 -28.5q-102 0 -189 42.5t-151.5 114.5t-101 168t-36.5 203z" />
<glyph unicode="D" horiz-adv-x="1097" d="M72 0v1355h428q102 0 189 -42.5t151.5 -114.5t101 -168t36.5 -203v-299q0 -107 -36.5 -203t-101 -168t-151.5 -114.5t-189 -42.5h-428zM204 130h296q73 0 137 30t110.5 83t73.5 126t27 159v299q0 88 -26 161t-72 125.5t-110 82t-140 29.5h-296v-1095z" />
<glyph unicode="E" horiz-adv-x="944" d="M72 0v1355h793v-130h-661v-428h531v-130h-531v-537h661v-130h-793z" />
<glyph unicode="F" horiz-adv-x="923" d="M72 0v1355h793v-130h-661v-424h531v-134h-531v-667h-132z" />
<glyph unicode="G" horiz-adv-x="1139" d="M57 528v299q0 103 31 198t88 168.5t138 117.5t182 44h76q102 0 183.5 -44t138.5 -117.5t88 -168.5t31 -198h-130q0 78 -22.5 150t-63.5 127t-98 88t-127 33h-76q-79 0 -137 -31.5t-96.5 -85.5t-57 -126.5t-18.5 -154.5v-316q0 -77 24 -143.5t66 -117t98 -82t119 -38.5h76 q55 7 108 28t96 57.5t71.5 89t34.5 123.5v68h-228v123h361v-619h-130v152q-63 -69 -140 -106.5t-171 -45.5h-76q-94 9 -174 54t-139 116t-92.5 163t-33.5 195z" />
<glyph unicode="H" horiz-adv-x="1040" d="M72 0v1355h132v-708h570v708h132v-1355h-132v517h-570v-517h-132z" />
<glyph unicode="I" horiz-adv-x="612" d="M49 0v130h171v1096h-171v129h479v-129h-176v-1096h176v-130h-479z" />
<glyph unicode="J" horiz-adv-x="955" d="M14 391v126h130v-132q4 -52 29.5 -98.5t64.5 -81t88 -55t100 -20.5q55 0 105 21t88 57t60.5 83t22.5 100v834h-194v130h326v-971q-3 -80 -36 -150t-88 -122t-127.5 -82t-154.5 -30q-80 0 -154.5 30.5t-132 83.5t-92.5 124.5t-35 152.5z" />
<glyph unicode="K" horiz-adv-x="1154" d="M61 0v1355h131v-630l627 630h187l-550 -554l576 -801h-163l-510 702l-167 -166v-536h-131z" />
<glyph unicode="L" horiz-adv-x="911" d="M72 0v1355h132v-1225h596v-130h-728z" />
<glyph unicode="M" horiz-adv-x="1395" d="M72 0v1355h167l417 -834l417 834h172v-1355h-133v1131l-380 -758h-148l-380 758v-1131h-132z" />
<glyph unicode="N" horiz-adv-x="1166" d="M72 0v1355h155l668 -1130v1130h132v-1355h-154l-669 1135v-1135h-132z" />
<glyph unicode="O" horiz-adv-x="1132" d="M57 528v299q0 107 36 202t99.5 167t150.5 114.5t188 44.5h9q98 -2 185.5 -44.5t153.5 -114.5t104.5 -167t38.5 -202v-299q-4 -108 -42 -203t-102.5 -166.5t-151 -114t-186.5 -44.5h-9q-101 1 -188 44t-150.5 115t-99.5 167.5t-36 201.5zM187 512q0 -81 27 -150.5t73 -121 t108 -81t131 -29.5h15h6q69 0 131.5 31t110 84.5t75.5 126t28 156.5v299q0 85 -28.5 158t-76.5 126t-111.5 83.5t-134.5 30.5h-3h-12q-69 0 -130.5 -29t-108 -80t-73.5 -121t-27 -152v-315v-16z" />
<glyph unicode="P" horiz-adv-x="1060" d="M72 0v1355h384q106 0 202 -32t168.5 -88.5t115.5 -132.5t43 -164q0 -90 -43 -167t-115.5 -133.5t-168.5 -88.5t-202 -32h-252v-517h-132zM204 647h252q88 0 161 21.5t126 60t82.5 92t29.5 117.5t-29 116.5t-82 90.5t-126.5 59t-161.5 21h-252v-578z" />
<glyph unicode="Q" horiz-adv-x="1139" d="M57 528v299q0 107 36 202t99.5 167t150.5 114.5t188 44.5h9q100 -2 186.5 -44.5t150.5 -114.5t100 -167t36 -202v-299q0 -93 -27 -175t-76 -151l103 -114v-88h-100l-94 102q-60 -49 -130 -75.5t-149 -26.5h-9q-101 1 -188 44t-150.5 115t-99.5 167.5t-36 201.5zM178 528 q0 -86 28.5 -158.5t77 -125.5t112.5 -83t135 -31h9q109 0 195 63l-137 148l100 91l125 -139q32 48 50.5 108.5t18.5 126.5v299q0 85 -28.5 158t-76.5 126t-111.5 83.5t-134.5 30.5h-3h-12q-70 0 -133 -30.5t-111 -83.5t-76 -126t-28 -158v-299z" />
<glyph unicode="R" horiz-adv-x="1097" d="M72 0v1355h384q106 0 202 -32t168.5 -88.5t115.5 -132.5t43 -164q0 -74 -29.5 -140t-81 -119t-122.5 -90t-154 -53l297 -536h-152l-287 517h-252v-517h-132zM204 647h271q81 0 150.5 23t120.5 62.5t80 92.5t29 113q0 63 -29.5 116t-82.5 92t-126 61t-161 22h-252v-582z " />
<glyph unicode="S" horiz-adv-x="1125" d="M53 373l130 1q0 -49 22 -93.5t65.5 -78t108.5 -53t150 -19.5q82 0 149.5 19.5t114.5 53t73 77.5t26 92v1q0 45 -25.5 89t-71.5 79.5t-111 57.5t-144 24l-9 3q-91 0 -177 26.5t-153 75t-107.5 116t-40.5 148.5t40.5 147.5t107.5 114.5t153 74.5t177 26.5q90 0 177.5 -27 t157.5 -75.5t113 -114.5q39 -61 39 -161v-19l-130 -1q3 8 4 82q-50 84 -97 116t-114 50.5t-152 18.5q-86 0 -150.5 -18t-108 -49t-65.5 -73.5t-22 -90.5q0 -49 22 -92t65 -75.5t107 -51t148 -18.5l9 -3q59 -2 118.5 -16t113.5 -39t101 -59t81.5 -76t54 -90.5t19.5 -100.5 q0 -82 -43 -150t-112.5 -117.5t-157.5 -77t-178 -27.5q-91 0 -177 26.5t-153 75.5t-107.5 118t-40.5 153z" />
<glyph unicode="T" horiz-adv-x="1060" d="M21 1222v133h957v-133h-417v-1222h-133v1222h-407z" />
<glyph unicode="U" horiz-adv-x="1150" d="M65 528v827h130v-845q0 -83 27.5 -152.5t74.5 -120t110.5 -79t135.5 -28.5q71 0 134.5 28.5t111 79.5t75.5 121.5t28 154.5v841h130v-827q0 -107 -37 -203t-102 -168t-152.5 -114.5t-187.5 -42.5q-102 0 -189 42.5t-151.5 114.5t-101 168t-36.5 203z" />
<glyph unicode="V" horiz-adv-x="1081" d="M33 1355h137l338 -1123l343 1123h134l-405 -1355h-141z" />
<glyph unicode="W" horiz-adv-x="1459" d="M53 1355h135l188 -1059l246 1059h129l252 -1059l185 1059h137l-243 -1355h-141l-253 1071l-257 -1071h-135z" />
<glyph unicode="X" horiz-adv-x="1129" d="M57 0l399 684l-391 671h151l315 -543l320 543h152l-391 -671l394 -684h-151l-324 551l-318 -551h-156z" />
<glyph unicode="Y" horiz-adv-x="1048" d="M26 1355h152l315 -543l318 543h153l-403 -674v-681h-133v681z" />
<glyph unicode="Z" horiz-adv-x="1031" d="M49 0v156l715 1074h-714v125h877v-144l-728 -1081h730v-130h-880z" />
<glyph unicode="[" horiz-adv-x="456" d="M72 -327v1613l65 69h227v-133h-160v-1480h160v-133h-227z" />
<glyph unicode="\" horiz-adv-x="605" d="M14 1355h137l403 -1355h-141z" />
<glyph unicode="]" horiz-adv-x="481" d="M88 -258h158v1480h-158v133h223l69 -64v-1618l-69 -64h-223v133z" />
<glyph unicode="^" horiz-adv-x="1028" d="M61 877l340 478h167l342 -478h-163l-262 365l-261 -365h-163z" />
<glyph unicode="_" horiz-adv-x="1072" d="M72 0v134h866v-134h-866z" />
<glyph unicode="`" horiz-adv-x="662" d="M97 1355l377 -268l58 57l-200 211h-235z" />
<glyph unicode="a" horiz-adv-x="1125" d="M57 322q0 70 31 129t82.5 102t119 67.5t141.5 24.5q186 2 225 3.5t72.5 4t58 6t32.5 8.5q-1 31 -14.5 60t-36 51.5t-52.5 35.5t-64 13h-258q-34 0 -64 -14.5t-53 -38.5t-36.5 -54.5t-13.5 -63.5h-132q0 63 24 117.5t65 95.5t95 64.5t115 23.5h258q63 0 117.5 -23.5 t95.5 -64.5t64.5 -95.5t23.5 -117.5v-399q0 -36 2.5 -59.5t8.5 -38.5t15.5 -23t23.5 -13l-50 -123q-45 17 -69 42.5t-38 55.5q-51 -46 -122 -72t-152 -26h-141q-74 0 -141.5 24.5t-119 67.5t-82.5 102t-31 128zM187 321q2 -34 20.5 -68t51 -61.5t76 -44.5t96.5 -17h141 q54 4 99.5 21t78.5 42.5t51 58.5t18 70v206q-21 -5 -54 -8.5t-71 -5.5t-149.5 -2h-113.5q-53 0 -96.5 -16.5t-76 -43t-51 -61t-20.5 -70.5z" />
<glyph unicode="b" horiz-adv-x="1113" d="M72 0v1355h132v-572q57 79 145.5 126.5t200.5 47.5q98 0 185 -37.5t152.5 -102.5t103.5 -152t38 -187q0 -99 -38 -186.5t-103.5 -152t-152.5 -102t-185 -37.5q-112 0 -200.5 47.5t-145.5 126.5v-174h-132zM209 478q0 -72 26 -135.5t71.5 -111t108 -74.5t135.5 -27 q72 0 136 27t111 74.5t74.5 111t27.5 135.5q0 73 -27.5 136.5t-74.5 110.5t-111 74.5t-136 27.5q-73 0 -135.5 -27.5t-108 -74.5t-71.5 -110.5t-26 -136.5z" />
<glyph unicode="c" horiz-adv-x="985" d="M49 486q0 100 38.5 186t104.5 149.5t153.5 99.5t185.5 36q66 0 116 -10.5t90 -28.5t70.5 -43t57.5 -55v-178q-63 90 -147 137.5t-190 47.5q-73 0 -136 -26t-110 -71.5t-74 -108t-27 -135.5t27.5 -136t75 -110.5t111 -76.5t136.5 -33q51 0 102.5 11.5t96.5 31.5t80.5 45.5 t54.5 54.5v-167q-31 -29 -62.5 -48t-70 -31t-87 -18t-114.5 -9q-98 0 -185.5 38.5t-153.5 104.5t-104.5 154.5t-38.5 188.5z" />
<glyph unicode="d" horiz-adv-x="1113" d="M21 478q0 100 38 187t103.5 152t152.5 102.5t185 37.5q112 0 200.5 -47.5t145.5 -126.5v572h132v-1355h-132v174q-57 -79 -145.5 -126.5t-200.5 -47.5q-98 0 -185 37.5t-152.5 102t-103.5 152t-38 186.5zM155 478q0 -72 27.5 -135.5t74.5 -111t110.5 -74.5t135.5 -27 q73 0 136 27t109 74.5t72 111t26 135.5q0 73 -26 136.5t-72 110.5t-109 74.5t-136 27.5q-72 0 -135.5 -27.5t-110.5 -74.5t-74.5 -110.5t-27.5 -136.5z" />
<glyph unicode="e" horiz-adv-x="1120" d="M53 478q0 100 38 187t103 152t152 102.5t185 37.5t185 -37.5t152.5 -102.5t103.5 -152t38 -187v-15h-829q3 -69 33.5 -130t80 -106t113.5 -71t135 -26q53 0 104.5 14t96 40t80 62.5t56.5 80.5l130 -23q-27 -67 -75 -122.5t-109.5 -96t-134 -63t-148.5 -22.5 q-99 0 -187.5 37.5t-156 102t-107 152t-39.5 186.5zM198 593h662q-17 52 -49 95t-75.5 74t-96 48t-108.5 17q-57 0 -108.5 -17.5t-94.5 -48.5t-76.5 -74t-53.5 -94z" />
<glyph unicode="f" horiz-adv-x="485" d="M33 827v130h78v98q0 63 23.5 117.5t64 95t95 64t116.5 23.5h21v-133h-21q-35 0 -65 -13.5t-53 -36.5t-36 -53t-13 -64v-98h188v-130h-188v-827h-132v827h-78z" />
<glyph unicode="g" horiz-adv-x="1100" d="M53 478q0 100 34 187t94.5 152t144 102.5t182.5 37.5q111 0 192.5 -47.5t138.5 -131.5v179h132v-888q-4 -97 -40.5 -181.5t-98 -147t-144.5 -98.5t-180 -36q-87 0 -161.5 28.5t-132.5 79.5t-97.5 120.5t-55.5 151.5l127 21q13 -59 41 -108.5t68.5 -85.5t94 -56.5 t117.5 -20.5q74 0 133 27t101 74t66.5 110.5t29.5 135.5v91q-57 -79 -138.5 -126.5t-192.5 -47.5q-99 0 -182.5 37.5t-144 102t-94.5 152t-34 186.5zM181 478q0 -72 24 -135.5t67 -111t103.5 -74.5t132.5 -27q73 0 133 27t103 74.5t66.5 111t23.5 135.5q0 73 -23.5 136.5 t-66.5 110.5t-103 74.5t-133 27.5q-72 0 -132.5 -27.5t-103.5 -74.5t-67 -110.5t-24 -136.5z" />
<glyph unicode="h" horiz-adv-x="1051" d="M72 0v1355h132v-572q57 79 142 126.5t197 47.5q98 0 175.5 -37t131.5 -100.5t83 -149.5t31 -184v-486h-130v478q0 73 -18.5 136.5t-55 110.5t-91 74.5t-126.5 27.5q-73 0 -134.5 -27.5t-105.5 -74.5t-69 -110.5t-25 -136.5h-5v-478h-132z" />
<glyph unicode="i" horiz-adv-x="291" d="M65 0v957h132v-957h-132zM65 1152q0 24 19.5 43t45.5 19q28 0 47.5 -19t19.5 -43q0 -30 -19.5 -49.5t-47.5 -19.5q-26 0 -45.5 19.5t-19.5 49.5z" />
<glyph unicode="j" horiz-adv-x="420" d="M11 -265h22q34 0 64 13t53 36t36.5 53t13.5 65v1055h134v-1055q0 -63 -23.5 -117.5t-64.5 -95.5t-95.5 -64.5t-117.5 -23.5h-22v134zM200 1155q0 28 20 47.5t44 19.5q30 0 50 -19.5t20 -47.5q0 -26 -20 -45.5t-50 -19.5q-24 0 -44 19.5t-20 45.5z" />
<glyph unicode="k" horiz-adv-x="844" d="M72 0v1355h132v-699l437 331l87 -99l-330 -254l384 -634h-156l-337 554l-85 -65v-489h-132z" />
<glyph unicode="l" horiz-adv-x="391" d="M148 0v1355h132v-1355h-132z" />
<glyph unicode="m" horiz-adv-x="1547" d="M72 0v957h132v-106q40 49 100 77.5t148 28.5q114 0 186.5 -50t112.5 -136q34 85 105 135.5t187 50.5q98 0 165.5 -37t109 -100.5t60 -149.5t18.5 -184v-486h-132v486q0 70 -7.5 132t-31 108.5t-67 73.5t-115.5 27q-67 0 -112.5 -21.5t-73 -65t-39.5 -109t-12 -153.5v-478 h-132v478q0 73 -7.5 136.5t-31 110.5t-67.5 74.5t-116 27.5q-73 0 -121 -27.5t-76 -74.5t-39.5 -110.5t-11.5 -136.5v-478h-132z" />
<glyph unicode="n" horiz-adv-x="1117" d="M72 0v957h132v-174q57 79 144 126.5t199 47.5q97 0 178 -37t140 -100.5t92.5 -149.5t36.5 -184v-486h-132v478q0 73 -22 136.5t-63.5 110.5t-99.5 74.5t-130 27.5q-74 0 -136.5 -27.5t-108.5 -74.5t-72 -110.5t-26 -136.5v-478h-132z" />
<glyph unicode="o" horiz-adv-x="1125" d="M53 478q0 100 38 187t103 152t152 102.5t185 37.5t185 -37.5t152.5 -102.5t103.5 -152.5t38 -187.5q0 -99 -38 -186t-103.5 -151.5t-152.5 -102t-185 -37.5t-185 37.5t-152 102t-103 152t-38 186.5zM185 477q0 -72 26.5 -135t73 -110.5t109.5 -74.5t137 -27 q73 0 136.5 27t110.5 74.5t73.5 110.5t26.5 135q0 73 -26.5 137t-73.5 111t-110.5 74.5t-136.5 27.5q-74 0 -137 -27.5t-109.5 -74.5t-73 -111t-26.5 -137z" />
<glyph unicode="p" horiz-adv-x="1113" d="M72 -399v1356h132v-174q57 79 145.5 126.5t200.5 47.5q98 0 185 -37.5t152.5 -102.5t103.5 -152t38 -187q0 -99 -38 -186.5t-103.5 -152t-152.5 -102t-185 -37.5q-112 0 -200.5 47.5t-145.5 126.5v-573h-132zM209 478q0 -72 26 -135.5t71.5 -111t108 -74.5t135.5 -27 q72 0 136 27t111 74.5t74.5 111t27.5 135.5q0 73 -27.5 136.5t-74.5 110.5t-111 74.5t-136 27.5q-73 0 -135.5 -27.5t-108 -74.5t-71.5 -110.5t-26 -136.5z" />
<glyph unicode="q" horiz-adv-x="1113" d="M21 478q0 100 38 187t103.5 152t152.5 102.5t185 37.5q112 0 200.5 -47.5t145.5 -126.5v174h132v-1356h-132v573q-57 -79 -145.5 -126.5t-200.5 -47.5q-98 0 -185 37.5t-152.5 102t-103.5 152t-38 186.5zM151 478q0 -72 27.5 -135.5t75 -111t111 -74.5t135.5 -27 q73 0 136 27t109 74.5t72 111t26 135.5q0 73 -26 136.5t-72 110.5t-109 74.5t-136 27.5q-72 0 -135.5 -27.5t-111 -74.5t-75 -110.5t-27.5 -136.5z" />
<glyph unicode="r" horiz-adv-x="857" d="M72 0v957h132v-174q28 38 64.5 70t79 55t92 36t103.5 13h204v-174h-26q-77 44 -171 44q-74 0 -137 -27.5t-109.5 -74.5t-73 -110.5t-26.5 -136.5v-478h-132z" />
<glyph unicode="s" horiz-adv-x="955" d="M57 213h143q18 -35 54.5 -57t82.5 -26h210q34 4 65.5 14.5t55.5 27.5t38.5 40.5t14.5 52.5q0 28 -9.5 60.5t-43.5 60t-100.5 45.5t-180.5 18q-71 0 -131.5 16t-104.5 47t-69 76t-25 103t22.5 106.5t60.5 84t89 55.5t108 20h224q50 0 96 -15.5t83.5 -44t64 -67.5t38.5 -86 h-141q-21 35 -57 57t-84 26h-216q-32 0 -60.5 -10.5t-50 -28.5t-34 -42.5t-12.5 -52.5v-2q0 -57 52.5 -91.5t146.5 -34.5q101 0 174 -11.5t123.5 -32.5t81.5 -49t48 -61.5t23 -70.5t6 -75q0 -57 -23.5 -105.5t-62.5 -84t-90.5 -55.5t-108.5 -20h-221q-50 0 -95.5 15.5 t-82.5 44t-63.5 67.5t-38.5 86z" />
<glyph unicode="t" horiz-adv-x="612" d="M26 827v130q81 0 114.5 29.5t33.5 68.5v108h132v-206h241v-130h-241v-595q0 -45 29 -73.5t71 -28.5h141v-130h-141q-49 0 -91 18t-73.5 49.5t-49.5 73.5t-18 91v595h-148z" />
<glyph unicode="u" horiz-adv-x="1040" d="M65 456v501h132v-501q0 -69 19.5 -128.5t57 -103.5t90.5 -69t121 -25q75 0 129.5 27t90 74.5t52.5 111t17 135.5v479h132v-957h-132v137q-49 -63 -118 -100t-171 -37q-95 0 -171.5 35.5t-130.5 97t-84.5 145t-33.5 178.5z" />
<glyph unicode="v" horiz-adv-x="1081" d="M33 957h145l334 -813l331 813h142l-390 -957h-171z" />
<glyph unicode="w" horiz-adv-x="1439" d="M44 957h141l260 -748l167 468l-100 280h140l261 -751l260 751h141l-332 -957h-139l-164 475l-164 -475h-135z" />
<glyph unicode="x" horiz-adv-x="1044" d="M61 0l352 475l-352 482h163l269 -369l270 369h164l-350 -482l350 -475h-167l-267 366l-266 -366h-166z" />
<glyph unicode="y" horiz-adv-x="1104" d="M40 957h148l392 -725l296 725h141l-470 -1177q-14 -36 -31 -68t-39 -57t-50.5 -39.5t-67.5 -14.5h-106v134h106q16 0 24.5 8.5t22.5 39.5l106 282z" />
<glyph unicode="z" horiz-adv-x="1000" d="M68 0v167l626 660h-625v130h811v-133l-657 -694h657v-130h-812z" />
<glyph unicode="{" horiz-adv-x="420" d="M18 417v123q25 16 44.5 28.5t33 28.5t20.5 38.5t7 59.5v301q0 53 6 110.5t26 108t58 88.5t102 52l30 -127q-32 -7 -49.5 -30.5t-26 -54.5t-10.5 -64.5t-2 -60.5v-22q0 -39 2.5 -90.5t2.5 -108.5q0 -53 -4 -101t-14.5 -88.5t-30 -73.5t-50.5 -56q31 -23 50.5 -56.5 t30 -74.5t14 -89t3.5 -101q0 -55 -2 -105.5t-2 -88.5v-23q0 -28 2 -61.5t10 -64.5t25 -54t47 -29l-26 -130q-64 14 -102 52t-58 89t-26 109t-6 112v299q0 36 -7.5 58.5t-21 38t-33 28.5t-43.5 30z" />
<glyph unicode="|" horiz-adv-x="383" d="M113 -387v1742h132v-1742h-132z" />
<glyph unicode="}" horiz-adv-x="420" d="M49 -297q32 6 49.5 30t26 55.5t10.5 66t2 62.5v18q0 42 -3 97.5t-3 115.5q0 53 4 96.5t14.5 79.5t29.5 67.5t48 60.5q-30 30 -48.5 61t-29 67.5t-14.5 79.5t-4 96q0 60 3 115.5t3 96.5v18q0 27 -2 61.5t-10.5 66.5t-26 56t-49.5 30l27 130q65 -15 103.5 -53t58.5 -88.5 t25.5 -108.5t5.5 -112q0 -33 -0.5 -61.5t-0.5 -54.5t-0.5 -52t-0.5 -54q0 -65 4.5 -101.5t16.5 -58.5t33 -37t55 -37v-121q-35 -23 -56 -38.5t-33 -38t-16 -59t-4 -100.5q0 -28 0.5 -53t0.5 -51t0.5 -54t0.5 -62q0 -54 -5.5 -111.5t-25.5 -108t-58.5 -88t-103.5 -51.5z" />
<glyph unicode="~" horiz-adv-x="758" d="M44 1029q10 28 23 54.5t32 48.5t45.5 37.5t64.5 22.5q19 4 39 4q39 0 69.5 -13.5t56 -29t49 -29t49.5 -13.5q17 0 28.5 8t20 20t14.5 26.5t12 26.5l123 -47q-12 -33 -28.5 -64t-40.5 -55t-57 -38t-77 -14q-27 0 -48.5 6.5t-41.5 17t-40.5 23.5t-44.5 27q-13 6 -24.5 10 t-22.5 4q-19 0 -31.5 -8t-21 -20t-14.5 -27t-11 -29z" />
<glyph unicode="&#xa1;" horiz-adv-x="379" d="M115 1281q0 -29 20.5 -49.5t49.5 -20.5t50 20.5t21 49.5t-21 49.5t-50 20.5t-49.5 -20.5t-20.5 -49.5zM121 0h143v1049h-143v-1049z" />
<glyph unicode="&#xa2;" horiz-adv-x="923" d="M33 608q0 88 30.5 163.5t83.5 133t126 94.5t158 49v144h134v-144q157 -18 265 -117v-213q-36 79 -105 132.5t-160 69.5v-623q45 5 85 22t74 43.5t61 60.5t45 73v-211q-54 -49 -120.5 -81.5t-144.5 -40.5v-163h-134v167q-85 11 -158 47.5t-126 94.5t-83.5 134t-30.5 165z M163 608q0 -63 20 -115t56 -91.5t85 -65t107 -35.5v615q-58 -12 -107 -38.5t-85 -66t-56 -91t-20 -112.5z" />
<glyph unicode="&#xa3;" horiz-adv-x="1122" d="M91 129q0 25 12.5 49.5t36.5 43.5t60.5 31t84.5 12q12 0 23 -0.5t22 -2.5q3 20 3.5 38.5t0.5 29.5v334h-132v133h132v329q0 54 15 92.5t41.5 63t61.5 35.5t75 11q28 0 57 -5t58 -14l-42 -126q-50 15 -77 15q-35 0 -45 -20t-10 -52v-329h105v-133h-105v-334 q0 -25 -1 -55.5t-8 -61.5q25 -15 50.5 -29t52 -25t55 -18t60.5 -7q24 0 61.5 3t76.5 10t72.5 19.5t50.5 30.5l102 -88q-29 -34 -73.5 -55t-95.5 -33t-102 -16.5t-92 -4.5q-39 0 -74.5 8.5t-67.5 22.5t-60.5 31.5t-53.5 35.5q-23 -42 -57.5 -70t-85.5 -28q-47 0 -82 11 t-58.5 29t-35 41.5t-11.5 47.5zM217 137q0 -16 14 -22t34 -6q18 0 29.5 15.5t16.5 35.5q-5 2 -12.5 4.5t-13.5 2.5q-29 0 -48.5 -8t-19.5 -22z" />
<glyph unicode="&#xa4;" horiz-adv-x="899" d="M65 338l69 68q-29 45 -43 94t-14 100t14 99.5t43 93.5l-69 69l95 95l68 -69q45 28 93 42.5t99 14.5q104 0 196 -57l68 69l95 -95l-69 -69q28 -45 42.5 -93.5t14.5 -99.5t-14.5 -100t-42.5 -94l69 -68l-95 -95l-68 68q-45 -28 -95 -42t-101 -14q-103 0 -192 56l-68 -68z M210 600q0 -44 16 -82.5t44.5 -67t66.5 -45t83 -16.5q44 0 82.5 16t67.5 44t46 67t17 84q0 42 -15 81.5t-45 71.5q-32 30 -71.5 44.5t-81.5 14.5q-45 0 -83.5 -16.5t-66.5 -45t-44 -67t-16 -83.5z" />
<glyph unicode="&#xa5;" horiz-adv-x="1042" d="M23 1355h151l315 -543l320 543h151l-402 -674v-138h209v-133h-209v-117h209v-133h-209v-345h-134v345h-234v133h234v117h-234v133h234v138z" />
<glyph unicode="&#xa6;" horiz-adv-x="261" d="M65 327h132v-714h-132v714zM65 588v767h132v-767h-132z" />
<glyph unicode="&#xa7;" horiz-adv-x="682" d="M54 113h136q-4 -8 -4.5 -31.5t6.5 -51t23.5 -47.5t44.5 -32t70 -12q45 0 73.5 12t45 32t23 47.5t6.5 57.5q0 26 -20 53t-52 52l-280 213q-42 32 -57 77.5t-15 100.5q0 54 16.5 95.5t43.5 71.5t62.5 48.5t73.5 27.5l-124 96q-42 32 -57 72t-15 95q0 63 19.5 112t55.5 83 t87 52t114 18q64 0 116 -19.5t89 -55.5t57 -87t20 -141h-137q2 5 2.5 31t-6 52t-23 45.5t-45 30.5t-73.5 11q-42 0 -70 -11t-44.5 -30.5t-23.5 -45.5t-7 -56q0 -18 1.5 -32t21 -40t42.5 -43l202 -148q16 -12 42 -32.5t50.5 -51t42.5 -72.5t18 -97v-2q0 -40 -16 -77 t-43.5 -67.5t-63.5 -52t-76 -30.5l134 -102q35 -27 53.5 -64t18.5 -80q0 -64 -20 -116t-57 -88.5t-89 -56.5t-116 -20q-63 0 -114 20t-87 56.5t-55.5 88.5t-19.5 141zM185 580q3 -26 11.5 -48t25.5 -38t43.5 -25.5t64.5 -9.5q41 0 68 9.5t44 25.5t25 38t11 48q-3 26 -11 49 t-25 40.5t-44 27.5t-68 10q-38 0 -64.5 -10t-43.5 -27.5t-25.5 -40.5t-11.5 -49z" />
<glyph unicode="&#xa8;" horiz-adv-x="697" d="M58 1055q0 21 7.5 40t21 33.5t31.5 22.5t38 8q19 0 37 -8t31.5 -22.5t21.5 -33.5t8 -40t-8 -39t-21.5 -31t-31.5 -20.5t-37 -7.5q-20 0 -38 7.5t-31.5 20.5t-21 31t-7.5 39zM417 1055q0 21 8 40t21.5 33.5t32 22.5t38.5 8t38 -8t31.5 -22.5t21.5 -33.5t8 -40t-8 -39 t-21.5 -31t-31.5 -20.5t-38 -7.5t-38.5 7.5t-32 20.5t-21.5 31t-8 39z" />
<glyph unicode="&#xa9;" horiz-adv-x="1485" d="M46 677q0 93 24 178.5t68 160t105.5 136t136.5 105t161.5 67.5t179.5 24t179.5 -24t162 -67.5t137 -105t106 -136t68.5 -160t24 -178.5q0 -94 -24 -180.5t-68.5 -162t-106 -137t-137 -105.5t-162 -68t-179.5 -24t-179.5 24t-161.5 68t-136.5 105.5t-105.5 137t-68 162 t-24 180.5zM167 677q0 -77 20 -148t56 -132.5t87 -112t112.5 -86.5t132 -55.5t146.5 -19.5q77 0 148 19.5t132.5 55.5t112 86.5t86.5 112t55.5 132.5t19.5 148q0 112 -43.5 212.5t-118.5 175.5t-176 119t-216 44q-76 0 -146.5 -20t-132 -56t-112.5 -86.5t-87 -112 t-56 -131.5t-20 -145zM273 672q0 98 35.5 181t98 143t147 94t182.5 34q96 0 176 -32t143 -89v-213q-20 43 -52 80.5t-73 65.5t-90 44t-104 16q-72 0 -133.5 -24t-105.5 -67t-69 -102.5t-25 -130.5q0 -73 25 -132.5t69 -102t105.5 -66t133.5 -23.5q55 0 104 15t90.5 42t73 65 t51.5 84v-213q-63 -57 -143 -89t-176 -32q-98 0 -182.5 33t-147 93t-98 143t-35.5 183z" />
<glyph unicode="&#xab;" horiz-adv-x="981" d="M50 517l436 454v-178l-208 -281l208 -276v-178zM463 517l436 454v-178l-208 -281l208 -276v-178z" />
<glyph unicode="&#xad;" horiz-adv-x="709" d="M72 528v132h523v-132h-523z" />
<glyph unicode="&#xae;" horiz-adv-x="1485" d="M46 677q0 93 24 178.5t68 160t105.5 136t136.5 105t161.5 67.5t179.5 24t179.5 -24t162 -67.5t137 -105t106 -136t68.5 -160t24 -178.5q0 -94 -24 -180.5t-68.5 -162t-106 -137t-137 -105.5t-162 -68t-179.5 -24t-179.5 24t-161.5 68t-136.5 105.5t-105.5 137t-68 162 t-24 180.5zM167 677q0 -77 20 -148t56 -132.5t87 -112t112.5 -86.5t132 -55.5t146.5 -19.5q77 0 148 19.5t132.5 55.5t112 86.5t86.5 112t55.5 132.5t19.5 148q0 112 -43.5 212.5t-118.5 175.5t-176 119t-216 44q-76 0 -146.5 -20t-132 -56t-112.5 -86.5t-87 -112 t-56 -131.5t-20 -145zM482 262v862l261 3q67 1 125.5 -27t102.5 -74.5t69.5 -107t25.5 -125.5q0 -47 -12.5 -90.5t-35.5 -81.5t-55 -68.5t-71 -51.5l167 -239h-164l-139 201h-140v-201h-134zM616 597h140q36 0 68.5 16t56.5 43t38.5 62.5t14.5 74.5t-14 73.5t-39 61.5 t-59.5 45t-74.5 23l-131 -4v-395z" />
<glyph unicode="&#xaf;" horiz-adv-x="847" d="M0 1222v133h767v-133h-767z" />
<glyph unicode="&#xb0;" horiz-adv-x="648" d="M46 1094q0 55 21 103t57.5 83t84.5 55t102 20q55 0 104 -20t86 -55t58 -83t21 -103q0 -56 -21 -103.5t-58 -83t-86 -55.5t-104 -20q-54 0 -102 20t-84.5 55.5t-57.5 83t-21 103.5zM178 1094q0 -27 10 -50.5t28 -41.5t42 -28t53 -10q28 0 53.5 10t44 28t29.5 41.5t11 50.5 q0 25 -11 48.5t-29.5 41t-44 28t-53.5 10.5q-29 0 -53 -10.5t-42 -28t-28 -41t-10 -48.5z" />
<glyph unicode="&#xb1;" horiz-adv-x="798" d="M33 384v133h703v-133h-703zM42 839v132h280v297h134v-297h276v-132h-276v-292h-134v292h-280z" />
<glyph unicode="&#xb4;" horiz-adv-x="630" d="M130 1144l200 211h235l-377 -268z" />
<glyph unicode="&#xb5;" horiz-adv-x="1000" d="M46 -304q26 44 46.5 120t35 170t24 198t15.5 204t8.5 187.5t2.5 149.5h141q1 -116 12.5 -204.5t29.5 -154.5t40.5 -110.5t44.5 -71.5t42 -38.5t33 -11.5q14 0 33 11.5t39 38t40.5 70.5t36.5 109.5t27 155t13 206.5h138q-1 -38 -1.5 -74t-0.5 -70q0 -223 12 -366.5 t23 -214.5h-134q-5 28 -9 65.5t-10 82.5q-38 -72 -89.5 -110t-117.5 -38q-75 0 -134.5 51t-101.5 142q-11 -97 -24 -191.5t-30 -174t-38.5 -138t-48.5 -83.5z" />
<glyph unicode="&#xb6;" horiz-adv-x="880" d="M37 638q0 64 18.5 121t51 100t75.5 69t91 29h536v-130h-142v-827h-131v827h-123v-827h-131v319q-50 1 -94.5 26.5t-78 68.5t-53 100.5t-19.5 123.5z" />
<glyph unicode="&#xb7;" horiz-adv-x="328" d="M46 109q0 23 8.5 43.5t23.5 35.5t35 23.5t43 8.5t43 -8.5t34.5 -23.5t23 -35.5t8.5 -43.5t-8.5 -42.5t-23 -34.5t-34.5 -23.5t-43 -8.5t-43 8.5t-35 23.5t-23.5 34.5t-8.5 42.5z" />
<glyph unicode="&#xb8;" horiz-adv-x="462" d="M61 0h129q12 -17 30.5 -29t38.5 -23.5t41 -24t37 -31t26.5 -45t10.5 -64.5q0 -34 -17 -57t-42.5 -37.5t-55.5 -20.5t-57 -6l-68 113q22 14 49 19t53 9q8 1 8 7q0 11 -22.5 34t-53 50.5t-61 55.5t-46.5 50z" />
<glyph unicode="&#xbb;" horiz-adv-x="985" d="M54 58v178l208 276l-208 281v178l414 -454zM468 58v178l209 276l-209 281v178l435 -454z" />
<glyph unicode="&#xbf;" horiz-adv-x="784" d="M37 356q0 -92 27 -153t74 -106t109 -71t133 -26q69 0 132 26t110 71t75 106t28 130q0 66 -14.5 111t-42 77.5t-67 55t-75 37t-60 27t-45 40.5t-34.5 78t-14 133l-1 163h-131l1 -175q1 -85 16 -144.5t39.5 -101t55.5 -68.5t63 -46t63 -33.5t55 -31.5t38.5 -40t14.5 -59 q0 -63 -15.5 -105.5t-43 -68.5t-65.5 -37.5t-83 -11.5t-83 16t-66.5 43t-44.5 63.5t-16 100.5h-133zM238 1285q0 -29 20.5 -49.5t49.5 -20.5t50 20.5t21 49.5t-21 49.5t-50 20.5t-49.5 -20.5t-20.5 -49.5z" />
<glyph unicode="&#xc0;" horiz-adv-x="1150" d="M57 0l406 1355h160l406 -1355h-141l-156 517h-384l-156 -517h-135zM169 1720l377 -268l58 57l-200 211h-235zM387 649h308l-152 510z" />
<glyph unicode="&#xc1;" horiz-adv-x="1136" d="M57 0l406 1355h160l406 -1355h-141l-156 517h-384l-156 -517h-135zM387 649h308l-152 510zM507 1514l200 211h235l-377 -268z" />
<glyph unicode="&#xc2;" horiz-adv-x="1136" d="M57 0l406 1355h160l406 -1355h-141l-156 517h-384l-156 -517h-135zM266 1444h164l113 158l113 -158h164l-194 271h-167zM387 649h308l-152 510z" />
<glyph unicode="&#xc3;" horiz-adv-x="1136" d="M57 0l406 1355h160l406 -1355h-141l-156 517h-384l-156 -517h-135zM228 1512q10 29 23 55.5t32 48.5t45.5 37.5t64.5 22.5q19 3 36 3q39 0 69.5 -13t56.5 -29t49 -29t49 -13q19 0 31 7.5t20.5 19t14.5 26t12 28.5l123 -46q-13 -36 -29.5 -67t-40.5 -54t-57 -36.5 t-79 -13.5q-27 0 -48 5.5t-40.5 15.5t-39.5 23t-44 28q-13 6 -24.5 10t-22.5 4q-18 0 -30.5 -8t-21.5 -20t-15 -26.5t-11 -27.5zM387 649h308l-152 510z" />
<glyph unicode="&#xc4;" horiz-adv-x="1136" d="M57 0l406 1355h160l406 -1355h-141l-156 517h-384l-156 -517h-135zM256 1555q0 21 7.5 40t21 33.5t31.5 22.5t38 8q19 0 37 -8t31.5 -22.5t21.5 -33.5t8 -40t-8 -39t-21.5 -31t-31.5 -20.5t-37 -7.5q-20 0 -38 7.5t-31.5 20.5t-21 31t-7.5 39zM387 649h308l-152 510z M615 1555q0 21 8 40t21.5 33.5t32 22.5t38.5 8t38 -8t31.5 -22.5t21.5 -33.5t8 -40t-8 -39t-21.5 -31t-31.5 -20.5t-38 -7.5t-38.5 7.5t-32 20.5t-21.5 31t-8 39z" />
<glyph unicode="&#xc5;" horiz-adv-x="1136" d="M57 0l406 1355h160l406 -1355h-141l-156 517h-384l-156 -517h-135zM380 1484q0 33 13 62t35 50t50.5 33.5t60.5 12.5q33 0 63 -12.5t52 -33.5t35 -50t13 -62t-13 -61.5t-35 -49.5t-52 -33.5t-63 -12.5q-32 0 -60.5 12.5t-50.5 33.5t-35 49.5t-13 61.5zM387 649h308 l-152 510zM460 1484q0 -32 22.5 -54.5t56.5 -22.5q17 0 32 6t26.5 16.5t18 24.5t6.5 30q0 15 -6.5 29t-18 25t-26.5 17.5t-32 6.5q-34 0 -56.5 -24t-22.5 -54z" />
<glyph unicode="&#xc6;" horiz-adv-x="1739" d="M23 0l804 1355h825v-124h-660v-430h530v-134h-530v-541h660v-126h-794v445h-413l-267 -445h-155zM524 577h334v568z" />
<glyph unicode="&#xc7;" horiz-adv-x="1090" d="M57 528v299q0 107 36.5 203t101 168t151.5 114.5t189 42.5q85 0 161 -30.5t136.5 -84.5t103.5 -126.5t63 -156.5h-126q-18 60 -51 109.5t-76 84.5t-94.5 54.5t-115.5 19.5q-80 0 -141 -29t-107.5 -80.5t-73.5 -121.5t-27 -151v-331q0 -83 28 -153t75.5 -121t110.5 -79.5 t133 -28.5q55 0 105.5 16.5t93.5 48t77 76.5t55 102h125q-21 -80 -64 -148t-102.5 -118t-133 -78.5t-155.5 -28.5q-102 0 -189 42.5t-151.5 114.5t-101 168t-36.5 203zM351 34h129q12 -17 30.5 -29t38.5 -23.5t41 -24t37 -31t26.5 -45t10.5 -64.5q0 -34 -17 -57t-42.5 -37.5 t-55.5 -20.5t-57 -6l-68 113q22 14 49 19t53 9q8 1 8 7q0 11 -22.5 34t-53 50.5t-61 55.5t-46.5 50z" />
<glyph unicode="&#xc8;" horiz-adv-x="930" d="M72 0v1355h793v-130h-661v-428h531v-130h-531v-537h661v-130h-793zM91 1718l377 -268l58 57l-200 211h-235z" />
<glyph unicode="&#xc9;" horiz-adv-x="930" d="M72 0v1355h793v-130h-661v-428h531v-130h-531v-537h661v-130h-793zM419 1507l200 211h235l-377 -268z" />
<glyph unicode="&#xca;" horiz-adv-x="930" d="M72 0v1355h793v-130h-661v-428h531v-130h-531v-537h661v-130h-793zM177 1456h164l113 158l113 -158h164l-194 271h-167z" />
<glyph unicode="&#xcb;" horiz-adv-x="930" d="M72 0v1355h793v-130h-661v-428h531v-130h-531v-537h661v-130h-793zM152 1544q0 21 7.5 40t21 33.5t31.5 22.5t38 8q19 0 37 -8t31.5 -22.5t21.5 -33.5t8 -40t-8 -39t-21.5 -31t-31.5 -20.5t-37 -7.5q-20 0 -38 7.5t-31.5 20.5t-21 31t-7.5 39zM511 1544q0 21 8 40 t21.5 33.5t32 22.5t38.5 8t38 -8t31.5 -22.5t21.5 -33.5t8 -40t-8 -39t-21.5 -31t-31.5 -20.5t-38 -7.5t-38.5 7.5t-32 20.5t-21.5 31t-8 39z" />
<glyph unicode="&#xcc;" horiz-adv-x="598" d="M1 1721l377 -268l58 57l-200 211h-235zM49 0v130h171v1096h-171v129h479v-129h-176v-1096h176v-130h-479z" />
<glyph unicode="&#xcd;" horiz-adv-x="598" d="M49 0v130h171v1096h-171v129h479v-129h-176v-1096h176v-130h-479zM97 1508l200 211h235l-377 -268z" />
<glyph unicode="&#xce;" horiz-adv-x="598" d="M10 1450h164l113 158l113 -158h164l-194 271h-167zM49 0v130h171v1096h-171v129h479v-129h-176v-1096h176v-130h-479z" />
<glyph unicode="&#xcf;" horiz-adv-x="598" d="M-2 1549q0 21 7.5 40t21 33.5t31.5 22.5t38 8q19 0 37 -8t31.5 -22.5t21.5 -33.5t8 -40t-8 -39t-21.5 -31t-31.5 -20.5t-37 -7.5q-20 0 -38 7.5t-31.5 20.5t-21 31t-7.5 39zM49 0v130h171v1096h-171v129h479v-129h-176v-1096h176v-130h-479zM357 1549q0 21 8 40 t21.5 33.5t32 22.5t38.5 8t38 -8t31.5 -22.5t21.5 -33.5t8 -40t-8 -39t-21.5 -31t-31.5 -20.5t-38 -7.5t-38.5 7.5t-32 20.5t-21.5 31t-8 39z" />
<glyph unicode="&#xd0;" horiz-adv-x="1181" d="M-79 626v134h216v595h428q102 0 189 -42.5t151.5 -114.5t101 -168t36.5 -203v-299q0 -107 -36.5 -203t-101 -168t-151.5 -114.5t-189 -42.5h-428v626h-216zM269 126h296q73 0 138 31t114 85t77.5 127.5t28.5 158.5v299q0 85 -28.5 159t-77.5 128.5t-114 85.5t-138 31 h-296v-471h232v-134h-232v-500z" />
<glyph unicode="&#xd1;" horiz-adv-x="1152" d="M72 0v1355h155l668 -1130v1130h132v-1355h-154l-669 1135v-1135h-132zM249 1502q10 29 23 55.5t32 48.5t45.5 37.5t64.5 22.5q19 3 36 3q39 0 69.5 -13t56.5 -29t49 -29t49 -13q19 0 31 7.5t20.5 19t14.5 26t12 28.5l123 -46q-13 -36 -29.5 -67t-40.5 -54t-57 -36.5 t-79 -13.5q-27 0 -48 5.5t-40.5 15.5t-39.5 23t-44 28q-13 6 -24.5 10t-22.5 4q-18 0 -30.5 -8t-21.5 -20t-15 -26.5t-11 -27.5z" />
<glyph unicode="&#xd2;" horiz-adv-x="1118" d="M57 528v299q0 107 36 202t99.5 167t150.5 114.5t188 44.5h9q98 -2 185.5 -44.5t153.5 -114.5t104.5 -167t38.5 -202v-299q-4 -108 -42 -203t-102.5 -166.5t-151 -114t-186.5 -44.5h-9q-101 1 -188 44t-150.5 115t-99.5 167.5t-36 201.5zM187 512q0 -81 27 -150.5t73 -121 t108 -81t131 -29.5h15h6q69 0 131.5 31t110 84.5t75.5 126t28 156.5v299q0 85 -28.5 158t-76.5 126t-111.5 83.5t-134.5 30.5h-3h-12q-69 0 -130.5 -29t-108 -80t-73.5 -121t-27 -152v-315v-16zM330 1718l377 -268l58 57l-200 211h-235z" />
<glyph unicode="&#xd3;" horiz-adv-x="1118" d="M57 528v299q0 107 36 202t99.5 167t150.5 114.5t188 44.5h9q98 -2 185.5 -44.5t153.5 -114.5t104.5 -167t38.5 -202v-299q-4 -108 -42 -203t-102.5 -166.5t-151 -114t-186.5 -44.5h-9q-101 1 -188 44t-150.5 115t-99.5 167.5t-36 201.5zM187 512q0 -81 27 -150.5t73 -121 t108 -81t131 -29.5h15h6q69 0 131.5 31t110 84.5t75.5 126t28 156.5v299q0 85 -28.5 158t-76.5 126t-111.5 83.5t-134.5 30.5h-3h-12q-69 0 -130.5 -29t-108 -80t-73.5 -121t-27 -152v-315v-16zM438 1501l200 211h235l-377 -268z" />
<glyph unicode="&#xd4;" horiz-adv-x="1118" d="M57 528v299q0 107 36 202t99.5 167t150.5 114.5t188 44.5h9q98 -2 185.5 -44.5t153.5 -114.5t104.5 -167t38.5 -202v-299q-4 -108 -42 -203t-102.5 -166.5t-151 -114t-186.5 -44.5h-9q-101 1 -188 44t-150.5 115t-99.5 167.5t-36 201.5zM187 512q0 -81 27 -150.5t73 -121 t108 -81t131 -29.5h15h6q69 0 131.5 31t110 84.5t75.5 126t28 156.5v299q0 85 -28.5 158t-76.5 126t-111.5 83.5t-134.5 30.5h-3h-12q-69 0 -130.5 -29t-108 -80t-73.5 -121t-27 -152v-315v-16zM267 1456h164l113 158l113 -158h164l-194 271h-167z" />
<glyph unicode="&#xd5;" horiz-adv-x="1118" d="M57 528v299q0 107 36 202t99.5 167t150.5 114.5t188 44.5h9q98 -2 185.5 -44.5t153.5 -114.5t104.5 -167t38.5 -202v-299q-4 -108 -42 -203t-102.5 -166.5t-151 -114t-186.5 -44.5h-9q-101 1 -188 44t-150.5 115t-99.5 167.5t-36 201.5zM187 512q0 -81 27 -150.5t73 -121 t108 -81t131 -29.5h15h6q69 0 131.5 31t110 84.5t75.5 126t28 156.5v299q0 85 -28.5 158t-76.5 126t-111.5 83.5t-134.5 30.5h-3h-12q-69 0 -130.5 -29t-108 -80t-73.5 -121t-27 -152v-315v-16zM213 1501q10 29 23 55.5t32 48.5t45.5 37.5t64.5 22.5q19 3 36 3 q39 0 69.5 -13t56.5 -29t49 -29t49 -13q19 0 31 7.5t20.5 19t14.5 26t12 28.5l123 -46q-13 -36 -29.5 -67t-40.5 -54t-57 -36.5t-79 -13.5q-27 0 -48 5.5t-40.5 15.5t-39.5 23t-44 28q-13 6 -24.5 10t-22.5 4q-18 0 -30.5 -8t-21.5 -20t-15 -26.5t-11 -27.5z" />
<glyph unicode="&#xd6;" horiz-adv-x="1118" d="M57 528v299q0 107 36 202t99.5 167t150.5 114.5t188 44.5h9q98 -2 185.5 -44.5t153.5 -114.5t104.5 -167t38.5 -202v-299q-4 -108 -42 -203t-102.5 -166.5t-151 -114t-186.5 -44.5h-9q-101 1 -188 44t-150.5 115t-99.5 167.5t-36 201.5zM187 512q0 -81 27 -150.5t73 -121 t108 -81t131 -29.5h15h6q69 0 131.5 31t110 84.5t75.5 126t28 156.5v299q0 85 -28.5 158t-76.5 126t-111.5 83.5t-134.5 30.5h-3h-12q-69 0 -130.5 -29t-108 -80t-73.5 -121t-27 -152v-315v-16zM251 1550q0 21 7.5 40t21 33.5t31.5 22.5t38 8q19 0 37 -8t31.5 -22.5 t21.5 -33.5t8 -40t-8 -39t-21.5 -31t-31.5 -20.5t-37 -7.5q-20 0 -38 7.5t-31.5 20.5t-21 31t-7.5 39zM610 1550q0 21 8 40t21.5 33.5t32 22.5t38.5 8t38 -8t31.5 -22.5t21.5 -33.5t8 -40t-8 -39t-21.5 -31t-31.5 -20.5t-38 -7.5t-38.5 7.5t-32 20.5t-21.5 31t-8 39z" />
<glyph unicode="&#xd8;" horiz-adv-x="1079" d="M11 528v299q0 107 36.5 202t100.5 167t150.5 114.5t187.5 44.5h7q63 -3 121.5 -19.5t110.5 -49.5l35 69h146l-74 -159q63 -72 99.5 -167.5t36.5 -201.5v-299q0 -106 -36 -201.5t-100 -167.5t-150.5 -115t-188.5 -44h-7q-60 0 -114 16t-103 45l-30 -61h-148l69 144 q-69 72 -109 170.5t-40 213.5zM134 528q0 -156 86 -266l447 911q-38 26 -83 41t-91 17h-7q-71 -1 -135 -32.5t-112 -85.5t-76.5 -127.5t-28.5 -158.5v-299zM322 171q76 -45 164 -45h7q72 1 136 32t113 85t77.5 127t28.5 158v299q0 72 -21.5 134t-55.5 114z" />
<glyph unicode="&#xd9;" horiz-adv-x="1136" d="M65 528v827h130v-845q0 -83 27.5 -152.5t74.5 -120t110.5 -79t135.5 -28.5q71 0 134.5 28.5t111 79.5t75.5 121.5t28 154.5v841h130v-827q0 -107 -37 -203t-102 -168t-152.5 -114.5t-187.5 -42.5q-102 0 -189 42.5t-151.5 114.5t-101 168t-36.5 203zM320 1619l377 -268 l58 57l-200 211h-235z" />
<glyph unicode="&#xda;" horiz-adv-x="1136" d="M65 528v827h130v-845q0 -83 27.5 -152.5t74.5 -120t110.5 -79t135.5 -28.5q71 0 134.5 28.5t111 79.5t75.5 121.5t28 154.5v841h130v-827q0 -107 -37 -203t-102 -168t-152.5 -114.5t-187.5 -42.5q-102 0 -189 42.5t-151.5 114.5t-101 168t-36.5 203zM308 1511l200 211 h235l-377 -268z" />
<glyph unicode="&#xdb;" horiz-adv-x="1136" d="M65 528v827h130v-845q0 -83 27.5 -152.5t74.5 -120t110.5 -79t135.5 -28.5q71 0 134.5 28.5t111 79.5t75.5 121.5t28 154.5v841h130v-827q0 -107 -37 -203t-102 -168t-152.5 -114.5t-187.5 -42.5q-102 0 -189 42.5t-151.5 114.5t-101 168t-36.5 203zM261 1450h164 l113 158l113 -158h164l-194 271h-167z" />
<glyph unicode="&#xdc;" horiz-adv-x="1136" d="M65 528v827h130v-845q0 -83 27.5 -152.5t74.5 -120t110.5 -79t135.5 -28.5q71 0 134.5 28.5t111 79.5t75.5 121.5t28 154.5v841h130v-827q0 -107 -37 -203t-102 -168t-152.5 -114.5t-187.5 -42.5q-102 0 -189 42.5t-151.5 114.5t-101 168t-36.5 203zM251 1546 q0 21 7.5 40t21 33.5t31.5 22.5t38 8q19 0 37 -8t31.5 -22.5t21.5 -33.5t8 -40t-8 -39t-21.5 -31t-31.5 -20.5t-37 -7.5q-20 0 -38 7.5t-31.5 20.5t-21 31t-7.5 39zM610 1546q0 21 8 40t21.5 33.5t32 22.5t38.5 8t38 -8t31.5 -22.5t21.5 -33.5t8 -40t-8 -39t-21.5 -31 t-31.5 -20.5t-38 -7.5t-38.5 7.5t-32 20.5t-21.5 31t-8 39z" />
<glyph unicode="&#xdd;" horiz-adv-x="1034" d="M26 1355h152l315 -543l318 543h153l-403 -674v-681h-133v681zM267 1504l200 211h235l-377 -268z" />
<glyph unicode="&#xe0;" d="M57 322q0 70 31 129t82.5 102t119 67.5t141.5 24.5q186 2 225 3.5t72.5 4t58 6t32.5 8.5q-1 31 -14.5 60t-36 51.5t-52.5 35.5t-64 13h-258q-34 0 -64 -14.5t-53 -38.5t-36.5 -54.5t-13.5 -63.5h-132q0 63 24 117.5t65 95.5t95 64.5t115 23.5h258q63 0 117.5 -23.5 t95.5 -64.5t64.5 -95.5t23.5 -117.5v-399q0 -36 2.5 -59.5t8.5 -38.5t15.5 -23t23.5 -13l-50 -123q-45 17 -69 42.5t-38 55.5q-51 -46 -122 -72t-152 -26h-141q-74 0 -141.5 24.5t-119 67.5t-82.5 102t-31 128zM186 1355l377 -268l58 57l-200 211h-235zM187 321 q2 -34 20.5 -68t51 -61.5t76 -44.5t96.5 -17h141q54 4 99.5 21t78.5 42.5t51 58.5t18 70v206q-21 -5 -54 -8.5t-71 -5.5t-149.5 -2h-113.5q-53 0 -96.5 -16.5t-76 -43t-51 -61t-20.5 -70.5z" />
<glyph unicode="&#xe1;" d="M57 322q0 70 31 129t82.5 102t119 67.5t141.5 24.5q186 2 225 3.5t72.5 4t58 6t32.5 8.5q-1 31 -14.5 60t-36 51.5t-52.5 35.5t-64 13h-258q-34 0 -64 -14.5t-53 -38.5t-36.5 -54.5t-13.5 -63.5h-132q0 63 24 117.5t65 95.5t95 64.5t115 23.5h258q63 0 117.5 -23.5 t95.5 -64.5t64.5 -95.5t23.5 -117.5v-399q0 -36 2.5 -59.5t8.5 -38.5t15.5 -23t23.5 -13l-50 -123q-45 17 -69 42.5t-38 55.5q-51 -46 -122 -72t-152 -26h-141q-74 0 -141.5 24.5t-119 67.5t-82.5 102t-31 128zM187 321q2 -34 20.5 -68t51 -61.5t76 -44.5t96.5 -17h141 q54 4 99.5 21t78.5 42.5t51 58.5t18 70v206q-21 -5 -54 -8.5t-71 -5.5t-149.5 -2h-113.5q-53 0 -96.5 -16.5t-76 -43t-51 -61t-20.5 -70.5zM458 1144l200 211h235l-377 -268z" />
<glyph unicode="&#xe2;" d="M57 322q0 70 31 129t82.5 102t119 67.5t141.5 24.5q186 2 225 3.5t72.5 4t58 6t32.5 8.5q-1 31 -14.5 60t-36 51.5t-52.5 35.5t-64 13h-258q-34 0 -64 -14.5t-53 -38.5t-36.5 -54.5t-13.5 -63.5h-132q0 63 24 117.5t65 95.5t95 64.5t115 23.5h258q63 0 117.5 -23.5 t95.5 -64.5t64.5 -95.5t23.5 -117.5v-399q0 -36 2.5 -59.5t8.5 -38.5t15.5 -23t23.5 -13l-50 -123q-45 17 -69 42.5t-38 55.5q-51 -46 -122 -72t-152 -26h-141q-74 0 -141.5 24.5t-119 67.5t-82.5 102t-31 128zM187 321q2 -34 20.5 -68t51 -61.5t76 -44.5t96.5 -17h141 q54 4 99.5 21t78.5 42.5t51 58.5t18 70v206q-21 -5 -54 -8.5t-71 -5.5t-149.5 -2h-113.5q-53 0 -96.5 -16.5t-76 -43t-51 -61t-20.5 -70.5zM243 1082h164l113 158l113 -158h164l-194 271h-167z" />
<glyph unicode="&#xe3;" d="M57 322q0 70 31 129t82.5 102t119 67.5t141.5 24.5q186 2 225 3.5t72.5 4t58 6t32.5 8.5q-1 31 -14.5 60t-36 51.5t-52.5 35.5t-64 13h-258q-34 0 -64 -14.5t-53 -38.5t-36.5 -54.5t-13.5 -63.5h-132q0 63 24 117.5t65 95.5t95 64.5t115 23.5h258q63 0 117.5 -23.5 t95.5 -64.5t64.5 -95.5t23.5 -117.5v-399q0 -36 2.5 -59.5t8.5 -38.5t15.5 -23t23.5 -13l-50 -123q-45 17 -69 42.5t-38 55.5q-51 -46 -122 -72t-152 -26h-141q-74 0 -141.5 24.5t-119 67.5t-82.5 102t-31 128zM187 321q2 -34 20.5 -68t51 -61.5t76 -44.5t96.5 -17h141 q54 4 99.5 21t78.5 42.5t51 58.5t18 70v206q-21 -5 -54 -8.5t-71 -5.5t-149.5 -2h-113.5q-53 0 -96.5 -16.5t-76 -43t-51 -61t-20.5 -70.5zM213 1142q10 29 23 55.5t32 48.5t45.5 37.5t64.5 22.5q19 3 36 3q39 0 69.5 -13t56.5 -29t49 -29t49 -13q19 0 31 7.5t20.5 19 t14.5 26t12 28.5l123 -46q-13 -36 -29.5 -67t-40.5 -54t-57 -36.5t-79 -13.5q-27 0 -48 5.5t-40.5 15.5t-39.5 23t-44 28q-13 6 -24.5 10t-22.5 4q-18 0 -30.5 -8t-21.5 -20t-15 -26.5t-11 -27.5z" />
<glyph unicode="&#xe4;" d="M57 322q0 70 31 129t82.5 102t119 67.5t141.5 24.5q186 2 225 3.5t72.5 4t58 6t32.5 8.5q-1 31 -14.5 60t-36 51.5t-52.5 35.5t-64 13h-258q-34 0 -64 -14.5t-53 -38.5t-36.5 -54.5t-13.5 -63.5h-132q0 63 24 117.5t65 95.5t95 64.5t115 23.5h258q63 0 117.5 -23.5 t95.5 -64.5t64.5 -95.5t23.5 -117.5v-399q0 -36 2.5 -59.5t8.5 -38.5t15.5 -23t23.5 -13l-50 -123q-45 17 -69 42.5t-38 55.5q-51 -46 -122 -72t-152 -26h-141q-74 0 -141.5 24.5t-119 67.5t-82.5 102t-31 128zM187 321q2 -34 20.5 -68t51 -61.5t76 -44.5t96.5 -17h141 q54 4 99.5 21t78.5 42.5t51 58.5t18 70v206q-21 -5 -54 -8.5t-71 -5.5t-149.5 -2h-113.5q-53 0 -96.5 -16.5t-76 -43t-51 -61t-20.5 -70.5zM244 1186q0 21 7.5 40t21 33.5t31.5 22.5t38 8q19 0 37 -8t31.5 -22.5t21.5 -33.5t8 -40t-8 -39t-21.5 -31t-31.5 -20.5t-37 -7.5 q-20 0 -38 7.5t-31.5 20.5t-21 31t-7.5 39zM603 1186q0 21 8 40t21.5 33.5t32 22.5t38.5 8t38 -8t31.5 -22.5t21.5 -33.5t8 -40t-8 -39t-21.5 -31t-31.5 -20.5t-38 -7.5t-38.5 7.5t-32 20.5t-21.5 31t-8 39z" />
<glyph unicode="&#xe5;" d="M57 322q0 70 31 129t82.5 102t119 67.5t141.5 24.5q186 2 225 3.5t72.5 4t58 6t32.5 8.5q-1 31 -14.5 60t-36 51.5t-52.5 35.5t-64 13h-258q-34 0 -64 -14.5t-53 -38.5t-36.5 -54.5t-13.5 -63.5h-132q0 63 24 117.5t65 95.5t95 64.5t115 23.5h258q63 0 117.5 -23.5 t95.5 -64.5t64.5 -95.5t23.5 -117.5v-399q0 -36 2.5 -59.5t8.5 -38.5t15.5 -23t23.5 -13l-50 -123q-45 17 -69 42.5t-38 55.5q-51 -46 -122 -72t-152 -26h-141q-74 0 -141.5 24.5t-119 67.5t-82.5 102t-31 128zM187 321q2 -34 20.5 -68t51 -61.5t76 -44.5t96.5 -17h141 q54 4 99.5 21t78.5 42.5t51 58.5t18 70v206q-21 -5 -54 -8.5t-71 -5.5t-149.5 -2h-113.5q-53 0 -96.5 -16.5t-76 -43t-51 -61t-20.5 -70.5zM386 1242q0 33 13 62t35 50t50.5 33.5t60.5 12.5q33 0 63 -12.5t52 -33.5t35 -50t13 -62t-13 -61.5t-35 -49.5t-52 -33.5t-63 -12.5 q-32 0 -60.5 12.5t-50.5 33.5t-35 49.5t-13 61.5zM466 1242q0 -32 22.5 -54.5t56.5 -22.5q17 0 32 6t26.5 16.5t18 24.5t6.5 30q0 15 -6.5 29t-18 25t-26.5 17.5t-32 6.5q-34 0 -56.5 -24t-22.5 -54z" />
<glyph unicode="&#xe6;" horiz-adv-x="1887" d="M58 322q0 70 31 129t82.5 102t119 67.5t141.5 24.5h78q40 0 89.5 1t95 4t80 7t45.5 10q-2 33 -15 61.5t-35.5 49.5t-52 33t-64.5 12h-259q-34 0 -64 -13.5t-52.5 -36t-36 -53t-13.5 -64.5h-133q0 63 24 117.5t65 95.5t95 64.5t115 23.5h259q47 0 90 -13.5t79 -37.5 t64 -56.5t45 -70.5q33 40 74 72.5t89 56t100.5 36.5t107.5 13q100 0 187.5 -37.5t152.5 -102.5t102.5 -152t37.5 -187v-15h-829v-4q4 -68 34.5 -128t80 -104.5t114 -70.5t136.5 -26q51 0 101 14t94.5 40t80.5 62.5t58 80.5l130 -23q-26 -67 -73.5 -122.5t-109.5 -96 t-134 -63t-147 -22.5q-88 0 -166.5 27t-141.5 79v-4q-14 16 -34 25.5t-45 9.5q-55 0 -83 -39q-52 -46 -123 -72t-152 -26h-141q-74 0 -141.5 24.5t-119 67.5t-82.5 102t-31 128zM193 322q0 -35 17 -69t48.5 -60.5t75.5 -42.5t98 -16h141q54 0 99.5 16t78.5 42.5t51 60.5 t18 69v206q-24 -6 -62 -9.5t-81 -5t-86.5 -2t-79.5 -0.5q-35 0 -57 0.5l-22 0.5q-54 0 -98 -16.5t-75.5 -43t-48.5 -60.5t-17 -70zM971 597h663q-18 49 -50.5 91t-75.5 73t-95.5 48.5t-110.5 17.5q-56 0 -107.5 -17.5t-95 -48.5t-76.5 -73t-52 -91z" />
<glyph unicode="&#xe7;" horiz-adv-x="971" d="M49 486q0 100 38.5 186t104.5 149.5t153.5 99.5t185.5 36q66 0 116 -10.5t90 -28.5t70.5 -43t57.5 -55v-178q-63 90 -147 137.5t-190 47.5q-73 0 -136 -26t-110 -71.5t-74 -108t-27 -135.5t27.5 -136t75 -110.5t111 -76.5t136.5 -33q51 0 102.5 11.5t96.5 31.5t80.5 45.5 t54.5 54.5v-167q-31 -29 -62.5 -48t-70 -31t-87 -18t-114.5 -9q-98 0 -185.5 38.5t-153.5 104.5t-104.5 154.5t-38.5 188.5zM381 31h129q12 -17 30.5 -29t38.5 -23.5t41 -24t37 -31t26.5 -45t10.5 -64.5q0 -34 -17 -57t-42.5 -37.5t-55.5 -20.5t-57 -6l-68 113q22 14 49 19 t53 9q8 1 8 7q0 11 -22.5 34t-53 50.5t-61 55.5t-46.5 50z" />
<glyph unicode="&#xe8;" horiz-adv-x="1106" d="M53 478q0 100 38 187t103 152t152 102.5t185 37.5t185 -37.5t152.5 -102.5t103.5 -152t38 -187v-15h-829q3 -69 33.5 -130t80 -106t113.5 -71t135 -26q53 0 104.5 14t96 40t80 62.5t56.5 80.5l130 -23q-27 -67 -75 -122.5t-109.5 -96t-134 -63t-148.5 -22.5 q-99 0 -187.5 37.5t-156 102t-107 152t-39.5 186.5zM180 1355l377 -268l58 57l-200 211h-235zM198 593h662q-17 52 -49 95t-75.5 74t-96 48t-108.5 17q-57 0 -108.5 -17.5t-94.5 -48.5t-76.5 -74t-53.5 -94z" />
<glyph unicode="&#xe9;" horiz-adv-x="1106" d="M53 478q0 100 38 187t103 152t152 102.5t185 37.5t185 -37.5t152.5 -102.5t103.5 -152t38 -187v-15h-829q3 -69 33.5 -130t80 -106t113.5 -71t135 -26q53 0 104.5 14t96 40t80 62.5t56.5 80.5l130 -23q-27 -67 -75 -122.5t-109.5 -96t-134 -63t-148.5 -22.5 q-99 0 -187.5 37.5t-156 102t-107 152t-39.5 186.5zM198 593h662q-17 52 -49 95t-75.5 74t-96 48t-108.5 17q-57 0 -108.5 -17.5t-94.5 -48.5t-76.5 -74t-53.5 -94zM451 1144l200 211h235l-377 -268z" />
<glyph unicode="&#xea;" horiz-adv-x="1106" d="M53 478q0 100 38 187t103 152t152 102.5t185 37.5t185 -37.5t152.5 -102.5t103.5 -152t38 -187v-15h-829q3 -69 33.5 -130t80 -106t113.5 -71t135 -26q53 0 104.5 14t96 40t80 62.5t56.5 80.5l130 -23q-27 -67 -75 -122.5t-109.5 -96t-134 -63t-148.5 -22.5 q-99 0 -187.5 37.5t-156 102t-107 152t-39.5 186.5zM198 593h662q-17 52 -49 95t-75.5 74t-96 48t-108.5 17q-57 0 -108.5 -17.5t-94.5 -48.5t-76.5 -74t-53.5 -94zM266 1084h164l113 158l113 -158h164l-194 271h-167z" />
<glyph unicode="&#xeb;" horiz-adv-x="1106" d="M53 478q0 100 38 187t103 152t152 102.5t185 37.5t185 -37.5t152.5 -102.5t103.5 -152t38 -187v-15h-829q3 -69 33.5 -130t80 -106t113.5 -71t135 -26q53 0 104.5 14t96 40t80 62.5t56.5 80.5l130 -23q-27 -67 -75 -122.5t-109.5 -96t-134 -63t-148.5 -22.5 q-99 0 -187.5 37.5t-156 102t-107 152t-39.5 186.5zM198 593h662q-17 52 -49 95t-75.5 74t-96 48t-108.5 17q-57 0 -108.5 -17.5t-94.5 -48.5t-76.5 -74t-53.5 -94zM233 1174q0 21 7.5 40t21 33.5t31.5 22.5t38 8q19 0 37 -8t31.5 -22.5t21.5 -33.5t8 -40t-8 -39t-21.5 -31 t-31.5 -20.5t-37 -7.5q-20 0 -38 7.5t-31.5 20.5t-21 31t-7.5 39zM592 1174q0 21 8 40t21.5 33.5t32 22.5t38.5 8t38 -8t31.5 -22.5t21.5 -33.5t8 -40t-8 -39t-21.5 -31t-31.5 -20.5t-38 -7.5t-38.5 7.5t-32 20.5t-21.5 31t-8 39z" />
<glyph unicode="&#xec;" horiz-adv-x="277" d="M-75 1363l377 -268l58 57l-200 211h-235zM79 0v957h132v-957h-132z" />
<glyph unicode="&#xed;" horiz-adv-x="277" d="M-79 1150l200 211h235l-377 -268zM79 0v957h132v-957h-132z" />
<glyph unicode="&#xee;" horiz-adv-x="277" d="M-135 1098h164l113 158l113 -158h164l-194 271h-167zM79 0v957h132v-957h-132z" />
<glyph unicode="&#xef;" horiz-adv-x="277" d="M-137 1141q0 21 7.5 40t21 33.5t31.5 22.5t38 8q19 0 37 -8t31.5 -22.5t21.5 -33.5t8 -40t-8 -39t-21.5 -31t-31.5 -20.5t-37 -7.5q-20 0 -38 7.5t-31.5 20.5t-21 31t-7.5 39zM79 0v957h132v-957h-132zM222 1141q0 21 8 40t21.5 33.5t32 22.5t38.5 8t38 -8t31.5 -22.5 t21.5 -33.5t8 -40t-8 -39t-21.5 -31t-31.5 -20.5t-38 -7.5t-38.5 7.5t-32 20.5t-21.5 31t-8 39z" />
<glyph unicode="&#xf1;" horiz-adv-x="1103" d="M72 0v957h132v-174q57 79 144 126.5t199 47.5q97 0 178 -37t140 -100.5t92.5 -149.5t36.5 -184v-486h-132v478q0 73 -22 136.5t-63.5 110.5t-99.5 74.5t-130 27.5q-74 0 -136.5 -27.5t-108.5 -74.5t-72 -110.5t-26 -136.5v-478h-132zM223 1143q10 29 23 55.5t32 48.5 t45.5 37.5t64.5 22.5q19 3 36 3q39 0 69.5 -13t56.5 -29t49 -29t49 -13q19 0 31 7.5t20.5 19t14.5 26t12 28.5l123 -46q-13 -36 -29.5 -67t-40.5 -54t-57 -36.5t-79 -13.5q-27 0 -48 5.5t-40.5 15.5t-39.5 23t-44 28q-13 6 -24.5 10t-22.5 4q-18 0 -30.5 -8t-21.5 -20 t-15 -26.5t-11 -27.5z" />
<glyph unicode="&#xf2;" d="M53 478q0 100 38 187t103 152t152 102.5t185 37.5t185 -37.5t152.5 -102.5t103.5 -152.5t38 -187.5q0 -99 -38 -186t-103.5 -151.5t-152.5 -102t-185 -37.5t-185 37.5t-152 102t-103 152t-38 186.5zM130 1355l377 -268l58 57l-200 211h-235zM185 477q0 -72 26.5 -135 t73 -110.5t109.5 -74.5t137 -27q73 0 136.5 27t110.5 74.5t73.5 110.5t26.5 135q0 73 -26.5 137t-73.5 111t-110.5 74.5t-136.5 27.5q-74 0 -137 -27.5t-109.5 -74.5t-73 -111t-26.5 -137z" />
<glyph unicode="&#xf3;" d="M53 478q0 100 38 187t103 152t152 102.5t185 37.5t185 -37.5t152.5 -102.5t103.5 -152.5t38 -187.5q0 -99 -38 -186t-103.5 -151.5t-152.5 -102t-185 -37.5t-185 37.5t-152 102t-103 152t-38 186.5zM185 477q0 -72 26.5 -135t73 -110.5t109.5 -74.5t137 -27 q73 0 136.5 27t110.5 74.5t73.5 110.5t26.5 135q0 73 -26.5 137t-73.5 111t-110.5 74.5t-136.5 27.5q-74 0 -137 -27.5t-109.5 -74.5t-73 -111t-26.5 -137zM451 1144l200 211h235l-377 -268z" />
<glyph unicode="&#xf4;" d="M53 478q0 100 38 187t103 152t152 102.5t185 37.5t185 -37.5t152.5 -102.5t103.5 -152.5t38 -187.5q0 -99 -38 -186t-103.5 -151.5t-152.5 -102t-185 -37.5t-185 37.5t-152 102t-103 152t-38 186.5zM185 477q0 -72 26.5 -135t73 -110.5t109.5 -74.5t137 -27 q73 0 136.5 27t110.5 74.5t73.5 110.5t26.5 135q0 73 -26.5 137t-73.5 111t-110.5 74.5t-136.5 27.5q-74 0 -137 -27.5t-109.5 -74.5t-73 -111t-26.5 -137zM259 1084h164l113 158l113 -158h164l-194 271h-167z" />
<glyph unicode="&#xf5;" d="M53 478q0 100 38 187t103 152t152 102.5t185 37.5t185 -37.5t152.5 -102.5t103.5 -152.5t38 -187.5q0 -99 -38 -186t-103.5 -151.5t-152.5 -102t-185 -37.5t-185 37.5t-152 102t-103 152t-38 186.5zM185 477q0 -72 26.5 -135t73 -110.5t109.5 -74.5t137 -27 q73 0 136.5 27t110.5 74.5t73.5 110.5t26.5 135q0 73 -26.5 137t-73.5 111t-110.5 74.5t-136.5 27.5q-74 0 -137 -27.5t-109.5 -74.5t-73 -111t-26.5 -137zM212 1136q10 29 23 55.5t32 48.5t45.5 37.5t64.5 22.5q19 3 36 3q39 0 69.5 -13t56.5 -29t49 -29t49 -13 q19 0 31 7.5t20.5 19t14.5 26t12 28.5l123 -46q-13 -36 -29.5 -67t-40.5 -54t-57 -36.5t-79 -13.5q-27 0 -48 5.5t-40.5 15.5t-39.5 23t-44 28q-13 6 -24.5 10t-22.5 4q-18 0 -30.5 -8t-21.5 -20t-15 -26.5t-11 -27.5z" />
<glyph unicode="&#xf6;" d="M53 478q0 100 38 187t103 152t152 102.5t185 37.5t185 -37.5t152.5 -102.5t103.5 -152.5t38 -187.5q0 -99 -38 -186t-103.5 -151.5t-152.5 -102t-185 -37.5t-185 37.5t-152 102t-103 152t-38 186.5zM185 477q0 -72 26.5 -135t73 -110.5t109.5 -74.5t137 -27 q73 0 136.5 27t110.5 74.5t73.5 110.5t26.5 135q0 73 -26.5 137t-73.5 111t-110.5 74.5t-136.5 27.5q-74 0 -137 -27.5t-109.5 -74.5t-73 -111t-26.5 -137zM242 1188q0 21 7.5 40t21 33.5t31.5 22.5t38 8q19 0 37 -8t31.5 -22.5t21.5 -33.5t8 -40t-8 -39t-21.5 -31 t-31.5 -20.5t-37 -7.5q-20 0 -38 7.5t-31.5 20.5t-21 31t-7.5 39zM601 1188q0 21 8 40t21.5 33.5t32 22.5t38.5 8t38 -8t31.5 -22.5t21.5 -33.5t8 -40t-8 -39t-21.5 -31t-31.5 -20.5t-38 -7.5t-38.5 7.5t-32 20.5t-21.5 31t-8 39z" />
<glyph unicode="&#xf7;" horiz-adv-x="1055" d="M11 384v130h1007v-130h-1007zM391 126q0 22 8.5 42t23.5 35t35 24t43 9q22 0 42.5 -9t35.5 -24t24 -35t9 -42q0 -23 -9 -43.5t-24 -35.5t-35.5 -24t-42.5 -9q-23 0 -43 9t-35 24t-23.5 35.5t-8.5 43.5zM391 760q0 22 8.5 42t23.5 35t35 23.5t43 8.5q22 0 42.5 -8.5 t35.5 -23.5t24 -35t9 -42q0 -23 -9 -43t-24 -35t-35.5 -24t-42.5 -9q-23 0 -43 9t-35 24t-23.5 35t-8.5 43z" />
<glyph unicode="&#xf8;" horiz-adv-x="1172" d="M107 478q0 100 37.5 187t102.5 152t152 102.5t186 37.5q54 0 104 -12.5t96 -31.5l32 44h146l-72 -113q39 -33 70.5 -73.5t54 -87.5t35 -99t12.5 -106q0 -99 -38 -186.5t-103 -152t-152 -102t-185 -37.5q-52 0 -98 8.5t-89 28.5l-22 -37h-148l60 98q-85 66 -133 164 t-48 216zM235 478q0 -82 32.5 -151.5t90.5 -117.5l362 592q-30 11 -66 18.5t-69 7.5q-73 0 -137 -27.5t-111 -74.5t-74.5 -110.5t-27.5 -136.5zM467 148q26 -11 56 -14.5t62 -3.5q72 0 135.5 27t111 74.5t74.5 111t27 135.5q0 75 -29 139.5t-80 110.5z" />
<glyph unicode="&#xf9;" horiz-adv-x="1026" d="M65 456v501h132v-501q0 -69 19.5 -128.5t57 -103.5t90.5 -69t121 -25q75 0 129.5 27t90 74.5t52.5 111t17 135.5v479h132v-957h-132v137q-49 -63 -118 -100t-171 -37q-95 0 -171.5 35.5t-130.5 97t-84.5 145t-33.5 178.5zM178 1355l377 -268l58 57l-200 211h-235z" />
<glyph unicode="&#xfa;" horiz-adv-x="1026" d="M65 456v501h132v-501q0 -69 19.5 -128.5t57 -103.5t90.5 -69t121 -25q75 0 129.5 27t90 74.5t52.5 111t17 135.5v479h132v-957h-132v137q-49 -63 -118 -100t-171 -37q-95 0 -171.5 35.5t-130.5 97t-84.5 145t-33.5 178.5zM313 1144l200 211h235l-377 -268z" />
<glyph unicode="&#xfb;" horiz-adv-x="1026" d="M65 456v501h132v-501q0 -69 19.5 -128.5t57 -103.5t90.5 -69t121 -25q75 0 129.5 27t90 74.5t52.5 111t17 135.5v479h132v-957h-132v137q-49 -63 -118 -100t-171 -37q-95 0 -171.5 35.5t-130.5 97t-84.5 145t-33.5 178.5zM210 1087h164l113 158l113 -158h164l-194 271 h-167z" />
<glyph unicode="&#xfc;" horiz-adv-x="1026" d="M65 456v501h132v-501q0 -69 19.5 -128.5t57 -103.5t90.5 -69t121 -25q75 0 129.5 27t90 74.5t52.5 111t17 135.5v479h132v-957h-132v137q-49 -63 -118 -100t-171 -37q-95 0 -171.5 35.5t-130.5 97t-84.5 145t-33.5 178.5zM203 1175q0 21 7.5 40t21 33.5t31.5 22.5t38 8 q19 0 37 -8t31.5 -22.5t21.5 -33.5t8 -40t-8 -39t-21.5 -31t-31.5 -20.5t-37 -7.5q-20 0 -38 7.5t-31.5 20.5t-21 31t-7.5 39zM562 1175q0 21 8 40t21.5 33.5t32 22.5t38.5 8t38 -8t31.5 -22.5t21.5 -33.5t8 -40t-8 -39t-21.5 -31t-31.5 -20.5t-38 -7.5t-38.5 7.5t-32 20.5 t-21.5 31t-8 39z" />
<glyph unicode="&#xfd;" horiz-adv-x="1090" d="M40 957h148l392 -725l296 725h141l-470 -1177q-14 -36 -31 -68t-39 -57t-50.5 -39.5t-67.5 -14.5h-106v134h106q16 0 24.5 8.5t22.5 39.5l106 282zM354 1144l200 211h235l-377 -268z" />
<glyph unicode="&#xff;" horiz-adv-x="1090" d="M40 957h148l392 -725l296 725h141l-470 -1177q-14 -36 -31 -68t-39 -57t-50.5 -39.5t-67.5 -14.5h-106v134h106q16 0 24.5 8.5t22.5 39.5l106 282zM290 1182q0 21 7.5 40t21 33.5t31.5 22.5t38 8q19 0 37 -8t31.5 -22.5t21.5 -33.5t8 -40t-8 -39t-21.5 -31t-31.5 -20.5 t-37 -7.5q-20 0 -38 7.5t-31.5 20.5t-21 31t-7.5 39zM649 1182q0 21 8 40t21.5 33.5t32 22.5t38.5 8t38 -8t31.5 -22.5t21.5 -33.5t8 -40t-8 -39t-21.5 -31t-31.5 -20.5t-38 -7.5t-38.5 7.5t-32 20.5t-21.5 31t-8 39z" />
<glyph unicode="&#x152;" horiz-adv-x="1842" d="M65 528v299q0 107 36.5 202t100.5 167t150.5 114.5t187.5 44.5h10q106 -3 196 -50t156 -128v109h794v-120h-660v-365h532v-134h-532v-486h660v-120h-794v117q-66 -81 -156 -128t-196 -50h-10q-101 1 -187.5 44t-150.5 115t-100.5 167.5t-36.5 201.5zM185 528 q0 -85 28.5 -158t77 -127t113 -85t136.5 -32h10q71 1 134.5 32t111 85t75.5 127t28 158v299q0 85 -28 158.5t-75.5 127.5t-111 85.5t-134.5 32.5h-10q-72 -1 -136.5 -32.5t-113 -85.5t-77 -127.5t-28.5 -158.5v-299z" />
<glyph unicode="&#x153;" horiz-adv-x="1950" d="M68 478q0 100 33.5 187t94 152t144 102.5t184.5 37.5q66 0 125.5 -17t111 -48.5t94.5 -75.5t75 -98q31 54 70.5 98t87.5 75.5t105.5 48.5t124.5 17q98 0 181 -37.5t144 -102.5t95 -152t34 -187v-19h-778q3 -70 29.5 -130t71 -104.5t104 -69.5t129.5 -25q106 0 184 53.5 t121 143.5l128 -23q-27 -67 -69.5 -122.5t-97.5 -96t-122.5 -63t-143.5 -22.5q-66 0 -124 17.5t-108 49.5t-91.5 77t-74.5 99q-30 -54 -72 -99t-94 -77t-112.5 -49.5t-127.5 -17.5q-101 0 -184.5 37.5t-144 102t-94 152t-33.5 186.5zM197 478q0 -72 23.5 -135.5t66.5 -111 t103 -74.5t134 -27q72 0 134.5 27t108.5 74.5t72 111t26 135.5q0 73 -26 136.5t-72 110.5t-108.5 74.5t-134.5 27.5q-74 0 -134 -27.5t-103 -74.5t-66.5 -110.5t-23.5 -136.5zM1013 597h611q-18 49 -47 91t-68 73t-87 48.5t-104 17.5q-57 0 -105 -17.5t-86.5 -48.5t-67 -73 t-46.5 -91z" />
<glyph unicode="&#x178;" horiz-adv-x="1048" d="M33 1355h152l315 -543l318 543h153l-403 -674v-681h-133v681zM203 1544q0 21 7.5 40t21 33.5t31.5 22.5t38 8q19 0 37 -8t31.5 -22.5t21.5 -33.5t8 -40t-8 -39t-21.5 -31t-31.5 -20.5t-37 -7.5q-20 0 -38 7.5t-31.5 20.5t-21 31t-7.5 39zM562 1544q0 21 8 40t21.5 33.5 t32 22.5t38.5 8t38 -8t31.5 -22.5t21.5 -33.5t8 -40t-8 -39t-21.5 -31t-31.5 -20.5t-38 -7.5t-38.5 7.5t-32 20.5t-21.5 31t-8 39z" />
<glyph unicode="&#x2c6;" horiz-adv-x="692" d="M76 1084h164l113 158l113 -158h164l-194 271h-167z" />
<glyph unicode="&#x2dc;" horiz-adv-x="758" d="M44 1006q10 29 23 55.5t32 48.5t45.5 37.5t64.5 22.5q19 3 36 3q39 0 69.5 -13t56.5 -29t49 -29t49 -13q19 0 31 7.5t20.5 19t14.5 26t12 28.5l123 -46q-13 -36 -29.5 -67t-40.5 -54t-57 -36.5t-79 -13.5q-27 0 -48 5.5t-40.5 15.5t-39.5 23t-44 28q-13 6 -24.5 10 t-22.5 4q-18 0 -30.5 -8t-21.5 -20t-15 -26.5t-11 -27.5z" />
<glyph unicode="&#x2000;" horiz-adv-x="863" />
<glyph unicode="&#x2001;" horiz-adv-x="1727" />
<glyph unicode="&#x2002;" horiz-adv-x="863" />
<glyph unicode="&#x2003;" horiz-adv-x="1727" />
<glyph unicode="&#x2004;" horiz-adv-x="575" />
<glyph unicode="&#x2005;" horiz-adv-x="431" />
<glyph unicode="&#x2006;" horiz-adv-x="287" />
<glyph unicode="&#x2007;" horiz-adv-x="287" />
<glyph unicode="&#x2008;" horiz-adv-x="215" />
<glyph unicode="&#x2009;" horiz-adv-x="345" />
<glyph unicode="&#x200a;" horiz-adv-x="95" />
<glyph unicode="&#x2010;" horiz-adv-x="709" d="M72 528v132h523v-132h-523z" />
<glyph unicode="&#x2011;" horiz-adv-x="709" d="M72 528v132h523v-132h-523z" />
<glyph unicode="&#x2012;" horiz-adv-x="709" d="M72 528v132h523v-132h-523z" />
<glyph unicode="&#x2013;" horiz-adv-x="966" d="M72 517v132h767v-132h-767z" />
<glyph unicode="&#x2014;" horiz-adv-x="1584" d="M46 508v134h1405v-134h-1405z" />
<glyph unicode="&#x2018;" horiz-adv-x="354" d="M36 1068q0 45 21.5 93.5t55.5 90.5t75.5 70.5t80.5 32.5q1 -2 4.5 -13.5t8 -27t4.5 -19.5q0 -1 -1 -1q-19 -6 -40.5 -17t-40 -26t-30.5 -32t-12 -35q0 -7 15 -12.5t33 -17t33 -31.5t15 -55q0 -3 -0.5 -6.5t-0.5 -6.5q-6 -42 -37 -68.5t-73 -26.5h-10q-21 2 -39 11 t-32 23.5t-22 33.5t-8 40z" />
<glyph unicode="&#x2019;" horiz-adv-x="354" d="M48 966q0 2 1 2q19 7 40 18t39 25t31 30t15 34v4q0 7 -15 14t-32.5 19t-32.5 31.5t-15 53.5v10q3 21 12.5 39.5t24 32t33 21.5t38.5 8q23 0 43 -8.5t35 -23.5t23.5 -35t8.5 -42q0 -47 -21 -96.5t-54.5 -91.5t-75 -71t-81.5 -34q-1 2 -4.5 13t-8 26.5t-4.5 20.5z" />
<glyph unicode="&#x201a;" horiz-adv-x="360" d="M52 -123h1q19 8 40 19.5t39.5 25.5t31 30t14.5 34v3q0 6 -15 13t-33 19.5t-33 32.5t-15 52q0 2 0.5 5t0.5 5q3 21 12 40t23.5 32.5t32.5 21.5t39 8q23 0 43 -9t35 -24t24 -34.5t9 -41.5q0 -46 -21 -95.5t-55 -91.5t-75.5 -70.5t-81.5 -32.5q-1 2 -4.5 13t-7.5 25.5 t-4 18.5v1z" />
<glyph unicode="&#x201c;" horiz-adv-x="698" d="M56 1068q0 45 21 93.5t55 90.5t75 70.5t82 32.5l2.5 -8.5t5.5 -19t5 -20t2 -12.5v-1q-19 -6 -40 -16.5t-39 -24.5t-30.5 -30.5t-13.5 -33.5v-3q0 -7 15 -13t33 -18t33 -32.5t15 -55.5q0 -3 -0.5 -6t-0.5 -6q-6 -43 -37.5 -69t-73.5 -26h-10q-20 2 -38 11t-31.5 23.5 t-21.5 33.5t-8 40zM344 1070q0 45 21 93.5t54.5 89.5t75 69.5t82.5 32.5l18 -61q-19 -6 -40.5 -16.5t-40 -24.5t-32 -30.5t-16.5 -33.5q0 -9 15.5 -15t34 -17.5t34 -32t15.5 -58.5v-11q-6 -43 -37 -69t-73 -26h-10q-45 4 -73 35.5t-28 74.5z" />
<glyph unicode="&#x201d;" horiz-adv-x="694" d="M60 1016q0 1 0.5 1.5l0.5 0.5q18 7 39 18t39.5 25t31 30t14.5 33v4q0 8 -15 13.5t-33 16.5t-33 31t-15 57q0 3 0.5 5.5t0.5 5.5q3 21 12.5 39t24 31.5t33 21t39.5 7.5t41 -8.5t35.5 -23.5t24.5 -34.5t9 -41.5q0 -47 -21.5 -96.5t-55.5 -91.5t-75 -70.5t-81 -32.5 q-1 2 -4.5 13t-7.5 26t-4 20zM348 1018q19 7 40.5 18t40 25t31.5 30t15 33v4q0 7 -15 14t-33 19t-33 31.5t-15 52.5q0 3 0.5 6t0.5 6q5 42 34.5 70.5t71.5 28.5q24 0 44 -8.5t35 -23t23 -33.5t8 -41q0 -31 -9.5 -64t-26 -64.5t-39 -60t-48.5 -51t-54 -36.5t-55 -17 q-1 2 -5 15.5t-8 29.5t-3 16z" />
<glyph unicode="&#x201e;" horiz-adv-x="694" d="M60 -110q0 1 0.5 1.5l0.5 0.5q18 7 39 18t39.5 25t31 30t14.5 33v4q0 9 -15 14.5t-33 16.5t-33 31t-15 57q0 3 0.5 5.5t0.5 4.5q3 21 12.5 39t24 31.5t33 21.5t39.5 8t41 -8.5t35.5 -23.5t24.5 -35t9 -42q0 -47 -21.5 -96.5t-55.5 -91.5t-75 -70.5t-81 -32.5 q-1 2 -4.5 13t-7.5 26t-4 20zM348 -108q19 7 40.5 18t40 25t31.5 30t15 33v4q0 8 -15 15t-33 19t-33 31.5t-15 52.5q0 3 0.5 5.5t0.5 5.5q5 42 35 71t71 29q24 0 44 -8.5t35 -23t23 -34t8 -41.5q0 -31 -9.5 -64t-26 -64.5t-39 -60t-48.5 -51t-54 -36.5t-55 -17q-1 2 -5 15.5 t-8 29.5t-3 16z" />
<glyph unicode="&#x2022;" horiz-adv-x="573" d="M53 656q0 43 17 81.5t46.5 67t69 45t83.5 16.5t83.5 -16.5t69 -45t46.5 -67t17 -81.5q0 -42 -17 -80t-46.5 -66t-69 -44.5t-83.5 -16.5t-83.5 16.5t-69 44.5t-46.5 66t-17 80z" />
<glyph unicode="&#x2026;" horiz-adv-x="1519" d="M68 109q0 23 8.5 43.5t23.5 35.5t35 23.5t43 8.5q22 0 42.5 -8.5t35.5 -23.5t24 -35.5t9 -43.5t-9 -42.5t-24 -34.5t-35.5 -23.5t-42.5 -8.5q-23 0 -43 8.5t-35 23.5t-23.5 34.5t-8.5 42.5zM607 109q0 23 8.5 43.5t23.5 35.5t35 23.5t43 8.5t43 -8.5t35 -23.5t23.5 -35.5 t8.5 -43.5t-8.5 -42.5t-23.5 -34.5t-35 -23.5t-43 -8.5t-43 8.5t-35 23.5t-23.5 34.5t-8.5 42.5zM1145 109q0 23 9 43.5t24 35.5t35 23.5t43 8.5t43 -8.5t35 -23.5t23.5 -35.5t8.5 -43.5t-8.5 -42.5t-23.5 -34.5t-35 -23.5t-43 -8.5t-43 8.5t-35 23.5t-24 34.5t-9 42.5z" />
<glyph unicode="&#x202f;" horiz-adv-x="345" />
<glyph unicode="&#x2039;" horiz-adv-x="529" d="M7 501l438 456v-178l-210 -283l210 -276v-178z" />
<glyph unicode="&#x203a;" horiz-adv-x="545" d="M72 42v178l208 276l-208 283v178l436 -456z" />
<glyph unicode="&#x205f;" horiz-adv-x="431" />
<glyph unicode="&#x2122;" horiz-adv-x="1208" d="M57 1222v133h436v-133h-148v-341h-132v341h-156zM554 881v474h160l97 -312l99 312h159v-474h-131v159l-54 -159h-145l-51 159v-159h-134z" />
<glyph unicode="&#x25fc;" horiz-adv-x="955" d="M0 0v955h955v-955h-955z" />
<glyph unicode="&#xfb01;" horiz-adv-x="650" d="M40 823v134h76v98q0 63 24 117.5t65 95t95.5 64t116.5 23.5h22v-133h-22q-34 0 -64.5 -13.5t-53 -36.5t-36 -53t-13.5 -64v-98h300v-957h-133v823h-167v-823h-134v823h-76zM417 1066q0 26 20 45.5t48 19.5q26 0 45.5 -19.5t19.5 -45.5q0 -28 -19.5 -47.5t-45.5 -19.5 q-28 0 -48 19.5t-20 47.5z" />
<glyph unicode="&#xfb02;" horiz-adv-x="782" d="M61 823v134h76v98q0 63 23.5 117.5t64 95t94.5 64t116 23.5h24v-133h-24q-34 0 -64 -13.5t-52.5 -36.5t-36 -53t-13.5 -64v-98h190v-134h-190v-823h-132v823h-76zM535 0v1355h132v-1355h-132z" />
</font>
</defs>
</svg>
